ISO-10303-21;
HEADER;
/* Generated by software containing ST-Developer
 * from STEP Tools, Inc. (www.steptools.com) 
 */
/* OPTION: using custom renumber hook */

FILE_DESCRIPTION(
/* description */ ('STEP AP242 Edition 2',
'CAx-IF Rec.Pracs.---Representation and Presentation of Product Manufa
cturing Information (PMI)---4.0---2014-10-13',
'CAx-IF Rec.Pracs.---3D Tessellated Geometry---0.4---2014-09-14','2;1',
'CAx-IF Rec.Pracs.---User Defined Attributes---1.5---2016-08-15'),
/* implementation_level */ '2;1');

FILE_NAME(
/* name */ 'Part Studio 1 - Bottom',
/* time_stamp */ '2026-06-04T23:13:41Z',
/* author */ (''),
/* organization */ (''),
/* preprocessor_version */ 'ST-DEVELOPER v20',
/* originating_system */ 'ONSHAPE BY PTC INC, 1.215',
/* authorisation */ '  ');

FILE_SCHEMA (('AP242_MANAGED_MODEL_BASED_3D_ENGINEERING_MIM_LF { 1 0 10303 442 3 1 4 }'));
ENDSEC;

DATA;
#10=SHAPE_REPRESENTATION_RELATIONSHIP('','',#363,#11);
#11=ADVANCED_BREP_SHAPE_REPRESENTATION('',(#361),#577);
#12=CYLINDRICAL_SURFACE('',#376,0.00145);
#13=CYLINDRICAL_SURFACE('',#378,0.00145);
#14=CYLINDRICAL_SURFACE('',#380,0.00145);
#15=CYLINDRICAL_SURFACE('',#382,0.00145);
#16=LINE('',#491,#52);
#17=LINE('',#494,#53);
#18=LINE('',#496,#54);
#19=LINE('',#498,#55);
#20=LINE('',#500,#56);
#21=LINE('',#502,#57);
#22=LINE('',#504,#58);
#23=LINE('',#506,#59);
#24=LINE('',#508,#60);
#25=LINE('',#510,#61);
#26=LINE('',#512,#62);
#27=LINE('',#514,#63);
#28=LINE('',#516,#64);
#29=LINE('',#518,#65);
#30=LINE('',#520,#66);
#31=LINE('',#522,#67);
#32=LINE('',#523,#68);
#33=LINE('',#525,#69);
#34=LINE('',#527,#70);
#35=LINE('',#529,#71);
#36=LINE('',#531,#72);
#37=LINE('',#533,#73);
#38=LINE('',#535,#74);
#39=LINE('',#537,#75);
#40=LINE('',#539,#76);
#41=LINE('',#541,#77);
#42=LINE('',#542,#78);
#43=LINE('',#544,#79);
#44=LINE('',#546,#80);
#45=LINE('',#548,#81);
#46=LINE('',#550,#82);
#47=LINE('',#552,#83);
#48=LINE('',#566,#84);
#49=LINE('',#568,#85);
#50=LINE('',#572,#86);
#51=LINE('',#574,#87);
#52=VECTOR('',#403,1.);
#53=VECTOR('',#404,1.);
#54=VECTOR('',#405,1.);
#55=VECTOR('',#406,1.);
#56=VECTOR('',#407,1.);
#57=VECTOR('',#408,1.);
#58=VECTOR('',#409,1.);
#59=VECTOR('',#410,1.);
#60=VECTOR('',#411,1.);
#61=VECTOR('',#412,1.);
#62=VECTOR('',#413,1.);
#63=VECTOR('',#414,1.);
#64=VECTOR('',#417,1.);
#65=VECTOR('',#418,1.);
#66=VECTOR('',#419,1.);
#67=VECTOR('',#420,1.);
#68=VECTOR('',#421,1.);
#69=VECTOR('',#422,1.);
#70=VECTOR('',#425,1.);
#71=VECTOR('',#426,1.);
#72=VECTOR('',#429,1.);
#73=VECTOR('',#430,1.);
#74=VECTOR('',#433,1.);
#75=VECTOR('',#434,1.);
#76=VECTOR('',#435,1.);
#77=VECTOR('',#436,1.);
#78=VECTOR('',#437,1.);
#79=VECTOR('',#438,1.);
#80=VECTOR('',#441,1.);
#81=VECTOR('',#442,1.);
#82=VECTOR('',#445,1.);
#83=VECTOR('',#446,1.);
#84=VECTOR('',#465,1.);
#85=VECTOR('',#468,1.);
#86=VECTOR('',#475,1.);
#87=VECTOR('',#478,1.);
#88=ORIENTED_EDGE('',*,*,#176,.F.);
#89=ORIENTED_EDGE('',*,*,#177,.T.);
#90=ORIENTED_EDGE('',*,*,#178,.F.);
#91=ORIENTED_EDGE('',*,*,#179,.T.);
#92=ORIENTED_EDGE('',*,*,#180,.T.);
#93=ORIENTED_EDGE('',*,*,#181,.T.);
#94=ORIENTED_EDGE('',*,*,#182,.F.);
#95=ORIENTED_EDGE('',*,*,#183,.F.);
#96=ORIENTED_EDGE('',*,*,#184,.T.);
#97=ORIENTED_EDGE('',*,*,#185,.T.);
#98=ORIENTED_EDGE('',*,*,#186,.F.);
#99=ORIENTED_EDGE('',*,*,#187,.F.);
#100=ORIENTED_EDGE('',*,*,#188,.T.);
#101=ORIENTED_EDGE('',*,*,#189,.F.);
#102=ORIENTED_EDGE('',*,*,#190,.F.);
#103=ORIENTED_EDGE('',*,*,#191,.T.);
#104=ORIENTED_EDGE('',*,*,#192,.F.);
#105=ORIENTED_EDGE('',*,*,#180,.F.);
#106=ORIENTED_EDGE('',*,*,#193,.T.);
#107=ORIENTED_EDGE('',*,*,#194,.T.);
#108=ORIENTED_EDGE('',*,*,#195,.F.);
#109=ORIENTED_EDGE('',*,*,#188,.F.);
#110=ORIENTED_EDGE('',*,*,#196,.T.);
#111=ORIENTED_EDGE('',*,*,#197,.F.);
#112=ORIENTED_EDGE('',*,*,#198,.F.);
#113=ORIENTED_EDGE('',*,*,#199,.F.);
#114=ORIENTED_EDGE('',*,*,#189,.T.);
#115=ORIENTED_EDGE('',*,*,#195,.T.);
#116=ORIENTED_EDGE('',*,*,#200,.F.);
#117=ORIENTED_EDGE('',*,*,#201,.F.);
#118=ORIENTED_EDGE('',*,*,#190,.T.);
#119=ORIENTED_EDGE('',*,*,#199,.T.);
#120=ORIENTED_EDGE('',*,*,#202,.F.);
#121=ORIENTED_EDGE('',*,*,#186,.T.);
#122=ORIENTED_EDGE('',*,*,#203,.T.);
#123=ORIENTED_EDGE('',*,*,#204,.F.);
#124=ORIENTED_EDGE('',*,*,#205,.F.);
#125=ORIENTED_EDGE('',*,*,#182,.T.);
#126=ORIENTED_EDGE('',*,*,#206,.T.);
#127=ORIENTED_EDGE('',*,*,#207,.T.);
#128=ORIENTED_EDGE('',*,*,#205,.T.);
#129=ORIENTED_EDGE('',*,*,#208,.F.);
#130=ORIENTED_EDGE('',*,*,#209,.F.);
#131=ORIENTED_EDGE('',*,*,#183,.T.);
#132=ORIENTED_EDGE('',*,*,#209,.T.);
#133=ORIENTED_EDGE('',*,*,#210,.T.);
#134=ORIENTED_EDGE('',*,*,#211,.F.);
#135=ORIENTED_EDGE('',*,*,#184,.F.);
#136=ORIENTED_EDGE('',*,*,#179,.F.);
#137=ORIENTED_EDGE('',*,*,#212,.T.);
#138=ORIENTED_EDGE('',*,*,#178,.T.);
#139=ORIENTED_EDGE('',*,*,#213,.F.);
#140=ORIENTED_EDGE('',*,*,#177,.F.);
#141=ORIENTED_EDGE('',*,*,#214,.T.);
#142=ORIENTED_EDGE('',*,*,#176,.T.);
#143=ORIENTED_EDGE('',*,*,#215,.F.);
#144=ORIENTED_EDGE('',*,*,#211,.T.);
#145=ORIENTED_EDGE('',*,*,#216,.T.);
#146=ORIENTED_EDGE('',*,*,#203,.F.);
#147=ORIENTED_EDGE('',*,*,#185,.F.);
#148=ORIENTED_EDGE('',*,*,#217,.T.);
#149=ORIENTED_EDGE('',*,*,#193,.F.);
#150=ORIENTED_EDGE('',*,*,#191,.F.);
#151=ORIENTED_EDGE('',*,*,#201,.T.);
#152=ORIENTED_EDGE('',*,*,#194,.F.);
#153=ORIENTED_EDGE('',*,*,#217,.F.);
#154=ORIENTED_EDGE('',*,*,#200,.T.);
#155=ORIENTED_EDGE('',*,*,#198,.T.);
#156=ORIENTED_EDGE('',*,*,#204,.T.);
#157=ORIENTED_EDGE('',*,*,#216,.F.);
#158=ORIENTED_EDGE('',*,*,#210,.F.);
#159=ORIENTED_EDGE('',*,*,#208,.T.);
#160=ORIENTED_EDGE('',*,*,#215,.T.);
#161=ORIENTED_EDGE('',*,*,#214,.F.);
#162=ORIENTED_EDGE('',*,*,#213,.T.);
#163=ORIENTED_EDGE('',*,*,#212,.F.);
#164=ORIENTED_EDGE('',*,*,#202,.T.);
#165=ORIENTED_EDGE('',*,*,#218,.F.);
#166=ORIENTED_EDGE('',*,*,#196,.F.);
#167=ORIENTED_EDGE('',*,*,#187,.T.);
#168=ORIENTED_EDGE('',*,*,#207,.F.);
#169=ORIENTED_EDGE('',*,*,#219,.F.);
#170=ORIENTED_EDGE('',*,*,#197,.T.);
#171=ORIENTED_EDGE('',*,*,#218,.T.);
#172=ORIENTED_EDGE('',*,*,#206,.F.);
#173=ORIENTED_EDGE('',*,*,#181,.F.);
#174=ORIENTED_EDGE('',*,*,#192,.T.);
#175=ORIENTED_EDGE('',*,*,#219,.T.);
#176=EDGE_CURVE('',#220,#220,#252,.T.);
#177=EDGE_CURVE('',#221,#221,#253,.T.);
#178=EDGE_CURVE('',#222,#222,#254,.T.);
#179=EDGE_CURVE('',#223,#223,#255,.T.);
#180=EDGE_CURVE('',#224,#225,#16,.T.);
#181=EDGE_CURVE('',#225,#226,#17,.T.);
#182=EDGE_CURVE('',#227,#226,#18,.T.);
#183=EDGE_CURVE('',#228,#227,#19,.T.);
#184=EDGE_CURVE('',#228,#229,#20,.T.);
#185=EDGE_CURVE('',#229,#230,#21,.T.);
#186=EDGE_CURVE('',#231,#230,#22,.T.);
#187=EDGE_CURVE('',#232,#231,#23,.T.);
#188=EDGE_CURVE('',#232,#233,#24,.T.);
#189=EDGE_CURVE('',#234,#233,#25,.T.);
#190=EDGE_CURVE('',#235,#234,#26,.T.);
#191=EDGE_CURVE('',#235,#224,#27,.T.);
#192=EDGE_CURVE('',#225,#236,#28,.T.);
#193=EDGE_CURVE('',#224,#237,#29,.T.);
#194=EDGE_CURVE('',#237,#238,#30,.T.);
#195=EDGE_CURVE('',#233,#238,#31,.T.);
#196=EDGE_CURVE('',#232,#239,#32,.T.);
#197=EDGE_CURVE('',#236,#239,#33,.T.);
#198=EDGE_CURVE('',#240,#238,#34,.T.);
#199=EDGE_CURVE('',#234,#240,#35,.T.);
#200=EDGE_CURVE('',#241,#240,#36,.T.);
#201=EDGE_CURVE('',#235,#241,#37,.T.);
#202=EDGE_CURVE('',#231,#242,#38,.T.);
#203=EDGE_CURVE('',#230,#243,#39,.T.);
#204=EDGE_CURVE('',#244,#243,#40,.T.);
#205=EDGE_CURVE('',#227,#244,#41,.T.);
#206=EDGE_CURVE('',#226,#245,#42,.T.);
#207=EDGE_CURVE('',#245,#242,#43,.T.);
#208=EDGE_CURVE('',#246,#244,#44,.T.);
#209=EDGE_CURVE('',#228,#246,#45,.T.);
#210=EDGE_CURVE('',#246,#247,#46,.T.);
#211=EDGE_CURVE('',#229,#247,#47,.T.);
#212=EDGE_CURVE('',#248,#248,#256,.T.);
#213=EDGE_CURVE('',#249,#249,#257,.T.);
#214=EDGE_CURVE('',#250,#250,#258,.T.);
#215=EDGE_CURVE('',#251,#251,#259,.T.);
#216=EDGE_CURVE('',#247,#243,#48,.T.);
#217=EDGE_CURVE('',#241,#237,#49,.T.);
#218=EDGE_CURVE('',#239,#242,#50,.T.);
#219=EDGE_CURVE('',#236,#245,#51,.T.);
#220=VERTEX_POINT('',#484);
#221=VERTEX_POINT('',#486);
#222=VERTEX_POINT('',#488);
#223=VERTEX_POINT('',#490);
#224=VERTEX_POINT('',#492);
#225=VERTEX_POINT('',#493);
#226=VERTEX_POINT('',#495);
#227=VERTEX_POINT('',#497);
#228=VERTEX_POINT('',#499);
#229=VERTEX_POINT('',#501);
#230=VERTEX_POINT('',#503);
#231=VERTEX_POINT('',#505);
#232=VERTEX_POINT('',#507);
#233=VERTEX_POINT('',#509);
#234=VERTEX_POINT('',#511);
#235=VERTEX_POINT('',#513);
#236=VERTEX_POINT('',#517);
#237=VERTEX_POINT('',#519);
#238=VERTEX_POINT('',#521);
#239=VERTEX_POINT('',#524);
#240=VERTEX_POINT('',#528);
#241=VERTEX_POINT('',#532);
#242=VERTEX_POINT('',#536);
#243=VERTEX_POINT('',#538);
#244=VERTEX_POINT('',#540);
#245=VERTEX_POINT('',#543);
#246=VERTEX_POINT('',#547);
#247=VERTEX_POINT('',#551);
#248=VERTEX_POINT('',#555);
#249=VERTEX_POINT('',#558);
#250=VERTEX_POINT('',#561);
#251=VERTEX_POINT('',#564);
#252=CIRCLE('',#366,0.00145);
#253=CIRCLE('',#367,0.00145);
#254=CIRCLE('',#368,0.00145);
#255=CIRCLE('',#369,0.00145);
#256=CIRCLE('',#377,0.00145);
#257=CIRCLE('',#379,0.00145);
#258=CIRCLE('',#381,0.00145);
#259=CIRCLE('',#383,0.00145);
#260=EDGE_LOOP('',(#88));
#261=EDGE_LOOP('',(#89));
#262=EDGE_LOOP('',(#90));
#263=EDGE_LOOP('',(#91));
#264=EDGE_LOOP('',(#92,#93,#94,#95,#96,#97,#98,#99,#100,#101,#102,#103));
#265=EDGE_LOOP('',(#104,#105,#106,#107,#108,#109,#110,#111));
#266=EDGE_LOOP('',(#112,#113,#114,#115));
#267=EDGE_LOOP('',(#116,#117,#118,#119));
#268=EDGE_LOOP('',(#120,#121,#122,#123,#124,#125,#126,#127));
#269=EDGE_LOOP('',(#128,#129,#130,#131));
#270=EDGE_LOOP('',(#132,#133,#134,#135));
#271=EDGE_LOOP('',(#136));
#272=EDGE_LOOP('',(#137));
#273=EDGE_LOOP('',(#138));
#274=EDGE_LOOP('',(#139));
#275=EDGE_LOOP('',(#140));
#276=EDGE_LOOP('',(#141));
#277=EDGE_LOOP('',(#142));
#278=EDGE_LOOP('',(#143));
#279=EDGE_LOOP('',(#144,#145,#146,#147));
#280=EDGE_LOOP('',(#148,#149,#150,#151));
#281=EDGE_LOOP('',(#152,#153,#154,#155));
#282=EDGE_LOOP('',(#156,#157,#158,#159));
#283=EDGE_LOOP('',(#160));
#284=EDGE_LOOP('',(#161));
#285=EDGE_LOOP('',(#162));
#286=EDGE_LOOP('',(#163));
#287=EDGE_LOOP('',(#164,#165,#166,#167));
#288=EDGE_LOOP('',(#168,#169,#170,#171));
#289=EDGE_LOOP('',(#172,#173,#174,#175));
#290=FACE_BOUND('',#260,.T.);
#291=FACE_BOUND('',#261,.T.);
#292=FACE_BOUND('',#262,.T.);
#293=FACE_BOUND('',#263,.T.);
#294=FACE_BOUND('',#264,.T.);
#295=FACE_BOUND('',#265,.T.);
#296=FACE_BOUND('',#266,.T.);
#297=FACE_BOUND('',#267,.T.);
#298=FACE_BOUND('',#268,.T.);
#299=FACE_BOUND('',#269,.T.);
#300=FACE_BOUND('',#270,.T.);
#301=FACE_BOUND('',#271,.T.);
#302=FACE_BOUND('',#272,.T.);
#303=FACE_BOUND('',#273,.T.);
#304=FACE_BOUND('',#274,.T.);
#305=FACE_BOUND('',#275,.T.);
#306=FACE_BOUND('',#276,.T.);
#307=FACE_BOUND('',#277,.T.);
#308=FACE_BOUND('',#278,.T.);
#309=FACE_BOUND('',#279,.T.);
#310=FACE_BOUND('',#280,.T.);
#311=FACE_BOUND('',#281,.T.);
#312=FACE_BOUND('',#282,.T.);
#313=FACE_BOUND('',#283,.T.);
#314=FACE_BOUND('',#284,.T.);
#315=FACE_BOUND('',#285,.T.);
#316=FACE_BOUND('',#286,.T.);
#317=FACE_BOUND('',#287,.T.);
#318=FACE_BOUND('',#288,.T.);
#319=FACE_BOUND('',#289,.T.);
#320=PLANE('',#365);
#321=PLANE('',#370);
#322=PLANE('',#371);
#323=PLANE('',#372);
#324=PLANE('',#373);
#325=PLANE('',#374);
#326=PLANE('',#375);
#327=PLANE('',#384);
#328=PLANE('',#385);
#329=PLANE('',#386);
#330=PLANE('',#387);
#331=PLANE('',#388);
#332=PLANE('',#389);
#333=PLANE('',#390);
#334=ADVANCED_FACE('',(#290,#291,#292,#293,#294),#320,.T.);
#335=ADVANCED_FACE('',(#295),#321,.F.);
#336=ADVANCED_FACE('',(#296),#322,.T.);
#337=ADVANCED_FACE('',(#297),#323,.T.);
#338=ADVANCED_FACE('',(#298),#324,.T.);
#339=ADVANCED_FACE('',(#299),#325,.T.);
#340=ADVANCED_FACE('',(#300),#326,.F.);
#341=ADVANCED_FACE('',(#301,#302),#12,.F.);
#342=ADVANCED_FACE('',(#303,#304),#13,.F.);
#343=ADVANCED_FACE('',(#305,#306),#14,.F.);
#344=ADVANCED_FACE('',(#307,#308),#15,.F.);
#345=ADVANCED_FACE('',(#309),#327,.F.);
#346=ADVANCED_FACE('',(#310),#328,.F.);
#347=ADVANCED_FACE('',(#311),#329,.T.);
#348=ADVANCED_FACE('',(#312,#313,#314,#315,#316),#330,.F.);
#349=ADVANCED_FACE('',(#317),#331,.F.);
#350=ADVANCED_FACE('',(#318),#332,.T.);
#351=ADVANCED_FACE('',(#319),#333,.T.);
#352=CLOSED_SHELL('',(#334,#335,#336,#337,#338,#339,#340,#341,#342,#343,
#344,#345,#346,#347,#348,#349,#350,#351));
#353=STYLED_ITEM('',(#354),#361);
#354=PRESENTATION_STYLE_ASSIGNMENT((#355));
#355=SURFACE_STYLE_USAGE(.BOTH.,#356);
#356=SURFACE_SIDE_STYLE('',(#357));
#357=SURFACE_STYLE_FILL_AREA(#358);
#358=FILL_AREA_STYLE('',(#359));
#359=FILL_AREA_STYLE_COLOUR('',#360);
#360=COLOUR_RGB('',0.552941176470588,0.250980392156863,1.);
#361=MANIFOLD_SOLID_BREP('Bottom',#352);
#362=SHAPE_DEFINITION_REPRESENTATION(#582,#363);
#363=SHAPE_REPRESENTATION('Bottom',(#364),#577);
#364=AXIS2_PLACEMENT_3D('',#481,#391,#392);
#365=AXIS2_PLACEMENT_3D('',#482,#393,#394);
#366=AXIS2_PLACEMENT_3D('',#483,#395,#396);
#367=AXIS2_PLACEMENT_3D('',#485,#397,#398);
#368=AXIS2_PLACEMENT_3D('',#487,#399,#400);
#369=AXIS2_PLACEMENT_3D('',#489,#401,#402);
#370=AXIS2_PLACEMENT_3D('',#515,#415,#416);
#371=AXIS2_PLACEMENT_3D('',#526,#423,#424);
#372=AXIS2_PLACEMENT_3D('',#530,#427,#428);
#373=AXIS2_PLACEMENT_3D('',#534,#431,#432);
#374=AXIS2_PLACEMENT_3D('',#545,#439,#440);
#375=AXIS2_PLACEMENT_3D('',#549,#443,#444);
#376=AXIS2_PLACEMENT_3D('',#553,#447,#448);
#377=AXIS2_PLACEMENT_3D('',#554,#449,#450);
#378=AXIS2_PLACEMENT_3D('',#556,#451,#452);
#379=AXIS2_PLACEMENT_3D('',#557,#453,#454);
#380=AXIS2_PLACEMENT_3D('',#559,#455,#456);
#381=AXIS2_PLACEMENT_3D('',#560,#457,#458);
#382=AXIS2_PLACEMENT_3D('',#562,#459,#460);
#383=AXIS2_PLACEMENT_3D('',#563,#461,#462);
#384=AXIS2_PLACEMENT_3D('',#565,#463,#464);
#385=AXIS2_PLACEMENT_3D('',#567,#466,#467);
#386=AXIS2_PLACEMENT_3D('',#569,#469,#470);
#387=AXIS2_PLACEMENT_3D('',#570,#471,#472);
#388=AXIS2_PLACEMENT_3D('',#571,#473,#474);
#389=AXIS2_PLACEMENT_3D('',#573,#476,#477);
#390=AXIS2_PLACEMENT_3D('',#575,#479,#480);
#391=DIRECTION('',(0.,0.,1.));
#392=DIRECTION('',(1.,0.,0.));
#393=DIRECTION('',(0.,0.,1.));
#394=DIRECTION('',(1.,0.,0.));
#395=DIRECTION('',(0.,0.,1.));
#396=DIRECTION('',(1.,0.,0.));
#397=DIRECTION('',(0.,0.,-1.));
#398=DIRECTION('',(1.,0.,0.));
#399=DIRECTION('',(0.,0.,1.));
#400=DIRECTION('',(1.,0.,0.));
#401=DIRECTION('',(0.,0.,-1.));
#402=DIRECTION('',(1.,0.,0.));
#403=DIRECTION('',(0.,1.,0.));
#404=DIRECTION('',(-1.,0.,0.));
#405=DIRECTION('',(0.,1.,0.));
#406=DIRECTION('',(-1.,0.,0.));
#407=DIRECTION('',(0.,1.,0.));
#408=DIRECTION('',(-1.,-1.30561224985711E-16,0.));
#409=DIRECTION('',(0.,1.,0.));
#410=DIRECTION('',(-1.,0.,0.));
#411=DIRECTION('',(0.,1.,0.));
#412=DIRECTION('',(-1.,-1.07214059083857E-16,0.));
#413=DIRECTION('',(0.,1.,0.));
#414=DIRECTION('',(-1.,0.,0.));
#415=DIRECTION('',(-1.,0.,0.));
#416=DIRECTION('',(0.,0.,1.));
#417=DIRECTION('',(0.,3.09772049281573E-16,-1.));
#418=DIRECTION('',(0.,0.,-1.));
#419=DIRECTION('',(0.,1.,0.));
#420=DIRECTION('',(0.,0.,-1.));
#421=DIRECTION('',(0.,-4.95635278850516E-16,-1.));
#422=DIRECTION('',(0.,1.,-6.93889390390723E-17));
#423=DIRECTION('',(1.07214059083857E-16,-1.,0.));
#424=DIRECTION('',(1.,1.07214059083857E-16,0.));
#425=DIRECTION('',(-1.,-1.07214059083857E-16,0.));
#426=DIRECTION('',(0.,0.,-1.));
#427=DIRECTION('',(-1.,0.,0.));
#428=DIRECTION('',(0.,0.,1.));
#429=DIRECTION('',(0.,1.,0.));
#430=DIRECTION('',(0.,0.,-1.));
#431=DIRECTION('',(-1.,0.,0.));
#432=DIRECTION('',(0.,0.,1.));
#433=DIRECTION('',(0.,-4.95635278850516E-16,-1.));
#434=DIRECTION('',(0.,0.,-1.));
#435=DIRECTION('',(0.,1.,0.));
#436=DIRECTION('',(0.,0.,-1.));
#437=DIRECTION('',(0.,3.09772049281573E-16,-1.));
#438=DIRECTION('',(0.,1.,-6.93889390390723E-17));
#439=DIRECTION('',(0.,-1.,0.));
#440=DIRECTION('',(0.,0.,-1.));
#441=DIRECTION('',(-1.,0.,0.));
#442=DIRECTION('',(0.,0.,-1.));
#443=DIRECTION('',(-1.,0.,0.));
#444=DIRECTION('',(0.,0.,1.));
#445=DIRECTION('',(0.,1.,0.));
#446=DIRECTION('',(0.,0.,-1.));
#447=DIRECTION('',(0.,0.,-1.));
#448=DIRECTION('',(-1.,0.,0.));
#449=DIRECTION('',(0.,0.,-1.));
#450=DIRECTION('',(1.,0.,0.));
#451=DIRECTION('',(0.,0.,-1.));
#452=DIRECTION('',(-1.,0.,0.));
#453=DIRECTION('',(0.,0.,1.));
#454=DIRECTION('',(1.,0.,0.));
#455=DIRECTION('',(0.,0.,-1.));
#456=DIRECTION('',(-1.,0.,0.));
#457=DIRECTION('',(0.,0.,-1.));
#458=DIRECTION('',(1.,0.,0.));
#459=DIRECTION('',(0.,0.,-1.));
#460=DIRECTION('',(-1.,0.,0.));
#461=DIRECTION('',(0.,0.,1.));
#462=DIRECTION('',(1.,0.,0.));
#463=DIRECTION('',(1.30561224985711E-16,-1.,0.));
#464=DIRECTION('',(1.,1.30561224985711E-16,0.));
#465=DIRECTION('',(-1.,-1.30561224985711E-16,0.));
#466=DIRECTION('',(0.,-1.,0.));
#467=DIRECTION('',(0.,0.,-1.));
#468=DIRECTION('',(-1.,0.,0.));
#469=DIRECTION('',(0.,0.,1.));
#470=DIRECTION('',(1.,0.,0.));
#471=DIRECTION('',(0.,0.,1.));
#472=DIRECTION('',(1.,0.,0.));
#473=DIRECTION('',(0.,1.,-4.95635278850516E-16));
#474=DIRECTION('',(0.,4.95635278850516E-16,1.));
#475=DIRECTION('',(-1.,0.,0.));
#476=DIRECTION('',(0.,6.93889390390723E-17,1.));
#477=DIRECTION('',(0.,-1.,6.93889390390723E-17));
#478=DIRECTION('',(-1.,0.,0.));
#479=DIRECTION('',(0.,1.,3.09772049281573E-16));
#480=DIRECTION('',(0.,-3.09772049281573E-16,1.));
#481=CARTESIAN_POINT('',(0.,0.,0.));
#482=CARTESIAN_POINT('',(-0.03236,0.009725,0.01));
#483=CARTESIAN_POINT('',(-0.06972,0.02445,0.01));
#484=CARTESIAN_POINT('',(-0.06827,0.02445,0.01));
#485=CARTESIAN_POINT('',(-0.06972,-0.005,0.01));
#486=CARTESIAN_POINT('',(-0.06827,-0.005,0.01));
#487=CARTESIAN_POINT('',(0.005,-0.005,0.01));
#488=CARTESIAN_POINT('',(0.00645,-0.005,0.01));
#489=CARTESIAN_POINT('',(0.005,0.02445,0.01));
#490=CARTESIAN_POINT('',(0.00645,0.02445,0.01));
#491=CARTESIAN_POINT('',(-0.06472,0.0048625,0.01));
#492=CARTESIAN_POINT('',(-0.06472,-3.46944695195361E-18,0.01));
#493=CARTESIAN_POINT('',(-0.06472,0.003475,0.01));
#494=CARTESIAN_POINT('',(-0.06472,0.003475,0.01));
#495=CARTESIAN_POINT('',(-0.07472,0.003475,0.01));
#496=CARTESIAN_POINT('',(-0.07472,0.02695,0.01));
#497=CARTESIAN_POINT('',(-0.07472,-0.01,0.01));
#498=CARTESIAN_POINT('',(-0.03236,-0.01,0.01));
#499=CARTESIAN_POINT('',(0.01,-0.01,0.01));
#500=CARTESIAN_POINT('',(0.01,0.009725,0.01));
#501=CARTESIAN_POINT('',(0.01,0.02945,0.01));
#502=CARTESIAN_POINT('',(-0.02986,0.02945,0.01));
#503=CARTESIAN_POINT('',(-0.07472,0.02945,0.01));
#504=CARTESIAN_POINT('',(-0.07472,0.02695,0.01));
#505=CARTESIAN_POINT('',(-0.07472,0.015975,0.01));
#506=CARTESIAN_POINT('',(-0.06472,0.015975,0.01));
#507=CARTESIAN_POINT('',(-0.06472,0.015975,0.01));
#508=CARTESIAN_POINT('',(-0.06472,0.0048625,0.01));
#509=CARTESIAN_POINT('',(-0.06472,0.01945,0.01));
#510=CARTESIAN_POINT('',(-0.04854,0.01945,0.01));
#511=CARTESIAN_POINT('',(0.,0.01945,0.01));
#512=CARTESIAN_POINT('',(0.,0.009725,0.01));
#513=CARTESIAN_POINT('',(0.,0.,0.01));
#514=CARTESIAN_POINT('',(-0.03236,0.,0.01));
#515=CARTESIAN_POINT('',(-0.06472,0.0048625,0.01));
#516=CARTESIAN_POINT('',(-0.06472,0.003475,0.0065));
#517=CARTESIAN_POINT('',(-0.06472,0.003475,0.003));
#518=CARTESIAN_POINT('',(-0.06472,-3.46944695195361E-18,0.01));
#519=CARTESIAN_POINT('',(-0.06472,-3.46944695195361E-18,0.));
#520=CARTESIAN_POINT('',(-0.06472,0.0048625,0.));
#521=CARTESIAN_POINT('',(-0.06472,0.01945,0.));
#522=CARTESIAN_POINT('',(-0.06472,0.01945,0.01));
#523=CARTESIAN_POINT('',(-0.06472,0.015975,0.0065));
#524=CARTESIAN_POINT('',(-0.06472,0.015975,0.003));
#525=CARTESIAN_POINT('',(-0.06472,0.01285,0.003));
#526=CARTESIAN_POINT('',(-0.04854,0.01945,0.01));
#527=CARTESIAN_POINT('',(-0.04854,0.01945,0.));
#528=CARTESIAN_POINT('',(0.,0.01945,0.));
#529=CARTESIAN_POINT('',(0.,0.01945,0.01));
#530=CARTESIAN_POINT('',(0.,0.009725,0.01));
#531=CARTESIAN_POINT('',(0.,0.009725,0.));
#532=CARTESIAN_POINT('',(0.,0.,0.));
#533=CARTESIAN_POINT('',(0.,0.,0.01));
#534=CARTESIAN_POINT('',(-0.07472,0.02695,0.01));
#535=CARTESIAN_POINT('',(-0.07472,0.015975,0.0065));
#536=CARTESIAN_POINT('',(-0.07472,0.015975,0.003));
#537=CARTESIAN_POINT('',(-0.07472,0.02945,0.01));
#538=CARTESIAN_POINT('',(-0.07472,0.02945,-0.003));
#539=CARTESIAN_POINT('',(-0.07472,0.02695,-0.003));
#540=CARTESIAN_POINT('',(-0.07472,-0.01,-0.003));
#541=CARTESIAN_POINT('',(-0.07472,-0.01,0.01));
#542=CARTESIAN_POINT('',(-0.07472,0.003475,0.0065));
#543=CARTESIAN_POINT('',(-0.07472,0.003475,0.003));
#544=CARTESIAN_POINT('',(-0.07472,0.01285,0.003));
#545=CARTESIAN_POINT('',(-0.03236,-0.01,0.01));
#546=CARTESIAN_POINT('',(-0.03236,-0.01,-0.003));
#547=CARTESIAN_POINT('',(0.01,-0.01,-0.003));
#548=CARTESIAN_POINT('',(0.01,-0.01,0.01));
#549=CARTESIAN_POINT('',(0.01,0.009725,0.01));
#550=CARTESIAN_POINT('',(0.01,0.009725,-0.003));
#551=CARTESIAN_POINT('',(0.01,0.02945,-0.003));
#552=CARTESIAN_POINT('',(0.01,0.02945,0.01));
#553=CARTESIAN_POINT('',(0.005,0.02445,0.01));
#554=CARTESIAN_POINT('',(0.005,0.02445,-0.003));
#555=CARTESIAN_POINT('',(0.00645,0.02445,-0.003));
#556=CARTESIAN_POINT('',(0.005,-0.005,0.01));
#557=CARTESIAN_POINT('',(0.005,-0.005,-0.003));
#558=CARTESIAN_POINT('',(0.00645,-0.005,-0.003));
#559=CARTESIAN_POINT('',(-0.06972,-0.005,0.01));
#560=CARTESIAN_POINT('',(-0.06972,-0.005,-0.003));
#561=CARTESIAN_POINT('',(-0.06827,-0.005,-0.003));
#562=CARTESIAN_POINT('',(-0.06972,0.02445,0.01));
#563=CARTESIAN_POINT('',(-0.06972,0.02445,-0.003));
#564=CARTESIAN_POINT('',(-0.06827,0.02445,-0.003));
#565=CARTESIAN_POINT('',(-0.02986,0.02945,0.01));
#566=CARTESIAN_POINT('',(-0.02986,0.02945,-0.003));
#567=CARTESIAN_POINT('',(-0.03236,0.,0.01));
#568=CARTESIAN_POINT('',(-0.03236,0.,0.));
#569=CARTESIAN_POINT('',(-0.03236,0.009725,0.));
#570=CARTESIAN_POINT('',(-0.03236,0.009725,-0.003));
#571=CARTESIAN_POINT('',(-0.06472,0.015975,0.0065));
#572=CARTESIAN_POINT('',(-0.06472,0.015975,0.003));
#573=CARTESIAN_POINT('',(-0.06472,0.01285,0.003));
#574=CARTESIAN_POINT('',(-0.06472,0.003475,0.003));
#575=CARTESIAN_POINT('',(-0.06472,0.003475,0.0065));
#576=MECHANICAL_DESIGN_GEOMETRIC_PRESENTATION_REPRESENTATION('',(#353),
#577);
#577=(
GEOMETRIC_REPRESENTATION_CONTEXT(3)
GLOBAL_UNCERTAINTY_ASSIGNED_CONTEXT((#578))
GLOBAL_UNIT_ASSIGNED_CONTEXT((#581,#580,#579))
REPRESENTATION_CONTEXT('Bottom','TOP_LEVEL_ASSEMBLY_PART')
);
#578=UNCERTAINTY_MEASURE_WITH_UNIT(LENGTH_MEASURE(1.E-8),#581,
'DISTANCE_ACCURACY_VALUE','Maximum Tolerance applied to model');
#579=(
NAMED_UNIT(*)
SI_UNIT($,.STERADIAN.)
SOLID_ANGLE_UNIT()
);
#580=(
NAMED_UNIT(*)
PLANE_ANGLE_UNIT()
SI_UNIT($,.RADIAN.)
);
#581=(
LENGTH_UNIT()
NAMED_UNIT(*)
SI_UNIT($,.METRE.)
);
#582=PRODUCT_DEFINITION_SHAPE('','',#583);
#583=PRODUCT_DEFINITION('','',#585,#584);
#584=PRODUCT_DEFINITION_CONTEXT('',#591,'design');
#585=PRODUCT_DEFINITION_FORMATION_WITH_SPECIFIED_SOURCE('','',#587,
 .NOT_KNOWN.);
#586=PRODUCT_RELATED_PRODUCT_CATEGORY('','',(#587));
#587=PRODUCT('Bottom','Bottom','Bottom',(#589));
#588=PRODUCT_CATEGORY('','');
#589=PRODUCT_CONTEXT('',#591,'mechanical');
#590=APPLICATION_PROTOCOL_DEFINITION('international standard',
'ap242_managed_model_based_3d_engineering',2020,#591);
#591=APPLICATION_CONTEXT('managed model based 3d engineering');
ENDSEC;
END-ISO-10303-21;
