ISO-10303-21;
HEADER;
/* Generated by software containing ST-Developer
 * from STEP Tools, Inc. (www.steptools.com) 
 */
/* OPTION: using custom renumber hook */

FILE_DESCRIPTION(
/* description */ ('STEP AP242 Edition 2',
'CAx-IF Rec.Pracs.---Representation and Presentation of Product Manufa
cturing Information (PMI)---4.0---2014-10-13',
'CAx-IF Rec.Pracs.---3D Tessellated Geometry---0.4---2014-09-14','2;1',
'CAx-IF Rec.Pracs.---User Defined Attributes---1.5---2016-08-15'),
/* implementation_level */ '2;1');

FILE_NAME(
/* name */ 'Part Studio 1 - Top',
/* time_stamp */ '2026-06-04T23:14:09Z',
/* author */ (''),
/* organization */ (''),
/* preprocessor_version */ 'ST-DEVELOPER v20',
/* originating_system */ 'ONSHAPE BY PTC INC, 1.215',
/* authorisation */ '  ');

FILE_SCHEMA (('AP242_MANAGED_MODEL_BASED_3D_ENGINEERING_MIM_LF { 1 0 10303 442 3 1 4 }'));
ENDSEC;

DATA;
#10=SHAPE_REPRESENTATION_RELATIONSHIP('','',#851,#11);
#11=ADVANCED_BREP_SHAPE_REPRESENTATION('',(#849),#1417);
#12=PLANE('',#856);
#13=PLANE('',#860);
#14=PLANE('',#864);
#15=PLANE('',#871);
#16=PLANE('',#875);
#17=PLANE('',#879);
#18=PLANE('',#886);
#19=PLANE('',#890);
#20=PLANE('',#894);
#21=PLANE('',#901);
#22=PLANE('',#905);
#23=PLANE('',#909);
#24=PLANE('',#913);
#25=PLANE('',#914);
#26=PLANE('',#915);
#27=PLANE('',#916);
#28=PLANE('',#917);
#29=PLANE('',#918);
#30=PLANE('',#931);
#31=PLANE('',#932);
#32=PLANE('',#933);
#33=PLANE('',#934);
#34=LINE('',#1182,#110);
#35=LINE('',#1186,#111);
#36=LINE('',#1188,#112);
#37=LINE('',#1190,#113);
#38=LINE('',#1192,#114);
#39=LINE('',#1196,#115);
#40=LINE('',#1200,#116);
#41=LINE('',#1202,#117);
#42=LINE('',#1204,#118);
#43=LINE('',#1208,#119);
#44=LINE('',#1212,#120);
#45=LINE('',#1214,#121);
#46=LINE('',#1216,#122);
#47=LINE('',#1220,#123);
#48=LINE('',#1227,#124);
#49=LINE('',#1231,#125);
#50=LINE('',#1233,#126);
#51=LINE('',#1235,#127);
#52=LINE('',#1237,#128);
#53=LINE('',#1241,#129);
#54=LINE('',#1245,#130);
#55=LINE('',#1247,#131);
#56=LINE('',#1249,#132);
#57=LINE('',#1253,#133);
#58=LINE('',#1257,#134);
#59=LINE('',#1259,#135);
#60=LINE('',#1261,#136);
#61=LINE('',#1265,#137);
#62=LINE('',#1272,#138);
#63=LINE('',#1276,#139);
#64=LINE('',#1278,#140);
#65=LINE('',#1280,#141);
#66=LINE('',#1282,#142);
#67=LINE('',#1286,#143);
#68=LINE('',#1290,#144);
#69=LINE('',#1292,#145);
#70=LINE('',#1294,#146);
#71=LINE('',#1298,#147);
#72=LINE('',#1302,#148);
#73=LINE('',#1304,#149);
#74=LINE('',#1306,#150);
#75=LINE('',#1310,#151);
#76=LINE('',#1317,#152);
#77=LINE('',#1321,#153);
#78=LINE('',#1323,#154);
#79=LINE('',#1325,#155);
#80=LINE('',#1327,#156);
#81=LINE('',#1331,#157);
#82=LINE('',#1335,#158);
#83=LINE('',#1337,#159);
#84=LINE('',#1339,#160);
#85=LINE('',#1343,#161);
#86=LINE('',#1347,#162);
#87=LINE('',#1349,#163);
#88=LINE('',#1351,#164);
#89=LINE('',#1355,#165);
#90=LINE('',#1359,#166);
#91=LINE('',#1362,#167);
#92=LINE('',#1364,#168);
#93=LINE('',#1366,#169);
#94=LINE('',#1368,#170);
#95=LINE('',#1370,#171);
#96=LINE('',#1372,#172);
#97=LINE('',#1374,#173);
#98=LINE('',#1376,#174);
#99=LINE('',#1378,#175);
#100=LINE('',#1380,#176);
#101=LINE('',#1381,#177);
#102=LINE('',#1383,#178);
#103=LINE('',#1384,#179);
#104=LINE('',#1386,#180);
#105=LINE('',#1387,#181);
#106=LINE('',#1409,#182);
#107=LINE('',#1410,#183);
#108=LINE('',#1412,#184);
#109=LINE('',#1413,#185);
#110=VECTOR('',#941,1.);
#111=VECTOR('',#944,1.);
#112=VECTOR('',#947,1.);
#113=VECTOR('',#948,1.);
#114=VECTOR('',#949,1.);
#115=VECTOR('',#954,1.);
#116=VECTOR('',#959,1.);
#117=VECTOR('',#960,1.);
#118=VECTOR('',#961,1.);
#119=VECTOR('',#966,1.);
#120=VECTOR('',#971,1.);
#121=VECTOR('',#972,1.);
#122=VECTOR('',#973,1.);
#123=VECTOR('',#978,1.);
#124=VECTOR('',#985,1.);
#125=VECTOR('',#988,1.);
#126=VECTOR('',#991,1.);
#127=VECTOR('',#992,1.);
#128=VECTOR('',#993,1.);
#129=VECTOR('',#998,1.);
#130=VECTOR('',#1003,1.);
#131=VECTOR('',#1004,1.);
#132=VECTOR('',#1005,1.);
#133=VECTOR('',#1010,1.);
#134=VECTOR('',#1015,1.);
#135=VECTOR('',#1016,1.);
#136=VECTOR('',#1017,1.);
#137=VECTOR('',#1022,1.);
#138=VECTOR('',#1029,1.);
#139=VECTOR('',#1032,1.);
#140=VECTOR('',#1035,1.);
#141=VECTOR('',#1036,1.);
#142=VECTOR('',#1037,1.);
#143=VECTOR('',#1042,1.);
#144=VECTOR('',#1047,1.);
#145=VECTOR('',#1048,1.);
#146=VECTOR('',#1049,1.);
#147=VECTOR('',#1054,1.);
#148=VECTOR('',#1059,1.);
#149=VECTOR('',#1060,1.);
#150=VECTOR('',#1061,1.);
#151=VECTOR('',#1066,1.);
#152=VECTOR('',#1073,1.);
#153=VECTOR('',#1076,1.);
#154=VECTOR('',#1079,1.);
#155=VECTOR('',#1080,1.);
#156=VECTOR('',#1081,1.);
#157=VECTOR('',#1086,1.);
#158=VECTOR('',#1091,1.);
#159=VECTOR('',#1092,1.);
#160=VECTOR('',#1093,1.);
#161=VECTOR('',#1098,1.);
#162=VECTOR('',#1103,1.);
#163=VECTOR('',#1104,1.);
#164=VECTOR('',#1105,1.);
#165=VECTOR('',#1110,1.);
#166=VECTOR('',#1115,1.);
#167=VECTOR('',#1116,1.);
#168=VECTOR('',#1117,1.);
#169=VECTOR('',#1118,1.);
#170=VECTOR('',#1121,1.);
#171=VECTOR('',#1122,1.);
#172=VECTOR('',#1123,1.);
#173=VECTOR('',#1126,1.);
#174=VECTOR('',#1127,1.);
#175=VECTOR('',#1128,1.);
#176=VECTOR('',#1131,1.);
#177=VECTOR('',#1132,1.);
#178=VECTOR('',#1135,1.);
#179=VECTOR('',#1136,1.);
#180=VECTOR('',#1139,1.);
#181=VECTOR('',#1140,1.);
#182=VECTOR('',#1167,1.);
#183=VECTOR('',#1168,1.);
#184=VECTOR('',#1171,1.);
#185=VECTOR('',#1172,1.);
#186=ORIENTED_EDGE('',*,*,#418,.F.);
#187=ORIENTED_EDGE('',*,*,#419,.F.);
#188=ORIENTED_EDGE('',*,*,#420,.T.);
#189=ORIENTED_EDGE('',*,*,#421,.T.);
#190=ORIENTED_EDGE('',*,*,#422,.T.);
#191=ORIENTED_EDGE('',*,*,#423,.F.);
#192=ORIENTED_EDGE('',*,*,#424,.F.);
#193=ORIENTED_EDGE('',*,*,#419,.T.);
#194=ORIENTED_EDGE('',*,*,#425,.F.);
#195=ORIENTED_EDGE('',*,*,#426,.F.);
#196=ORIENTED_EDGE('',*,*,#427,.T.);
#197=ORIENTED_EDGE('',*,*,#423,.T.);
#198=ORIENTED_EDGE('',*,*,#428,.T.);
#199=ORIENTED_EDGE('',*,*,#429,.F.);
#200=ORIENTED_EDGE('',*,*,#430,.F.);
#201=ORIENTED_EDGE('',*,*,#426,.T.);
#202=ORIENTED_EDGE('',*,*,#431,.F.);
#203=ORIENTED_EDGE('',*,*,#432,.F.);
#204=ORIENTED_EDGE('',*,*,#433,.T.);
#205=ORIENTED_EDGE('',*,*,#429,.T.);
#206=ORIENTED_EDGE('',*,*,#434,.F.);
#207=ORIENTED_EDGE('',*,*,#435,.F.);
#208=ORIENTED_EDGE('',*,*,#436,.T.);
#209=ORIENTED_EDGE('',*,*,#432,.T.);
#210=ORIENTED_EDGE('',*,*,#437,.F.);
#211=ORIENTED_EDGE('',*,*,#438,.F.);
#212=ORIENTED_EDGE('',*,*,#439,.T.);
#213=ORIENTED_EDGE('',*,*,#435,.T.);
#214=ORIENTED_EDGE('',*,*,#440,.F.);
#215=ORIENTED_EDGE('',*,*,#441,.F.);
#216=ORIENTED_EDGE('',*,*,#442,.T.);
#217=ORIENTED_EDGE('',*,*,#443,.T.);
#218=ORIENTED_EDGE('',*,*,#444,.T.);
#219=ORIENTED_EDGE('',*,*,#445,.F.);
#220=ORIENTED_EDGE('',*,*,#446,.F.);
#221=ORIENTED_EDGE('',*,*,#441,.T.);
#222=ORIENTED_EDGE('',*,*,#447,.F.);
#223=ORIENTED_EDGE('',*,*,#448,.F.);
#224=ORIENTED_EDGE('',*,*,#449,.T.);
#225=ORIENTED_EDGE('',*,*,#445,.T.);
#226=ORIENTED_EDGE('',*,*,#450,.T.);
#227=ORIENTED_EDGE('',*,*,#451,.F.);
#228=ORIENTED_EDGE('',*,*,#452,.F.);
#229=ORIENTED_EDGE('',*,*,#448,.T.);
#230=ORIENTED_EDGE('',*,*,#453,.F.);
#231=ORIENTED_EDGE('',*,*,#454,.F.);
#232=ORIENTED_EDGE('',*,*,#455,.T.);
#233=ORIENTED_EDGE('',*,*,#451,.T.);
#234=ORIENTED_EDGE('',*,*,#456,.F.);
#235=ORIENTED_EDGE('',*,*,#457,.F.);
#236=ORIENTED_EDGE('',*,*,#458,.T.);
#237=ORIENTED_EDGE('',*,*,#454,.T.);
#238=ORIENTED_EDGE('',*,*,#459,.F.);
#239=ORIENTED_EDGE('',*,*,#460,.F.);
#240=ORIENTED_EDGE('',*,*,#461,.T.);
#241=ORIENTED_EDGE('',*,*,#457,.T.);
#242=ORIENTED_EDGE('',*,*,#462,.F.);
#243=ORIENTED_EDGE('',*,*,#463,.F.);
#244=ORIENTED_EDGE('',*,*,#464,.T.);
#245=ORIENTED_EDGE('',*,*,#465,.T.);
#246=ORIENTED_EDGE('',*,*,#466,.T.);
#247=ORIENTED_EDGE('',*,*,#467,.F.);
#248=ORIENTED_EDGE('',*,*,#468,.F.);
#249=ORIENTED_EDGE('',*,*,#463,.T.);
#250=ORIENTED_EDGE('',*,*,#469,.F.);
#251=ORIENTED_EDGE('',*,*,#470,.F.);
#252=ORIENTED_EDGE('',*,*,#471,.T.);
#253=ORIENTED_EDGE('',*,*,#467,.T.);
#254=ORIENTED_EDGE('',*,*,#472,.T.);
#255=ORIENTED_EDGE('',*,*,#473,.F.);
#256=ORIENTED_EDGE('',*,*,#474,.F.);
#257=ORIENTED_EDGE('',*,*,#470,.T.);
#258=ORIENTED_EDGE('',*,*,#475,.F.);
#259=ORIENTED_EDGE('',*,*,#476,.F.);
#260=ORIENTED_EDGE('',*,*,#477,.T.);
#261=ORIENTED_EDGE('',*,*,#473,.T.);
#262=ORIENTED_EDGE('',*,*,#478,.F.);
#263=ORIENTED_EDGE('',*,*,#479,.F.);
#264=ORIENTED_EDGE('',*,*,#480,.T.);
#265=ORIENTED_EDGE('',*,*,#476,.T.);
#266=ORIENTED_EDGE('',*,*,#481,.F.);
#267=ORIENTED_EDGE('',*,*,#482,.F.);
#268=ORIENTED_EDGE('',*,*,#483,.T.);
#269=ORIENTED_EDGE('',*,*,#479,.T.);
#270=ORIENTED_EDGE('',*,*,#484,.F.);
#271=ORIENTED_EDGE('',*,*,#485,.F.);
#272=ORIENTED_EDGE('',*,*,#486,.T.);
#273=ORIENTED_EDGE('',*,*,#487,.T.);
#274=ORIENTED_EDGE('',*,*,#488,.T.);
#275=ORIENTED_EDGE('',*,*,#489,.F.);
#276=ORIENTED_EDGE('',*,*,#490,.F.);
#277=ORIENTED_EDGE('',*,*,#485,.T.);
#278=ORIENTED_EDGE('',*,*,#491,.F.);
#279=ORIENTED_EDGE('',*,*,#492,.F.);
#280=ORIENTED_EDGE('',*,*,#493,.T.);
#281=ORIENTED_EDGE('',*,*,#489,.T.);
#282=ORIENTED_EDGE('',*,*,#494,.T.);
#283=ORIENTED_EDGE('',*,*,#495,.F.);
#284=ORIENTED_EDGE('',*,*,#496,.F.);
#285=ORIENTED_EDGE('',*,*,#492,.T.);
#286=ORIENTED_EDGE('',*,*,#497,.F.);
#287=ORIENTED_EDGE('',*,*,#498,.F.);
#288=ORIENTED_EDGE('',*,*,#499,.T.);
#289=ORIENTED_EDGE('',*,*,#495,.T.);
#290=ORIENTED_EDGE('',*,*,#500,.F.);
#291=ORIENTED_EDGE('',*,*,#501,.F.);
#292=ORIENTED_EDGE('',*,*,#502,.T.);
#293=ORIENTED_EDGE('',*,*,#498,.T.);
#294=ORIENTED_EDGE('',*,*,#503,.F.);
#295=ORIENTED_EDGE('',*,*,#504,.F.);
#296=ORIENTED_EDGE('',*,*,#505,.T.);
#297=ORIENTED_EDGE('',*,*,#501,.T.);
#298=ORIENTED_EDGE('',*,*,#506,.F.);
#299=ORIENTED_EDGE('',*,*,#507,.F.);
#300=ORIENTED_EDGE('',*,*,#508,.T.);
#301=ORIENTED_EDGE('',*,*,#509,.T.);
#302=ORIENTED_EDGE('',*,*,#510,.F.);
#303=ORIENTED_EDGE('',*,*,#511,.F.);
#304=ORIENTED_EDGE('',*,*,#512,.T.);
#305=ORIENTED_EDGE('',*,*,#507,.T.);
#306=ORIENTED_EDGE('',*,*,#513,.T.);
#307=ORIENTED_EDGE('',*,*,#514,.F.);
#308=ORIENTED_EDGE('',*,*,#515,.F.);
#309=ORIENTED_EDGE('',*,*,#511,.T.);
#310=ORIENTED_EDGE('',*,*,#516,.F.);
#311=ORIENTED_EDGE('',*,*,#443,.F.);
#312=ORIENTED_EDGE('',*,*,#517,.T.);
#313=ORIENTED_EDGE('',*,*,#460,.T.);
#314=ORIENTED_EDGE('',*,*,#518,.F.);
#315=ORIENTED_EDGE('',*,*,#465,.F.);
#316=ORIENTED_EDGE('',*,*,#519,.T.);
#317=ORIENTED_EDGE('',*,*,#482,.T.);
#318=ORIENTED_EDGE('',*,*,#520,.F.);
#319=ORIENTED_EDGE('',*,*,#487,.F.);
#320=ORIENTED_EDGE('',*,*,#521,.T.);
#321=ORIENTED_EDGE('',*,*,#504,.T.);
#322=ORIENTED_EDGE('',*,*,#522,.F.);
#323=ORIENTED_EDGE('',*,*,#523,.T.);
#324=ORIENTED_EDGE('',*,*,#524,.T.);
#325=ORIENTED_EDGE('',*,*,#525,.F.);
#326=ORIENTED_EDGE('',*,*,#526,.F.);
#327=ORIENTED_EDGE('',*,*,#527,.T.);
#328=ORIENTED_EDGE('',*,*,#528,.T.);
#329=ORIENTED_EDGE('',*,*,#529,.F.);
#330=ORIENTED_EDGE('',*,*,#530,.T.);
#331=ORIENTED_EDGE('',*,*,#509,.F.);
#332=ORIENTED_EDGE('',*,*,#531,.F.);
#333=ORIENTED_EDGE('',*,*,#514,.T.);
#334=ORIENTED_EDGE('',*,*,#532,.F.);
#335=ORIENTED_EDGE('',*,*,#421,.F.);
#336=ORIENTED_EDGE('',*,*,#533,.T.);
#337=ORIENTED_EDGE('',*,*,#438,.T.);
#338=ORIENTED_EDGE('',*,*,#508,.F.);
#339=ORIENTED_EDGE('',*,*,#512,.F.);
#340=ORIENTED_EDGE('',*,*,#515,.T.);
#341=ORIENTED_EDGE('',*,*,#531,.T.);
#342=ORIENTED_EDGE('',*,*,#528,.F.);
#343=ORIENTED_EDGE('',*,*,#526,.T.);
#344=ORIENTED_EDGE('',*,*,#524,.F.);
#345=ORIENTED_EDGE('',*,*,#522,.T.);
#346=ORIENTED_EDGE('',*,*,#486,.F.);
#347=ORIENTED_EDGE('',*,*,#490,.T.);
#348=ORIENTED_EDGE('',*,*,#493,.F.);
#349=ORIENTED_EDGE('',*,*,#496,.T.);
#350=ORIENTED_EDGE('',*,*,#499,.F.);
#351=ORIENTED_EDGE('',*,*,#502,.F.);
#352=ORIENTED_EDGE('',*,*,#505,.F.);
#353=ORIENTED_EDGE('',*,*,#521,.F.);
#354=ORIENTED_EDGE('',*,*,#464,.F.);
#355=ORIENTED_EDGE('',*,*,#468,.T.);
#356=ORIENTED_EDGE('',*,*,#471,.F.);
#357=ORIENTED_EDGE('',*,*,#474,.T.);
#358=ORIENTED_EDGE('',*,*,#477,.F.);
#359=ORIENTED_EDGE('',*,*,#480,.F.);
#360=ORIENTED_EDGE('',*,*,#483,.F.);
#361=ORIENTED_EDGE('',*,*,#519,.F.);
#362=ORIENTED_EDGE('',*,*,#442,.F.);
#363=ORIENTED_EDGE('',*,*,#446,.T.);
#364=ORIENTED_EDGE('',*,*,#449,.F.);
#365=ORIENTED_EDGE('',*,*,#452,.T.);
#366=ORIENTED_EDGE('',*,*,#455,.F.);
#367=ORIENTED_EDGE('',*,*,#458,.F.);
#368=ORIENTED_EDGE('',*,*,#461,.F.);
#369=ORIENTED_EDGE('',*,*,#517,.F.);
#370=ORIENTED_EDGE('',*,*,#420,.F.);
#371=ORIENTED_EDGE('',*,*,#424,.T.);
#372=ORIENTED_EDGE('',*,*,#427,.F.);
#373=ORIENTED_EDGE('',*,*,#430,.T.);
#374=ORIENTED_EDGE('',*,*,#433,.F.);
#375=ORIENTED_EDGE('',*,*,#436,.F.);
#376=ORIENTED_EDGE('',*,*,#439,.F.);
#377=ORIENTED_EDGE('',*,*,#533,.F.);
#378=ORIENTED_EDGE('',*,*,#506,.T.);
#379=ORIENTED_EDGE('',*,*,#530,.F.);
#380=ORIENTED_EDGE('',*,*,#513,.F.);
#381=ORIENTED_EDGE('',*,*,#510,.T.);
#382=ORIENTED_EDGE('',*,*,#529,.T.);
#383=ORIENTED_EDGE('',*,*,#527,.F.);
#384=ORIENTED_EDGE('',*,*,#525,.T.);
#385=ORIENTED_EDGE('',*,*,#523,.F.);
#386=ORIENTED_EDGE('',*,*,#484,.T.);
#387=ORIENTED_EDGE('',*,*,#520,.T.);
#388=ORIENTED_EDGE('',*,*,#503,.T.);
#389=ORIENTED_EDGE('',*,*,#500,.T.);
#390=ORIENTED_EDGE('',*,*,#497,.T.);
#391=ORIENTED_EDGE('',*,*,#494,.F.);
#392=ORIENTED_EDGE('',*,*,#491,.T.);
#393=ORIENTED_EDGE('',*,*,#488,.F.);
#394=ORIENTED_EDGE('',*,*,#462,.T.);
#395=ORIENTED_EDGE('',*,*,#518,.T.);
#396=ORIENTED_EDGE('',*,*,#481,.T.);
#397=ORIENTED_EDGE('',*,*,#478,.T.);
#398=ORIENTED_EDGE('',*,*,#475,.T.);
#399=ORIENTED_EDGE('',*,*,#472,.F.);
#400=ORIENTED_EDGE('',*,*,#469,.T.);
#401=ORIENTED_EDGE('',*,*,#466,.F.);
#402=ORIENTED_EDGE('',*,*,#440,.T.);
#403=ORIENTED_EDGE('',*,*,#516,.T.);
#404=ORIENTED_EDGE('',*,*,#459,.T.);
#405=ORIENTED_EDGE('',*,*,#456,.T.);
#406=ORIENTED_EDGE('',*,*,#453,.T.);
#407=ORIENTED_EDGE('',*,*,#450,.F.);
#408=ORIENTED_EDGE('',*,*,#447,.T.);
#409=ORIENTED_EDGE('',*,*,#444,.F.);
#410=ORIENTED_EDGE('',*,*,#418,.T.);
#411=ORIENTED_EDGE('',*,*,#532,.T.);
#412=ORIENTED_EDGE('',*,*,#437,.T.);
#413=ORIENTED_EDGE('',*,*,#434,.T.);
#414=ORIENTED_EDGE('',*,*,#431,.T.);
#415=ORIENTED_EDGE('',*,*,#428,.F.);
#416=ORIENTED_EDGE('',*,*,#425,.T.);
#417=ORIENTED_EDGE('',*,*,#422,.F.);
#418=EDGE_CURVE('',#534,#535,#614,.T.);
#419=EDGE_CURVE('',#536,#534,#34,.T.);
#420=EDGE_CURVE('',#536,#537,#615,.T.);
#421=EDGE_CURVE('',#537,#535,#35,.T.);
#422=EDGE_CURVE('',#534,#538,#36,.T.);
#423=EDGE_CURVE('',#539,#538,#37,.T.);
#424=EDGE_CURVE('',#536,#539,#38,.T.);
#425=EDGE_CURVE('',#540,#538,#616,.T.);
#426=EDGE_CURVE('',#541,#540,#39,.T.);
#427=EDGE_CURVE('',#541,#539,#617,.T.);
#428=EDGE_CURVE('',#540,#542,#40,.T.);
#429=EDGE_CURVE('',#543,#542,#41,.T.);
#430=EDGE_CURVE('',#541,#543,#42,.T.);
#431=EDGE_CURVE('',#544,#542,#618,.T.);
#432=EDGE_CURVE('',#545,#544,#43,.T.);
#433=EDGE_CURVE('',#545,#543,#619,.T.);
#434=EDGE_CURVE('',#546,#544,#44,.T.);
#435=EDGE_CURVE('',#547,#546,#45,.T.);
#436=EDGE_CURVE('',#547,#545,#46,.T.);
#437=EDGE_CURVE('',#548,#546,#620,.T.);
#438=EDGE_CURVE('',#549,#548,#47,.T.);
#439=EDGE_CURVE('',#549,#547,#621,.T.);
#440=EDGE_CURVE('',#550,#551,#622,.T.);
#441=EDGE_CURVE('',#552,#550,#48,.T.);
#442=EDGE_CURVE('',#552,#553,#623,.T.);
#443=EDGE_CURVE('',#553,#551,#49,.T.);
#444=EDGE_CURVE('',#550,#554,#50,.T.);
#445=EDGE_CURVE('',#555,#554,#51,.T.);
#446=EDGE_CURVE('',#552,#555,#52,.T.);
#447=EDGE_CURVE('',#556,#554,#624,.T.);
#448=EDGE_CURVE('',#557,#556,#53,.T.);
#449=EDGE_CURVE('',#557,#555,#625,.T.);
#450=EDGE_CURVE('',#556,#558,#54,.T.);
#451=EDGE_CURVE('',#559,#558,#55,.T.);
#452=EDGE_CURVE('',#557,#559,#56,.T.);
#453=EDGE_CURVE('',#560,#558,#626,.T.);
#454=EDGE_CURVE('',#561,#560,#57,.T.);
#455=EDGE_CURVE('',#561,#559,#627,.T.);
#456=EDGE_CURVE('',#562,#560,#58,.T.);
#457=EDGE_CURVE('',#563,#562,#59,.T.);
#458=EDGE_CURVE('',#563,#561,#60,.T.);
#459=EDGE_CURVE('',#564,#562,#628,.T.);
#460=EDGE_CURVE('',#565,#564,#61,.T.);
#461=EDGE_CURVE('',#565,#563,#629,.T.);
#462=EDGE_CURVE('',#566,#567,#630,.T.);
#463=EDGE_CURVE('',#568,#566,#62,.T.);
#464=EDGE_CURVE('',#568,#569,#631,.T.);
#465=EDGE_CURVE('',#569,#567,#63,.T.);
#466=EDGE_CURVE('',#566,#570,#64,.T.);
#467=EDGE_CURVE('',#571,#570,#65,.T.);
#468=EDGE_CURVE('',#568,#571,#66,.T.);
#469=EDGE_CURVE('',#572,#570,#632,.T.);
#470=EDGE_CURVE('',#573,#572,#67,.T.);
#471=EDGE_CURVE('',#573,#571,#633,.T.);
#472=EDGE_CURVE('',#572,#574,#68,.T.);
#473=EDGE_CURVE('',#575,#574,#69,.T.);
#474=EDGE_CURVE('',#573,#575,#70,.T.);
#475=EDGE_CURVE('',#576,#574,#634,.T.);
#476=EDGE_CURVE('',#577,#576,#71,.T.);
#477=EDGE_CURVE('',#577,#575,#635,.T.);
#478=EDGE_CURVE('',#578,#576,#72,.T.);
#479=EDGE_CURVE('',#579,#578,#73,.T.);
#480=EDGE_CURVE('',#579,#577,#74,.T.);
#481=EDGE_CURVE('',#580,#578,#636,.T.);
#482=EDGE_CURVE('',#581,#580,#75,.T.);
#483=EDGE_CURVE('',#581,#579,#637,.T.);
#484=EDGE_CURVE('',#582,#583,#638,.T.);
#485=EDGE_CURVE('',#584,#582,#76,.T.);
#486=EDGE_CURVE('',#584,#585,#639,.T.);
#487=EDGE_CURVE('',#585,#583,#77,.T.);
#488=EDGE_CURVE('',#582,#586,#78,.T.);
#489=EDGE_CURVE('',#587,#586,#79,.T.);
#490=EDGE_CURVE('',#584,#587,#80,.T.);
#491=EDGE_CURVE('',#588,#586,#640,.T.);
#492=EDGE_CURVE('',#589,#588,#81,.T.);
#493=EDGE_CURVE('',#589,#587,#641,.T.);
#494=EDGE_CURVE('',#588,#590,#82,.T.);
#495=EDGE_CURVE('',#591,#590,#83,.T.);
#496=EDGE_CURVE('',#589,#591,#84,.T.);
#497=EDGE_CURVE('',#592,#590,#642,.T.);
#498=EDGE_CURVE('',#593,#592,#85,.T.);
#499=EDGE_CURVE('',#593,#591,#643,.T.);
#500=EDGE_CURVE('',#594,#592,#86,.T.);
#501=EDGE_CURVE('',#595,#594,#87,.T.);
#502=EDGE_CURVE('',#595,#593,#88,.T.);
#503=EDGE_CURVE('',#596,#594,#644,.T.);
#504=EDGE_CURVE('',#597,#596,#89,.T.);
#505=EDGE_CURVE('',#597,#595,#645,.T.);
#506=EDGE_CURVE('',#598,#599,#90,.T.);
#507=EDGE_CURVE('',#600,#598,#91,.T.);
#508=EDGE_CURVE('',#600,#601,#92,.T.);
#509=EDGE_CURVE('',#601,#599,#93,.T.);
#510=EDGE_CURVE('',#602,#598,#94,.T.);
#511=EDGE_CURVE('',#603,#602,#95,.T.);
#512=EDGE_CURVE('',#603,#600,#96,.T.);
#513=EDGE_CURVE('',#602,#604,#97,.T.);
#514=EDGE_CURVE('',#605,#604,#98,.T.);
#515=EDGE_CURVE('',#603,#605,#99,.T.);
#516=EDGE_CURVE('',#551,#564,#100,.T.);
#517=EDGE_CURVE('',#553,#565,#101,.T.);
#518=EDGE_CURVE('',#567,#580,#102,.T.);
#519=EDGE_CURVE('',#569,#581,#103,.T.);
#520=EDGE_CURVE('',#583,#596,#104,.T.);
#521=EDGE_CURVE('',#585,#597,#105,.T.);
#522=EDGE_CURVE('',#606,#606,#646,.T.);
#523=EDGE_CURVE('',#607,#607,#647,.T.);
#524=EDGE_CURVE('',#608,#608,#648,.T.);
#525=EDGE_CURVE('',#609,#609,#649,.T.);
#526=EDGE_CURVE('',#610,#610,#650,.T.);
#527=EDGE_CURVE('',#611,#611,#651,.T.);
#528=EDGE_CURVE('',#612,#612,#652,.T.);
#529=EDGE_CURVE('',#613,#613,#653,.T.);
#530=EDGE_CURVE('',#604,#599,#106,.T.);
#531=EDGE_CURVE('',#605,#601,#107,.T.);
#532=EDGE_CURVE('',#535,#548,#108,.T.);
#533=EDGE_CURVE('',#537,#549,#109,.T.);
#534=VERTEX_POINT('',#1180);
#535=VERTEX_POINT('',#1181);
#536=VERTEX_POINT('',#1183);
#537=VERTEX_POINT('',#1185);
#538=VERTEX_POINT('',#1189);
#539=VERTEX_POINT('',#1191);
#540=VERTEX_POINT('',#1195);
#541=VERTEX_POINT('',#1197);
#542=VERTEX_POINT('',#1201);
#543=VERTEX_POINT('',#1203);
#544=VERTEX_POINT('',#1207);
#545=VERTEX_POINT('',#1209);
#546=VERTEX_POINT('',#1213);
#547=VERTEX_POINT('',#1215);
#548=VERTEX_POINT('',#1219);
#549=VERTEX_POINT('',#1221);
#550=VERTEX_POINT('',#1225);
#551=VERTEX_POINT('',#1226);
#552=VERTEX_POINT('',#1228);
#553=VERTEX_POINT('',#1230);
#554=VERTEX_POINT('',#1234);
#555=VERTEX_POINT('',#1236);
#556=VERTEX_POINT('',#1240);
#557=VERTEX_POINT('',#1242);
#558=VERTEX_POINT('',#1246);
#559=VERTEX_POINT('',#1248);
#560=VERTEX_POINT('',#1252);
#561=VERTEX_POINT('',#1254);
#562=VERTEX_POINT('',#1258);
#563=VERTEX_POINT('',#1260);
#564=VERTEX_POINT('',#1264);
#565=VERTEX_POINT('',#1266);
#566=VERTEX_POINT('',#1270);
#567=VERTEX_POINT('',#1271);
#568=VERTEX_POINT('',#1273);
#569=VERTEX_POINT('',#1275);
#570=VERTEX_POINT('',#1279);
#571=VERTEX_POINT('',#1281);
#572=VERTEX_POINT('',#1285);
#573=VERTEX_POINT('',#1287);
#574=VERTEX_POINT('',#1291);
#575=VERTEX_POINT('',#1293);
#576=VERTEX_POINT('',#1297);
#577=VERTEX_POINT('',#1299);
#578=VERTEX_POINT('',#1303);
#579=VERTEX_POINT('',#1305);
#580=VERTEX_POINT('',#1309);
#581=VERTEX_POINT('',#1311);
#582=VERTEX_POINT('',#1315);
#583=VERTEX_POINT('',#1316);
#584=VERTEX_POINT('',#1318);
#585=VERTEX_POINT('',#1320);
#586=VERTEX_POINT('',#1324);
#587=VERTEX_POINT('',#1326);
#588=VERTEX_POINT('',#1330);
#589=VERTEX_POINT('',#1332);
#590=VERTEX_POINT('',#1336);
#591=VERTEX_POINT('',#1338);
#592=VERTEX_POINT('',#1342);
#593=VERTEX_POINT('',#1344);
#594=VERTEX_POINT('',#1348);
#595=VERTEX_POINT('',#1350);
#596=VERTEX_POINT('',#1354);
#597=VERTEX_POINT('',#1356);
#598=VERTEX_POINT('',#1360);
#599=VERTEX_POINT('',#1361);
#600=VERTEX_POINT('',#1363);
#601=VERTEX_POINT('',#1365);
#602=VERTEX_POINT('',#1369);
#603=VERTEX_POINT('',#1371);
#604=VERTEX_POINT('',#1375);
#605=VERTEX_POINT('',#1377);
#606=VERTEX_POINT('',#1390);
#607=VERTEX_POINT('',#1392);
#608=VERTEX_POINT('',#1395);
#609=VERTEX_POINT('',#1397);
#610=VERTEX_POINT('',#1400);
#611=VERTEX_POINT('',#1402);
#612=VERTEX_POINT('',#1405);
#613=VERTEX_POINT('',#1407);
#614=CIRCLE('',#854,0.000425);
#615=CIRCLE('',#855,0.000425);
#616=CIRCLE('',#858,0.000425);
#617=CIRCLE('',#859,0.000425);
#618=CIRCLE('',#862,0.000425);
#619=CIRCLE('',#863,0.000425);
#620=CIRCLE('',#866,0.000425);
#621=CIRCLE('',#867,0.000425);
#622=CIRCLE('',#869,0.000425);
#623=CIRCLE('',#870,0.000425);
#624=CIRCLE('',#873,0.000425);
#625=CIRCLE('',#874,0.000425);
#626=CIRCLE('',#877,0.000425);
#627=CIRCLE('',#878,0.000425);
#628=CIRCLE('',#881,0.000425);
#629=CIRCLE('',#882,0.000425);
#630=CIRCLE('',#884,0.000425);
#631=CIRCLE('',#885,0.000425);
#632=CIRCLE('',#888,0.000425);
#633=CIRCLE('',#889,0.000425);
#634=CIRCLE('',#892,0.000425);
#635=CIRCLE('',#893,0.000425);
#636=CIRCLE('',#896,0.000425);
#637=CIRCLE('',#897,0.000425);
#638=CIRCLE('',#899,0.000425);
#639=CIRCLE('',#900,0.000425);
#640=CIRCLE('',#903,0.000425);
#641=CIRCLE('',#904,0.000425);
#642=CIRCLE('',#907,0.000425);
#643=CIRCLE('',#908,0.000425);
#644=CIRCLE('',#911,0.000425);
#645=CIRCLE('',#912,0.000425);
#646=CIRCLE('',#920,0.00145);
#647=CIRCLE('',#921,0.00145);
#648=CIRCLE('',#923,0.00145);
#649=CIRCLE('',#924,0.00145);
#650=CIRCLE('',#926,0.00145);
#651=CIRCLE('',#927,0.00145);
#652=CIRCLE('',#929,0.00145);
#653=CIRCLE('',#930,0.00145);
#654=EDGE_LOOP('',(#186,#187,#188,#189));
#655=EDGE_LOOP('',(#190,#191,#192,#193));
#656=EDGE_LOOP('',(#194,#195,#196,#197));
#657=EDGE_LOOP('',(#198,#199,#200,#201));
#658=EDGE_LOOP('',(#202,#203,#204,#205));
#659=EDGE_LOOP('',(#206,#207,#208,#209));
#660=EDGE_LOOP('',(#210,#211,#212,#213));
#661=EDGE_LOOP('',(#214,#215,#216,#217));
#662=EDGE_LOOP('',(#218,#219,#220,#221));
#663=EDGE_LOOP('',(#222,#223,#224,#225));
#664=EDGE_LOOP('',(#226,#227,#228,#229));
#665=EDGE_LOOP('',(#230,#231,#232,#233));
#666=EDGE_LOOP('',(#234,#235,#236,#237));
#667=EDGE_LOOP('',(#238,#239,#240,#241));
#668=EDGE_LOOP('',(#242,#243,#244,#245));
#669=EDGE_LOOP('',(#246,#247,#248,#249));
#670=EDGE_LOOP('',(#250,#251,#252,#253));
#671=EDGE_LOOP('',(#254,#255,#256,#257));
#672=EDGE_LOOP('',(#258,#259,#260,#261));
#673=EDGE_LOOP('',(#262,#263,#264,#265));
#674=EDGE_LOOP('',(#266,#267,#268,#269));
#675=EDGE_LOOP('',(#270,#271,#272,#273));
#676=EDGE_LOOP('',(#274,#275,#276,#277));
#677=EDGE_LOOP('',(#278,#279,#280,#281));
#678=EDGE_LOOP('',(#282,#283,#284,#285));
#679=EDGE_LOOP('',(#286,#287,#288,#289));
#680=EDGE_LOOP('',(#290,#291,#292,#293));
#681=EDGE_LOOP('',(#294,#295,#296,#297));
#682=EDGE_LOOP('',(#298,#299,#300,#301));
#683=EDGE_LOOP('',(#302,#303,#304,#305));
#684=EDGE_LOOP('',(#306,#307,#308,#309));
#685=EDGE_LOOP('',(#310,#311,#312,#313));
#686=EDGE_LOOP('',(#314,#315,#316,#317));
#687=EDGE_LOOP('',(#318,#319,#320,#321));
#688=EDGE_LOOP('',(#322));
#689=EDGE_LOOP('',(#323));
#690=EDGE_LOOP('',(#324));
#691=EDGE_LOOP('',(#325));
#692=EDGE_LOOP('',(#326));
#693=EDGE_LOOP('',(#327));
#694=EDGE_LOOP('',(#328));
#695=EDGE_LOOP('',(#329));
#696=EDGE_LOOP('',(#330,#331,#332,#333));
#697=EDGE_LOOP('',(#334,#335,#336,#337));
#698=EDGE_LOOP('',(#338,#339,#340,#341));
#699=EDGE_LOOP('',(#342));
#700=EDGE_LOOP('',(#343));
#701=EDGE_LOOP('',(#344));
#702=EDGE_LOOP('',(#345));
#703=EDGE_LOOP('',(#346,#347,#348,#349,#350,#351,#352,#353));
#704=EDGE_LOOP('',(#354,#355,#356,#357,#358,#359,#360,#361));
#705=EDGE_LOOP('',(#362,#363,#364,#365,#366,#367,#368,#369));
#706=EDGE_LOOP('',(#370,#371,#372,#373,#374,#375,#376,#377));
#707=EDGE_LOOP('',(#378,#379,#380,#381));
#708=EDGE_LOOP('',(#382));
#709=EDGE_LOOP('',(#383));
#710=EDGE_LOOP('',(#384));
#711=EDGE_LOOP('',(#385));
#712=EDGE_LOOP('',(#386,#387,#388,#389,#390,#391,#392,#393));
#713=EDGE_LOOP('',(#394,#395,#396,#397,#398,#399,#400,#401));
#714=EDGE_LOOP('',(#402,#403,#404,#405,#406,#407,#408,#409));
#715=EDGE_LOOP('',(#410,#411,#412,#413,#414,#415,#416,#417));
#716=FACE_BOUND('',#654,.T.);
#717=FACE_BOUND('',#655,.T.);
#718=FACE_BOUND('',#656,.T.);
#719=FACE_BOUND('',#657,.T.);
#720=FACE_BOUND('',#658,.T.);
#721=FACE_BOUND('',#659,.T.);
#722=FACE_BOUND('',#660,.T.);
#723=FACE_BOUND('',#661,.T.);
#724=FACE_BOUND('',#662,.T.);
#725=FACE_BOUND('',#663,.T.);
#726=FACE_BOUND('',#664,.T.);
#727=FACE_BOUND('',#665,.T.);
#728=FACE_BOUND('',#666,.T.);
#729=FACE_BOUND('',#667,.T.);
#730=FACE_BOUND('',#668,.T.);
#731=FACE_BOUND('',#669,.T.);
#732=FACE_BOUND('',#670,.T.);
#733=FACE_BOUND('',#671,.T.);
#734=FACE_BOUND('',#672,.T.);
#735=FACE_BOUND('',#673,.T.);
#736=FACE_BOUND('',#674,.T.);
#737=FACE_BOUND('',#675,.T.);
#738=FACE_BOUND('',#676,.T.);
#739=FACE_BOUND('',#677,.T.);
#740=FACE_BOUND('',#678,.T.);
#741=FACE_BOUND('',#679,.T.);
#742=FACE_BOUND('',#680,.T.);
#743=FACE_BOUND('',#681,.T.);
#744=FACE_BOUND('',#682,.T.);
#745=FACE_BOUND('',#683,.T.);
#746=FACE_BOUND('',#684,.T.);
#747=FACE_BOUND('',#685,.T.);
#748=FACE_BOUND('',#686,.T.);
#749=FACE_BOUND('',#687,.T.);
#750=FACE_BOUND('',#688,.T.);
#751=FACE_BOUND('',#689,.T.);
#752=FACE_BOUND('',#690,.T.);
#753=FACE_BOUND('',#691,.T.);
#754=FACE_BOUND('',#692,.T.);
#755=FACE_BOUND('',#693,.T.);
#756=FACE_BOUND('',#694,.T.);
#757=FACE_BOUND('',#695,.T.);
#758=FACE_BOUND('',#696,.T.);
#759=FACE_BOUND('',#697,.T.);
#760=FACE_BOUND('',#698,.T.);
#761=FACE_BOUND('',#699,.T.);
#762=FACE_BOUND('',#700,.T.);
#763=FACE_BOUND('',#701,.T.);
#764=FACE_BOUND('',#702,.T.);
#765=FACE_BOUND('',#703,.T.);
#766=FACE_BOUND('',#704,.T.);
#767=FACE_BOUND('',#705,.T.);
#768=FACE_BOUND('',#706,.T.);
#769=FACE_BOUND('',#707,.T.);
#770=FACE_BOUND('',#708,.T.);
#771=FACE_BOUND('',#709,.T.);
#772=FACE_BOUND('',#710,.T.);
#773=FACE_BOUND('',#711,.T.);
#774=FACE_BOUND('',#712,.T.);
#775=FACE_BOUND('',#713,.T.);
#776=FACE_BOUND('',#714,.T.);
#777=FACE_BOUND('',#715,.T.);
#778=CYLINDRICAL_SURFACE('',#853,0.000425);
#779=CYLINDRICAL_SURFACE('',#857,0.000425);
#780=CYLINDRICAL_SURFACE('',#861,0.000425);
#781=CYLINDRICAL_SURFACE('',#865,0.000425);
#782=CYLINDRICAL_SURFACE('',#868,0.000425);
#783=CYLINDRICAL_SURFACE('',#872,0.000425);
#784=CYLINDRICAL_SURFACE('',#876,0.000425);
#785=CYLINDRICAL_SURFACE('',#880,0.000425);
#786=CYLINDRICAL_SURFACE('',#883,0.000425);
#787=CYLINDRICAL_SURFACE('',#887,0.000425);
#788=CYLINDRICAL_SURFACE('',#891,0.000425);
#789=CYLINDRICAL_SURFACE('',#895,0.000425);
#790=CYLINDRICAL_SURFACE('',#898,0.000425);
#791=CYLINDRICAL_SURFACE('',#902,0.000425);
#792=CYLINDRICAL_SURFACE('',#906,0.000425);
#793=CYLINDRICAL_SURFACE('',#910,0.000425);
#794=CYLINDRICAL_SURFACE('',#919,0.00145);
#795=CYLINDRICAL_SURFACE('',#922,0.00145);
#796=CYLINDRICAL_SURFACE('',#925,0.00145);
#797=CYLINDRICAL_SURFACE('',#928,0.00145);
#798=ADVANCED_FACE('',(#716),#778,.F.);
#799=ADVANCED_FACE('',(#717),#12,.F.);
#800=ADVANCED_FACE('',(#718),#779,.F.);
#801=ADVANCED_FACE('',(#719),#13,.F.);
#802=ADVANCED_FACE('',(#720),#780,.F.);
#803=ADVANCED_FACE('',(#721),#14,.T.);
#804=ADVANCED_FACE('',(#722),#781,.F.);
#805=ADVANCED_FACE('',(#723),#782,.F.);
#806=ADVANCED_FACE('',(#724),#15,.F.);
#807=ADVANCED_FACE('',(#725),#783,.F.);
#808=ADVANCED_FACE('',(#726),#16,.F.);
#809=ADVANCED_FACE('',(#727),#784,.F.);
#810=ADVANCED_FACE('',(#728),#17,.T.);
#811=ADVANCED_FACE('',(#729),#785,.F.);
#812=ADVANCED_FACE('',(#730),#786,.F.);
#813=ADVANCED_FACE('',(#731),#18,.F.);
#814=ADVANCED_FACE('',(#732),#787,.F.);
#815=ADVANCED_FACE('',(#733),#19,.F.);
#816=ADVANCED_FACE('',(#734),#788,.F.);
#817=ADVANCED_FACE('',(#735),#20,.T.);
#818=ADVANCED_FACE('',(#736),#789,.F.);
#819=ADVANCED_FACE('',(#737),#790,.F.);
#820=ADVANCED_FACE('',(#738),#21,.F.);
#821=ADVANCED_FACE('',(#739),#791,.F.);
#822=ADVANCED_FACE('',(#740),#22,.F.);
#823=ADVANCED_FACE('',(#741),#792,.F.);
#824=ADVANCED_FACE('',(#742),#23,.T.);
#825=ADVANCED_FACE('',(#743),#793,.F.);
#826=ADVANCED_FACE('',(#744),#24,.T.);
#827=ADVANCED_FACE('',(#745),#25,.T.);
#828=ADVANCED_FACE('',(#746),#26,.F.);
#829=ADVANCED_FACE('',(#747),#27,.T.);
#830=ADVANCED_FACE('',(#748),#28,.T.);
#831=ADVANCED_FACE('',(#749),#29,.T.);
#832=ADVANCED_FACE('',(#750,#751),#794,.F.);
#833=ADVANCED_FACE('',(#752,#753),#795,.F.);
#834=ADVANCED_FACE('',(#754,#755),#796,.F.);
#835=ADVANCED_FACE('',(#756,#757),#797,.F.);
#836=ADVANCED_FACE('',(#758),#30,.F.);
#837=ADVANCED_FACE('',(#759),#31,.T.);
#838=ADVANCED_FACE('',(#760,#761,#762,#763,#764,#765,#766,#767,#768),#32,
 .T.);
#839=ADVANCED_FACE('',(#769,#770,#771,#772,#773,#774,#775,#776,#777),#33,
 .F.);
#840=CLOSED_SHELL('',(#798,#799,#800,#801,#802,#803,#804,#805,#806,#807,
#808,#809,#810,#811,#812,#813,#814,#815,#816,#817,#818,#819,#820,#821,#822,
#823,#824,#825,#826,#827,#828,#829,#830,#831,#832,#833,#834,#835,#836,#837,
#838,#839));
#841=STYLED_ITEM('',(#842),#849);
#842=PRESENTATION_STYLE_ASSIGNMENT((#843));
#843=SURFACE_STYLE_USAGE(.BOTH.,#844);
#844=SURFACE_SIDE_STYLE('',(#845));
#845=SURFACE_STYLE_FILL_AREA(#846);
#846=FILL_AREA_STYLE('',(#847));
#847=FILL_AREA_STYLE_COLOUR('',#848);
#848=DRAUGHTING_PRE_DEFINED_COLOUR('cyan');
#849=MANIFOLD_SOLID_BREP('Top',#840);
#850=SHAPE_DEFINITION_REPRESENTATION(#1422,#851);
#851=SHAPE_REPRESENTATION('Top',(#852),#1417);
#852=AXIS2_PLACEMENT_3D('',#1177,#935,#936);
#853=AXIS2_PLACEMENT_3D('',#1178,#937,#938);
#854=AXIS2_PLACEMENT_3D('',#1179,#939,#940);
#855=AXIS2_PLACEMENT_3D('',#1184,#942,#943);
#856=AXIS2_PLACEMENT_3D('',#1187,#945,#946);
#857=AXIS2_PLACEMENT_3D('',#1193,#950,#951);
#858=AXIS2_PLACEMENT_3D('',#1194,#952,#953);
#859=AXIS2_PLACEMENT_3D('',#1198,#955,#956);
#860=AXIS2_PLACEMENT_3D('',#1199,#957,#958);
#861=AXIS2_PLACEMENT_3D('',#1205,#962,#963);
#862=AXIS2_PLACEMENT_3D('',#1206,#964,#965);
#863=AXIS2_PLACEMENT_3D('',#1210,#967,#968);
#864=AXIS2_PLACEMENT_3D('',#1211,#969,#970);
#865=AXIS2_PLACEMENT_3D('',#1217,#974,#975);
#866=AXIS2_PLACEMENT_3D('',#1218,#976,#977);
#867=AXIS2_PLACEMENT_3D('',#1222,#979,#980);
#868=AXIS2_PLACEMENT_3D('',#1223,#981,#982);
#869=AXIS2_PLACEMENT_3D('',#1224,#983,#984);
#870=AXIS2_PLACEMENT_3D('',#1229,#986,#987);
#871=AXIS2_PLACEMENT_3D('',#1232,#989,#990);
#872=AXIS2_PLACEMENT_3D('',#1238,#994,#995);
#873=AXIS2_PLACEMENT_3D('',#1239,#996,#997);
#874=AXIS2_PLACEMENT_3D('',#1243,#999,#1000);
#875=AXIS2_PLACEMENT_3D('',#1244,#1001,#1002);
#876=AXIS2_PLACEMENT_3D('',#1250,#1006,#1007);
#877=AXIS2_PLACEMENT_3D('',#1251,#1008,#1009);
#878=AXIS2_PLACEMENT_3D('',#1255,#1011,#1012);
#879=AXIS2_PLACEMENT_3D('',#1256,#1013,#1014);
#880=AXIS2_PLACEMENT_3D('',#1262,#1018,#1019);
#881=AXIS2_PLACEMENT_3D('',#1263,#1020,#1021);
#882=AXIS2_PLACEMENT_3D('',#1267,#1023,#1024);
#883=AXIS2_PLACEMENT_3D('',#1268,#1025,#1026);
#884=AXIS2_PLACEMENT_3D('',#1269,#1027,#1028);
#885=AXIS2_PLACEMENT_3D('',#1274,#1030,#1031);
#886=AXIS2_PLACEMENT_3D('',#1277,#1033,#1034);
#887=AXIS2_PLACEMENT_3D('',#1283,#1038,#1039);
#888=AXIS2_PLACEMENT_3D('',#1284,#1040,#1041);
#889=AXIS2_PLACEMENT_3D('',#1288,#1043,#1044);
#890=AXIS2_PLACEMENT_3D('',#1289,#1045,#1046);
#891=AXIS2_PLACEMENT_3D('',#1295,#1050,#1051);
#892=AXIS2_PLACEMENT_3D('',#1296,#1052,#1053);
#893=AXIS2_PLACEMENT_3D('',#1300,#1055,#1056);
#894=AXIS2_PLACEMENT_3D('',#1301,#1057,#1058);
#895=AXIS2_PLACEMENT_3D('',#1307,#1062,#1063);
#896=AXIS2_PLACEMENT_3D('',#1308,#1064,#1065);
#897=AXIS2_PLACEMENT_3D('',#1312,#1067,#1068);
#898=AXIS2_PLACEMENT_3D('',#1313,#1069,#1070);
#899=AXIS2_PLACEMENT_3D('',#1314,#1071,#1072);
#900=AXIS2_PLACEMENT_3D('',#1319,#1074,#1075);
#901=AXIS2_PLACEMENT_3D('',#1322,#1077,#1078);
#902=AXIS2_PLACEMENT_3D('',#1328,#1082,#1083);
#903=AXIS2_PLACEMENT_3D('',#1329,#1084,#1085);
#904=AXIS2_PLACEMENT_3D('',#1333,#1087,#1088);
#905=AXIS2_PLACEMENT_3D('',#1334,#1089,#1090);
#906=AXIS2_PLACEMENT_3D('',#1340,#1094,#1095);
#907=AXIS2_PLACEMENT_3D('',#1341,#1096,#1097);
#908=AXIS2_PLACEMENT_3D('',#1345,#1099,#1100);
#909=AXIS2_PLACEMENT_3D('',#1346,#1101,#1102);
#910=AXIS2_PLACEMENT_3D('',#1352,#1106,#1107);
#911=AXIS2_PLACEMENT_3D('',#1353,#1108,#1109);
#912=AXIS2_PLACEMENT_3D('',#1357,#1111,#1112);
#913=AXIS2_PLACEMENT_3D('',#1358,#1113,#1114);
#914=AXIS2_PLACEMENT_3D('',#1367,#1119,#1120);
#915=AXIS2_PLACEMENT_3D('',#1373,#1124,#1125);
#916=AXIS2_PLACEMENT_3D('',#1379,#1129,#1130);
#917=AXIS2_PLACEMENT_3D('',#1382,#1133,#1134);
#918=AXIS2_PLACEMENT_3D('',#1385,#1137,#1138);
#919=AXIS2_PLACEMENT_3D('',#1388,#1141,#1142);
#920=AXIS2_PLACEMENT_3D('',#1389,#1143,#1144);
#921=AXIS2_PLACEMENT_3D('',#1391,#1145,#1146);
#922=AXIS2_PLACEMENT_3D('',#1393,#1147,#1148);
#923=AXIS2_PLACEMENT_3D('',#1394,#1149,#1150);
#924=AXIS2_PLACEMENT_3D('',#1396,#1151,#1152);
#925=AXIS2_PLACEMENT_3D('',#1398,#1153,#1154);
#926=AXIS2_PLACEMENT_3D('',#1399,#1155,#1156);
#927=AXIS2_PLACEMENT_3D('',#1401,#1157,#1158);
#928=AXIS2_PLACEMENT_3D('',#1403,#1159,#1160);
#929=AXIS2_PLACEMENT_3D('',#1404,#1161,#1162);
#930=AXIS2_PLACEMENT_3D('',#1406,#1163,#1164);
#931=AXIS2_PLACEMENT_3D('',#1408,#1165,#1166);
#932=AXIS2_PLACEMENT_3D('',#1411,#1169,#1170);
#933=AXIS2_PLACEMENT_3D('',#1414,#1173,#1174);
#934=AXIS2_PLACEMENT_3D('',#1415,#1175,#1176);
#935=DIRECTION('',(0.,0.,1.));
#936=DIRECTION('',(1.,0.,0.));
#937=DIRECTION('',(0.,0.,-1.));
#938=DIRECTION('',(-1.,0.,0.));
#939=DIRECTION('',(0.,0.,1.));
#940=DIRECTION('',(1.,0.,0.));
#941=DIRECTION('',(0.,0.,-1.));
#942=DIRECTION('',(0.,0.,1.));
#943=DIRECTION('',(1.,0.,0.));
#944=DIRECTION('',(0.,0.,-1.));
#945=DIRECTION('',(0.,1.,0.));
#946=DIRECTION('',(0.,0.,1.));
#947=DIRECTION('',(1.,0.,0.));
#948=DIRECTION('',(0.,0.,-1.));
#949=DIRECTION('',(1.,0.,0.));
#950=DIRECTION('',(0.,0.,-1.));
#951=DIRECTION('',(-1.,0.,0.));
#952=DIRECTION('',(0.,0.,1.));
#953=DIRECTION('',(1.,0.,0.));
#954=DIRECTION('',(0.,0.,-1.));
#955=DIRECTION('',(0.,0.,1.));
#956=DIRECTION('',(1.,0.,0.));
#957=DIRECTION('',(1.,0.,0.));
#958=DIRECTION('',(0.,0.,-1.));
#959=DIRECTION('',(0.,-1.,0.));
#960=DIRECTION('',(0.,0.,-1.));
#961=DIRECTION('',(0.,-1.,0.));
#962=DIRECTION('',(0.,0.,-1.));
#963=DIRECTION('',(-1.,0.,0.));
#964=DIRECTION('',(0.,0.,1.));
#965=DIRECTION('',(1.,0.,0.));
#966=DIRECTION('',(0.,0.,-1.));
#967=DIRECTION('',(0.,0.,1.));
#968=DIRECTION('',(1.,0.,0.));
#969=DIRECTION('',(0.,1.,0.));
#970=DIRECTION('',(0.,0.,1.));
#971=DIRECTION('',(1.,0.,0.));
#972=DIRECTION('',(0.,0.,-1.));
#973=DIRECTION('',(1.,0.,0.));
#974=DIRECTION('',(0.,0.,-1.));
#975=DIRECTION('',(-1.,0.,0.));
#976=DIRECTION('',(0.,0.,1.));
#977=DIRECTION('',(1.,0.,0.));
#978=DIRECTION('',(0.,0.,-1.));
#979=DIRECTION('',(0.,0.,1.));
#980=DIRECTION('',(1.,0.,0.));
#981=DIRECTION('',(0.,0.,-1.));
#982=DIRECTION('',(-1.,0.,0.));
#983=DIRECTION('',(0.,0.,1.));
#984=DIRECTION('',(1.,0.,0.));
#985=DIRECTION('',(0.,0.,-1.));
#986=DIRECTION('',(0.,0.,1.));
#987=DIRECTION('',(1.,0.,0.));
#988=DIRECTION('',(0.,0.,-1.));
#989=DIRECTION('',(0.,1.,0.));
#990=DIRECTION('',(0.,0.,1.));
#991=DIRECTION('',(1.,0.,0.));
#992=DIRECTION('',(0.,0.,-1.));
#993=DIRECTION('',(1.,0.,0.));
#994=DIRECTION('',(0.,0.,-1.));
#995=DIRECTION('',(-1.,0.,0.));
#996=DIRECTION('',(0.,0.,1.));
#997=DIRECTION('',(1.,0.,0.));
#998=DIRECTION('',(0.,0.,-1.));
#999=DIRECTION('',(0.,0.,1.));
#1000=DIRECTION('',(1.,0.,0.));
#1001=DIRECTION('',(1.,0.,0.));
#1002=DIRECTION('',(0.,0.,-1.));
#1003=DIRECTION('',(0.,-1.,0.));
#1004=DIRECTION('',(0.,0.,-1.));
#1005=DIRECTION('',(0.,-1.,0.));
#1006=DIRECTION('',(0.,0.,-1.));
#1007=DIRECTION('',(-1.,0.,0.));
#1008=DIRECTION('',(0.,0.,1.));
#1009=DIRECTION('',(1.,0.,0.));
#1010=DIRECTION('',(0.,0.,-1.));
#1011=DIRECTION('',(0.,0.,1.));
#1012=DIRECTION('',(1.,0.,0.));
#1013=DIRECTION('',(0.,1.,0.));
#1014=DIRECTION('',(0.,0.,1.));
#1015=DIRECTION('',(1.,0.,0.));
#1016=DIRECTION('',(0.,0.,-1.));
#1017=DIRECTION('',(1.,0.,0.));
#1018=DIRECTION('',(0.,0.,-1.));
#1019=DIRECTION('',(-1.,0.,0.));
#1020=DIRECTION('',(0.,0.,1.));
#1021=DIRECTION('',(1.,0.,0.));
#1022=DIRECTION('',(0.,0.,-1.));
#1023=DIRECTION('',(0.,0.,1.));
#1024=DIRECTION('',(1.,0.,0.));
#1025=DIRECTION('',(0.,0.,-1.));
#1026=DIRECTION('',(-1.,0.,0.));
#1027=DIRECTION('',(0.,0.,1.));
#1028=DIRECTION('',(1.,0.,0.));
#1029=DIRECTION('',(0.,0.,-1.));
#1030=DIRECTION('',(0.,0.,1.));
#1031=DIRECTION('',(1.,0.,0.));
#1032=DIRECTION('',(0.,0.,-1.));
#1033=DIRECTION('',(0.,1.,0.));
#1034=DIRECTION('',(0.,0.,1.));
#1035=DIRECTION('',(1.,0.,0.));
#1036=DIRECTION('',(0.,0.,-1.));
#1037=DIRECTION('',(1.,0.,0.));
#1038=DIRECTION('',(0.,0.,-1.));
#1039=DIRECTION('',(-1.,0.,0.));
#1040=DIRECTION('',(0.,0.,1.));
#1041=DIRECTION('',(1.,0.,0.));
#1042=DIRECTION('',(0.,0.,-1.));
#1043=DIRECTION('',(0.,0.,1.));
#1044=DIRECTION('',(1.,0.,0.));
#1045=DIRECTION('',(1.,0.,0.));
#1046=DIRECTION('',(0.,0.,-1.));
#1047=DIRECTION('',(0.,-1.,0.));
#1048=DIRECTION('',(0.,0.,-1.));
#1049=DIRECTION('',(0.,-1.,0.));
#1050=DIRECTION('',(0.,0.,-1.));
#1051=DIRECTION('',(-1.,0.,0.));
#1052=DIRECTION('',(0.,0.,1.));
#1053=DIRECTION('',(1.,0.,0.));
#1054=DIRECTION('',(0.,0.,-1.));
#1055=DIRECTION('',(0.,0.,1.));
#1056=DIRECTION('',(1.,0.,0.));
#1057=DIRECTION('',(0.,1.,0.));
#1058=DIRECTION('',(0.,0.,1.));
#1059=DIRECTION('',(1.,0.,0.));
#1060=DIRECTION('',(0.,0.,-1.));
#1061=DIRECTION('',(1.,0.,0.));
#1062=DIRECTION('',(0.,0.,-1.));
#1063=DIRECTION('',(-1.,0.,0.));
#1064=DIRECTION('',(0.,0.,1.));
#1065=DIRECTION('',(1.,0.,0.));
#1066=DIRECTION('',(0.,0.,-1.));
#1067=DIRECTION('',(0.,0.,1.));
#1068=DIRECTION('',(1.,0.,0.));
#1069=DIRECTION('',(0.,0.,-1.));
#1070=DIRECTION('',(-1.,0.,0.));
#1071=DIRECTION('',(0.,0.,1.));
#1072=DIRECTION('',(1.,0.,0.));
#1073=DIRECTION('',(0.,0.,-1.));
#1074=DIRECTION('',(0.,0.,1.));
#1075=DIRECTION('',(1.,0.,0.));
#1076=DIRECTION('',(0.,0.,-1.));
#1077=DIRECTION('',(0.,1.,0.));
#1078=DIRECTION('',(0.,0.,1.));
#1079=DIRECTION('',(1.,0.,0.));
#1080=DIRECTION('',(0.,0.,-1.));
#1081=DIRECTION('',(1.,0.,0.));
#1082=DIRECTION('',(0.,0.,-1.));
#1083=DIRECTION('',(-1.,0.,0.));
#1084=DIRECTION('',(0.,0.,1.));
#1085=DIRECTION('',(1.,0.,0.));
#1086=DIRECTION('',(0.,0.,-1.));
#1087=DIRECTION('',(0.,0.,1.));
#1088=DIRECTION('',(1.,0.,0.));
#1089=DIRECTION('',(1.,0.,0.));
#1090=DIRECTION('',(0.,0.,-1.));
#1091=DIRECTION('',(0.,-1.,0.));
#1092=DIRECTION('',(0.,0.,-1.));
#1093=DIRECTION('',(0.,-1.,0.));
#1094=DIRECTION('',(0.,0.,-1.));
#1095=DIRECTION('',(-1.,0.,0.));
#1096=DIRECTION('',(0.,0.,1.));
#1097=DIRECTION('',(1.,0.,0.));
#1098=DIRECTION('',(0.,0.,-1.));
#1099=DIRECTION('',(0.,0.,1.));
#1100=DIRECTION('',(1.,0.,0.));
#1101=DIRECTION('',(0.,1.,0.));
#1102=DIRECTION('',(0.,0.,1.));
#1103=DIRECTION('',(1.,0.,0.));
#1104=DIRECTION('',(0.,0.,-1.));
#1105=DIRECTION('',(1.,0.,0.));
#1106=DIRECTION('',(0.,0.,-1.));
#1107=DIRECTION('',(-1.,0.,0.));
#1108=DIRECTION('',(0.,0.,1.));
#1109=DIRECTION('',(1.,0.,0.));
#1110=DIRECTION('',(0.,0.,-1.));
#1111=DIRECTION('',(0.,0.,1.));
#1112=DIRECTION('',(1.,0.,0.));
#1113=DIRECTION('',(-1.,0.,0.));
#1114=DIRECTION('',(0.,0.,1.));
#1115=DIRECTION('',(0.,1.,0.));
#1116=DIRECTION('',(0.,0.,-1.));
#1117=DIRECTION('',(0.,1.,0.));
#1118=DIRECTION('',(0.,0.,-1.));
#1119=DIRECTION('',(0.,-1.,0.));
#1120=DIRECTION('',(0.,0.,-1.));
#1121=DIRECTION('',(-1.,0.,0.));
#1122=DIRECTION('',(0.,0.,-1.));
#1123=DIRECTION('',(-1.,0.,0.));
#1124=DIRECTION('',(-1.,0.,0.));
#1125=DIRECTION('',(0.,0.,1.));
#1126=DIRECTION('',(0.,1.,0.));
#1127=DIRECTION('',(0.,0.,-1.));
#1128=DIRECTION('',(0.,1.,0.));
#1129=DIRECTION('',(1.,0.,0.));
#1130=DIRECTION('',(0.,0.,-1.));
#1131=DIRECTION('',(0.,-1.,0.));
#1132=DIRECTION('',(0.,-1.,0.));
#1133=DIRECTION('',(1.,0.,0.));
#1134=DIRECTION('',(0.,0.,-1.));
#1135=DIRECTION('',(0.,-1.,0.));
#1136=DIRECTION('',(0.,-1.,0.));
#1137=DIRECTION('',(1.,0.,0.));
#1138=DIRECTION('',(0.,0.,-1.));
#1139=DIRECTION('',(0.,-1.,0.));
#1140=DIRECTION('',(0.,-1.,0.));
#1141=DIRECTION('',(0.,0.,-1.));
#1142=DIRECTION('',(-1.,0.,0.));
#1143=DIRECTION('',(0.,0.,-1.));
#1144=DIRECTION('',(1.,0.,0.));
#1145=DIRECTION('',(0.,0.,-1.));
#1146=DIRECTION('',(1.,0.,0.));
#1147=DIRECTION('',(0.,0.,-1.));
#1148=DIRECTION('',(-1.,0.,0.));
#1149=DIRECTION('',(0.,0.,1.));
#1150=DIRECTION('',(1.,0.,0.));
#1151=DIRECTION('',(0.,0.,1.));
#1152=DIRECTION('',(1.,0.,0.));
#1153=DIRECTION('',(0.,0.,-1.));
#1154=DIRECTION('',(-1.,0.,0.));
#1155=DIRECTION('',(0.,0.,-1.));
#1156=DIRECTION('',(1.,0.,0.));
#1157=DIRECTION('',(0.,0.,-1.));
#1158=DIRECTION('',(1.,0.,0.));
#1159=DIRECTION('',(0.,0.,-1.));
#1160=DIRECTION('',(-1.,0.,0.));
#1161=DIRECTION('',(0.,0.,1.));
#1162=DIRECTION('',(1.,0.,0.));
#1163=DIRECTION('',(0.,0.,1.));
#1164=DIRECTION('',(1.,0.,0.));
#1165=DIRECTION('',(1.30561224985711E-16,-1.,0.));
#1166=DIRECTION('',(1.,1.30561224985711E-16,0.));
#1167=DIRECTION('',(-1.,-1.30561224985711E-16,0.));
#1168=DIRECTION('',(-1.,-1.30561224985711E-16,0.));
#1169=DIRECTION('',(1.,0.,0.));
#1170=DIRECTION('',(0.,0.,-1.));
#1171=DIRECTION('',(0.,-1.,0.));
#1172=DIRECTION('',(0.,-1.,0.));
#1173=DIRECTION('',(0.,0.,1.));
#1174=DIRECTION('',(1.,0.,0.));
#1175=DIRECTION('',(0.,0.,1.));
#1176=DIRECTION('',(1.,0.,0.));
#1177=CARTESIAN_POINT('',(0.,0.,0.));
#1178=CARTESIAN_POINT('',(-0.01357125,0.01527125,0.013));
#1179=CARTESIAN_POINT('',(-0.01357125,0.01527125,0.01));
#1180=CARTESIAN_POINT('',(-0.01357125,0.01569625,0.01));
#1181=CARTESIAN_POINT('',(-0.01399625,0.01527125,0.01));
#1182=CARTESIAN_POINT('',(-0.01357125,0.01569625,0.013));
#1183=CARTESIAN_POINT('',(-0.01357125,0.01569625,0.013));
#1184=CARTESIAN_POINT('',(-0.01357125,0.01527125,0.013));
#1185=CARTESIAN_POINT('',(-0.01399625,0.01527125,0.013));
#1186=CARTESIAN_POINT('',(-0.01399625,0.01527125,0.013));
#1187=CARTESIAN_POINT('',(-0.00804625,0.01569625,0.013));
#1188=CARTESIAN_POINT('',(-0.00804625,0.01569625,0.01));
#1189=CARTESIAN_POINT('',(-0.00252125,0.01569625,0.01));
#1190=CARTESIAN_POINT('',(-0.00252125,0.01569625,0.013));
#1191=CARTESIAN_POINT('',(-0.00252125,0.01569625,0.013));
#1192=CARTESIAN_POINT('',(-0.00804625,0.01569625,0.013));
#1193=CARTESIAN_POINT('',(-0.00252125,0.01527125,0.013));
#1194=CARTESIAN_POINT('',(-0.00252125,0.01527125,0.01));
#1195=CARTESIAN_POINT('',(-0.00209625,0.01527125,0.01));
#1196=CARTESIAN_POINT('',(-0.00209625,0.01527125,0.013));
#1197=CARTESIAN_POINT('',(-0.00209625,0.01527125,0.013));
#1198=CARTESIAN_POINT('',(-0.00252125,0.01527125,0.013));
#1199=CARTESIAN_POINT('',(-0.00209625,0.00974625,0.013));
#1200=CARTESIAN_POINT('',(-0.00209625,0.00974625,0.01));
#1201=CARTESIAN_POINT('',(-0.00209625,0.00422125,0.01));
#1202=CARTESIAN_POINT('',(-0.00209625,0.00422125,0.013));
#1203=CARTESIAN_POINT('',(-0.00209625,0.00422125,0.013));
#1204=CARTESIAN_POINT('',(-0.00209625,0.00974625,0.013));
#1205=CARTESIAN_POINT('',(-0.00252125,0.00422125,0.013));
#1206=CARTESIAN_POINT('',(-0.00252125,0.00422125,0.01));
#1207=CARTESIAN_POINT('',(-0.00252125,0.00379625,0.01));
#1208=CARTESIAN_POINT('',(-0.00252125,0.00379625,0.013));
#1209=CARTESIAN_POINT('',(-0.00252125,0.00379625,0.013));
#1210=CARTESIAN_POINT('',(-0.00252125,0.00422125,0.013));
#1211=CARTESIAN_POINT('',(-0.00804625,0.00379625,0.013));
#1212=CARTESIAN_POINT('',(-0.00804625,0.00379625,0.01));
#1213=CARTESIAN_POINT('',(-0.01357125,0.00379625,0.01));
#1214=CARTESIAN_POINT('',(-0.01357125,0.00379625,0.013));
#1215=CARTESIAN_POINT('',(-0.01357125,0.00379625,0.013));
#1216=CARTESIAN_POINT('',(-0.00804625,0.00379625,0.013));
#1217=CARTESIAN_POINT('',(-0.01357125,0.00422125,0.013));
#1218=CARTESIAN_POINT('',(-0.01357125,0.00422125,0.01));
#1219=CARTESIAN_POINT('',(-0.01399625,0.00422125,0.01));
#1220=CARTESIAN_POINT('',(-0.01399625,0.00422125,0.013));
#1221=CARTESIAN_POINT('',(-0.01399625,0.00422125,0.013));
#1222=CARTESIAN_POINT('',(-0.01357125,0.00422125,0.013));
#1223=CARTESIAN_POINT('',(-0.02976375,0.01527125,0.013));
#1224=CARTESIAN_POINT('',(-0.02976375,0.01527125,0.01));
#1225=CARTESIAN_POINT('',(-0.02976375,0.01569625,0.01));
#1226=CARTESIAN_POINT('',(-0.03018875,0.01527125,0.01));
#1227=CARTESIAN_POINT('',(-0.02976375,0.01569625,0.013));
#1228=CARTESIAN_POINT('',(-0.02976375,0.01569625,0.013));
#1229=CARTESIAN_POINT('',(-0.02976375,0.01527125,0.013));
#1230=CARTESIAN_POINT('',(-0.03018875,0.01527125,0.013));
#1231=CARTESIAN_POINT('',(-0.03018875,0.01527125,0.013));
#1232=CARTESIAN_POINT('',(-0.02423875,0.01569625,0.013));
#1233=CARTESIAN_POINT('',(-0.02423875,0.01569625,0.01));
#1234=CARTESIAN_POINT('',(-0.01871375,0.01569625,0.01));
#1235=CARTESIAN_POINT('',(-0.01871375,0.01569625,0.013));
#1236=CARTESIAN_POINT('',(-0.01871375,0.01569625,0.013));
#1237=CARTESIAN_POINT('',(-0.02423875,0.01569625,0.013));
#1238=CARTESIAN_POINT('',(-0.01871375,0.01527125,0.013));
#1239=CARTESIAN_POINT('',(-0.01871375,0.01527125,0.01));
#1240=CARTESIAN_POINT('',(-0.01828875,0.01527125,0.01));
#1241=CARTESIAN_POINT('',(-0.01828875,0.01527125,0.013));
#1242=CARTESIAN_POINT('',(-0.01828875,0.01527125,0.013));
#1243=CARTESIAN_POINT('',(-0.01871375,0.01527125,0.013));
#1244=CARTESIAN_POINT('',(-0.01828875,0.00974625,0.013));
#1245=CARTESIAN_POINT('',(-0.01828875,0.00974625,0.01));
#1246=CARTESIAN_POINT('',(-0.01828875,0.00422125,0.01));
#1247=CARTESIAN_POINT('',(-0.01828875,0.00422125,0.013));
#1248=CARTESIAN_POINT('',(-0.01828875,0.00422125,0.013));
#1249=CARTESIAN_POINT('',(-0.01828875,0.00974625,0.013));
#1250=CARTESIAN_POINT('',(-0.01871375,0.00422125,0.013));
#1251=CARTESIAN_POINT('',(-0.01871375,0.00422125,0.01));
#1252=CARTESIAN_POINT('',(-0.01871375,0.00379625,0.01));
#1253=CARTESIAN_POINT('',(-0.01871375,0.00379625,0.013));
#1254=CARTESIAN_POINT('',(-0.01871375,0.00379625,0.013));
#1255=CARTESIAN_POINT('',(-0.01871375,0.00422125,0.013));
#1256=CARTESIAN_POINT('',(-0.02423875,0.00379625,0.013));
#1257=CARTESIAN_POINT('',(-0.02423875,0.00379625,0.01));
#1258=CARTESIAN_POINT('',(-0.02976375,0.00379625,0.01));
#1259=CARTESIAN_POINT('',(-0.02976375,0.00379625,0.013));
#1260=CARTESIAN_POINT('',(-0.02976375,0.00379625,0.013));
#1261=CARTESIAN_POINT('',(-0.02423875,0.00379625,0.013));
#1262=CARTESIAN_POINT('',(-0.02976375,0.00422125,0.013));
#1263=CARTESIAN_POINT('',(-0.02976375,0.00422125,0.01));
#1264=CARTESIAN_POINT('',(-0.03018875,0.00422125,0.01));
#1265=CARTESIAN_POINT('',(-0.03018875,0.00422125,0.013));
#1266=CARTESIAN_POINT('',(-0.03018875,0.00422125,0.013));
#1267=CARTESIAN_POINT('',(-0.02976375,0.00422125,0.013));
#1268=CARTESIAN_POINT('',(-0.04595625,0.01527125,0.013));
#1269=CARTESIAN_POINT('',(-0.04595625,0.01527125,0.01));
#1270=CARTESIAN_POINT('',(-0.04595625,0.01569625,0.01));
#1271=CARTESIAN_POINT('',(-0.04638125,0.01527125,0.01));
#1272=CARTESIAN_POINT('',(-0.04595625,0.01569625,0.013));
#1273=CARTESIAN_POINT('',(-0.04595625,0.01569625,0.013));
#1274=CARTESIAN_POINT('',(-0.04595625,0.01527125,0.013));
#1275=CARTESIAN_POINT('',(-0.04638125,0.01527125,0.013));
#1276=CARTESIAN_POINT('',(-0.04638125,0.01527125,0.013));
#1277=CARTESIAN_POINT('',(-0.04043125,0.01569625,0.013));
#1278=CARTESIAN_POINT('',(-0.04043125,0.01569625,0.01));
#1279=CARTESIAN_POINT('',(-0.03490625,0.01569625,0.01));
#1280=CARTESIAN_POINT('',(-0.03490625,0.01569625,0.013));
#1281=CARTESIAN_POINT('',(-0.03490625,0.01569625,0.013));
#1282=CARTESIAN_POINT('',(-0.04043125,0.01569625,0.013));
#1283=CARTESIAN_POINT('',(-0.03490625,0.01527125,0.013));
#1284=CARTESIAN_POINT('',(-0.03490625,0.01527125,0.01));
#1285=CARTESIAN_POINT('',(-0.03448125,0.01527125,0.01));
#1286=CARTESIAN_POINT('',(-0.03448125,0.01527125,0.013));
#1287=CARTESIAN_POINT('',(-0.03448125,0.01527125,0.013));
#1288=CARTESIAN_POINT('',(-0.03490625,0.01527125,0.013));
#1289=CARTESIAN_POINT('',(-0.03448125,0.00974625,0.013));
#1290=CARTESIAN_POINT('',(-0.03448125,0.00974625,0.01));
#1291=CARTESIAN_POINT('',(-0.03448125,0.00422125,0.01));
#1292=CARTESIAN_POINT('',(-0.03448125,0.00422125,0.013));
#1293=CARTESIAN_POINT('',(-0.03448125,0.00422125,0.013));
#1294=CARTESIAN_POINT('',(-0.03448125,0.00974625,0.013));
#1295=CARTESIAN_POINT('',(-0.03490625,0.00422125,0.013));
#1296=CARTESIAN_POINT('',(-0.03490625,0.00422125,0.01));
#1297=CARTESIAN_POINT('',(-0.03490625,0.00379625,0.01));
#1298=CARTESIAN_POINT('',(-0.03490625,0.00379625,0.013));
#1299=CARTESIAN_POINT('',(-0.03490625,0.00379625,0.013));
#1300=CARTESIAN_POINT('',(-0.03490625,0.00422125,0.013));
#1301=CARTESIAN_POINT('',(-0.04043125,0.00379625,0.013));
#1302=CARTESIAN_POINT('',(-0.04043125,0.00379625,0.01));
#1303=CARTESIAN_POINT('',(-0.04595625,0.00379625,0.01));
#1304=CARTESIAN_POINT('',(-0.04595625,0.00379625,0.013));
#1305=CARTESIAN_POINT('',(-0.04595625,0.00379625,0.013));
#1306=CARTESIAN_POINT('',(-0.04043125,0.00379625,0.013));
#1307=CARTESIAN_POINT('',(-0.04595625,0.00422125,0.013));
#1308=CARTESIAN_POINT('',(-0.04595625,0.00422125,0.01));
#1309=CARTESIAN_POINT('',(-0.04638125,0.00422125,0.01));
#1310=CARTESIAN_POINT('',(-0.04638125,0.00422125,0.013));
#1311=CARTESIAN_POINT('',(-0.04638125,0.00422125,0.013));
#1312=CARTESIAN_POINT('',(-0.04595625,0.00422125,0.013));
#1313=CARTESIAN_POINT('',(-0.06214875,0.01527125,0.013));
#1314=CARTESIAN_POINT('',(-0.06214875,0.01527125,0.01));
#1315=CARTESIAN_POINT('',(-0.06214875,0.01569625,0.01));
#1316=CARTESIAN_POINT('',(-0.06257375,0.01527125,0.01));
#1317=CARTESIAN_POINT('',(-0.06214875,0.01569625,0.013));
#1318=CARTESIAN_POINT('',(-0.06214875,0.01569625,0.013));
#1319=CARTESIAN_POINT('',(-0.06214875,0.01527125,0.013));
#1320=CARTESIAN_POINT('',(-0.06257375,0.01527125,0.013));
#1321=CARTESIAN_POINT('',(-0.06257375,0.01527125,0.013));
#1322=CARTESIAN_POINT('',(-0.05662375,0.01569625,0.013));
#1323=CARTESIAN_POINT('',(-0.05662375,0.01569625,0.01));
#1324=CARTESIAN_POINT('',(-0.05109875,0.01569625,0.01));
#1325=CARTESIAN_POINT('',(-0.05109875,0.01569625,0.013));
#1326=CARTESIAN_POINT('',(-0.05109875,0.01569625,0.013));
#1327=CARTESIAN_POINT('',(-0.05662375,0.01569625,0.013));
#1328=CARTESIAN_POINT('',(-0.05109875,0.01527125,0.013));
#1329=CARTESIAN_POINT('',(-0.05109875,0.01527125,0.01));
#1330=CARTESIAN_POINT('',(-0.05067375,0.01527125,0.01));
#1331=CARTESIAN_POINT('',(-0.05067375,0.01527125,0.013));
#1332=CARTESIAN_POINT('',(-0.05067375,0.01527125,0.013));
#1333=CARTESIAN_POINT('',(-0.05109875,0.01527125,0.013));
#1334=CARTESIAN_POINT('',(-0.05067375,0.00974625,0.013));
#1335=CARTESIAN_POINT('',(-0.05067375,0.00974625,0.01));
#1336=CARTESIAN_POINT('',(-0.05067375,0.00422125,0.01));
#1337=CARTESIAN_POINT('',(-0.05067375,0.00422125,0.013));
#1338=CARTESIAN_POINT('',(-0.05067375,0.00422125,0.013));
#1339=CARTESIAN_POINT('',(-0.05067375,0.00974625,0.013));
#1340=CARTESIAN_POINT('',(-0.05109875,0.00422125,0.013));
#1341=CARTESIAN_POINT('',(-0.05109875,0.00422125,0.01));
#1342=CARTESIAN_POINT('',(-0.05109875,0.00379625,0.01));
#1343=CARTESIAN_POINT('',(-0.05109875,0.00379625,0.013));
#1344=CARTESIAN_POINT('',(-0.05109875,0.00379625,0.013));
#1345=CARTESIAN_POINT('',(-0.05109875,0.00422125,0.013));
#1346=CARTESIAN_POINT('',(-0.05662375,0.00379625,0.013));
#1347=CARTESIAN_POINT('',(-0.05662375,0.00379625,0.01));
#1348=CARTESIAN_POINT('',(-0.06214875,0.00379625,0.01));
#1349=CARTESIAN_POINT('',(-0.06214875,0.00379625,0.013));
#1350=CARTESIAN_POINT('',(-0.06214875,0.00379625,0.013));
#1351=CARTESIAN_POINT('',(-0.05662375,0.00379625,0.013));
#1352=CARTESIAN_POINT('',(-0.06214875,0.00422125,0.013));
#1353=CARTESIAN_POINT('',(-0.06214875,0.00422125,0.01));
#1354=CARTESIAN_POINT('',(-0.06257375,0.00422125,0.01));
#1355=CARTESIAN_POINT('',(-0.06257375,0.00422125,0.013));
#1356=CARTESIAN_POINT('',(-0.06257375,0.00422125,0.013));
#1357=CARTESIAN_POINT('',(-0.06214875,0.00422125,0.013));
#1358=CARTESIAN_POINT('',(-0.07472,0.02695,0.013));
#1359=CARTESIAN_POINT('',(-0.07472,0.02695,0.01));
#1360=CARTESIAN_POINT('',(-0.07472,-0.01,0.01));
#1361=CARTESIAN_POINT('',(-0.07472,0.02945,0.01));
#1362=CARTESIAN_POINT('',(-0.07472,-0.01,0.013));
#1363=CARTESIAN_POINT('',(-0.07472,-0.01,0.013));
#1364=CARTESIAN_POINT('',(-0.07472,0.02695,0.013));
#1365=CARTESIAN_POINT('',(-0.07472,0.02945,0.013));
#1366=CARTESIAN_POINT('',(-0.07472,0.02945,0.013));
#1367=CARTESIAN_POINT('',(-0.03236,-0.01,0.013));
#1368=CARTESIAN_POINT('',(-0.03236,-0.01,0.01));
#1369=CARTESIAN_POINT('',(0.01,-0.01,0.01));
#1370=CARTESIAN_POINT('',(0.01,-0.01,0.013));
#1371=CARTESIAN_POINT('',(0.01,-0.01,0.013));
#1372=CARTESIAN_POINT('',(-0.03236,-0.01,0.013));
#1373=CARTESIAN_POINT('',(0.01,0.009725,0.013));
#1374=CARTESIAN_POINT('',(0.01,0.009725,0.01));
#1375=CARTESIAN_POINT('',(0.01,0.02945,0.01));
#1376=CARTESIAN_POINT('',(0.01,0.02945,0.013));
#1377=CARTESIAN_POINT('',(0.01,0.02945,0.013));
#1378=CARTESIAN_POINT('',(0.01,0.009725,0.013));
#1379=CARTESIAN_POINT('',(-0.03018875,0.00974625,0.013));
#1380=CARTESIAN_POINT('',(-0.03018875,0.00974625,0.01));
#1381=CARTESIAN_POINT('',(-0.03018875,0.00974625,0.013));
#1382=CARTESIAN_POINT('',(-0.04638125,0.00974625,0.013));
#1383=CARTESIAN_POINT('',(-0.04638125,0.00974625,0.01));
#1384=CARTESIAN_POINT('',(-0.04638125,0.00974625,0.013));
#1385=CARTESIAN_POINT('',(-0.06257375,0.00974625,0.013));
#1386=CARTESIAN_POINT('',(-0.06257375,0.00974625,0.01));
#1387=CARTESIAN_POINT('',(-0.06257375,0.00974625,0.013));
#1388=CARTESIAN_POINT('',(-0.06972,-0.005,0.013));
#1389=CARTESIAN_POINT('',(-0.06972,-0.005,0.013));
#1390=CARTESIAN_POINT('',(-0.06827,-0.005,0.013));
#1391=CARTESIAN_POINT('',(-0.06972,-0.005,0.01));
#1392=CARTESIAN_POINT('',(-0.06827,-0.005,0.01));
#1393=CARTESIAN_POINT('',(0.005,-0.005,0.013));
#1394=CARTESIAN_POINT('',(0.005,-0.005,0.013));
#1395=CARTESIAN_POINT('',(0.00645,-0.005,0.013));
#1396=CARTESIAN_POINT('',(0.005,-0.005,0.01));
#1397=CARTESIAN_POINT('',(0.00645,-0.005,0.01));
#1398=CARTESIAN_POINT('',(0.005,0.02445,0.013));
#1399=CARTESIAN_POINT('',(0.005,0.02445,0.013));
#1400=CARTESIAN_POINT('',(0.00645,0.02445,0.013));
#1401=CARTESIAN_POINT('',(0.005,0.02445,0.01));
#1402=CARTESIAN_POINT('',(0.00645,0.02445,0.01));
#1403=CARTESIAN_POINT('',(-0.06972,0.02445,0.013));
#1404=CARTESIAN_POINT('',(-0.06972,0.02445,0.013));
#1405=CARTESIAN_POINT('',(-0.06827,0.02445,0.013));
#1406=CARTESIAN_POINT('',(-0.06972,0.02445,0.01));
#1407=CARTESIAN_POINT('',(-0.06827,0.02445,0.01));
#1408=CARTESIAN_POINT('',(-0.02986,0.02945,0.013));
#1409=CARTESIAN_POINT('',(-0.02986,0.02945,0.01));
#1410=CARTESIAN_POINT('',(-0.02986,0.02945,0.013));
#1411=CARTESIAN_POINT('',(-0.01399625,0.00974625,0.013));
#1412=CARTESIAN_POINT('',(-0.01399625,0.00974625,0.01));
#1413=CARTESIAN_POINT('',(-0.01399625,0.00974625,0.013));
#1414=CARTESIAN_POINT('',(-0.03236,0.009725,0.013));
#1415=CARTESIAN_POINT('',(-0.03236,0.009725,0.01));
#1416=MECHANICAL_DESIGN_GEOMETRIC_PRESENTATION_REPRESENTATION('',(#841),
#1417);
#1417=(
GEOMETRIC_REPRESENTATION_CONTEXT(3)
GLOBAL_UNCERTAINTY_ASSIGNED_CONTEXT((#1418))
GLOBAL_UNIT_ASSIGNED_CONTEXT((#1421,#1420,#1419))
REPRESENTATION_CONTEXT('Top','TOP_LEVEL_ASSEMBLY_PART')
);
#1418=UNCERTAINTY_MEASURE_WITH_UNIT(LENGTH_MEASURE(1.E-8),#1421,
'DISTANCE_ACCURACY_VALUE','Maximum Tolerance applied to model');
#1419=(
NAMED_UNIT(*)
SI_UNIT($,.STERADIAN.)
SOLID_ANGLE_UNIT()
);
#1420=(
NAMED_UNIT(*)
PLANE_ANGLE_UNIT()
SI_UNIT($,.RADIAN.)
);
#1421=(
LENGTH_UNIT()
NAMED_UNIT(*)
SI_UNIT($,.METRE.)
);
#1422=PRODUCT_DEFINITION_SHAPE('','',#1423);
#1423=PRODUCT_DEFINITION('','',#1425,#1424);
#1424=PRODUCT_DEFINITION_CONTEXT('',#1431,'design');
#1425=PRODUCT_DEFINITION_FORMATION_WITH_SPECIFIED_SOURCE('','',#1427,
 .NOT_KNOWN.);
#1426=PRODUCT_RELATED_PRODUCT_CATEGORY('','',(#1427));
#1427=PRODUCT('Top','Top','Top',(#1429));
#1428=PRODUCT_CATEGORY('','');
#1429=PRODUCT_CONTEXT('',#1431,'mechanical');
#1430=APPLICATION_PROTOCOL_DEFINITION('international standard',
'ap242_managed_model_based_3d_engineering',2020,#1431);
#1431=APPLICATION_CONTEXT('managed model based 3d engineering');
ENDSEC;
END-ISO-10303-21;
