ISO-10303-21;
HEADER;
/* Generated by software containing ST-Developer
 * from STEP Tools, Inc. (www.steptools.com) 
 */
/* OPTION: using custom renumber hook */

FILE_DESCRIPTION(
/* description */ ('STEP AP242 Edition 2',
'CAx-IF Rec.Pracs.---Representation and Presentation of Product Manufa
cturing Information (PMI)---4.0---2014-10-13',
'CAx-IF Rec.Pracs.---3D Tessellated Geometry---0.4---2014-09-14','2;1',
'CAx-IF Rec.Pracs.---User Defined Attributes---1.5---2016-08-15'),
/* implementation_level */ '2;1');

FILE_NAME(
/* name */ 'assembled-model',
/* time_stamp */ '2026-06-04T23:14:40Z',
/* author */ (''),
/* organization */ (''),
/* preprocessor_version */ 'ST-DEVELOPER v20',
/* originating_system */ 'ONSHAPE BY PTC INC, 1.215',
/* authorisation */ '  ');

FILE_SCHEMA (('AP242_MANAGED_MODEL_BASED_3D_ENGINEERING_MIM_LF { 1 0 10303 442 3 1 4 }'));
ENDSEC;

DATA;
#10=COLOUR_RGB('',0.552941176470588,0.250980392156863,1.);
#11=SHAPE_REPRESENTATION_RELATIONSHIP('','',#1204,#13);
#12=SHAPE_REPRESENTATION_RELATIONSHIP('','',#1205,#14);
#13=ADVANCED_BREP_SHAPE_REPRESENTATION('',(#1200),#1984);
#14=ADVANCED_BREP_SHAPE_REPRESENTATION('',(#1201),#1985);
#15=PLANE('',#1210);
#16=PLANE('',#1214);
#17=PLANE('',#1218);
#18=PLANE('',#1225);
#19=PLANE('',#1229);
#20=PLANE('',#1233);
#21=PLANE('',#1240);
#22=PLANE('',#1244);
#23=PLANE('',#1248);
#24=PLANE('',#1255);
#25=PLANE('',#1259);
#26=PLANE('',#1263);
#27=PLANE('',#1267);
#28=PLANE('',#1268);
#29=PLANE('',#1269);
#30=PLANE('',#1270);
#31=PLANE('',#1271);
#32=PLANE('',#1272);
#33=PLANE('',#1285);
#34=PLANE('',#1286);
#35=PLANE('',#1287);
#36=PLANE('',#1288);
#37=PLANE('',#1290);
#38=PLANE('',#1295);
#39=PLANE('',#1296);
#40=PLANE('',#1297);
#41=PLANE('',#1298);
#42=PLANE('',#1299);
#43=PLANE('',#1300);
#44=PLANE('',#1309);
#45=PLANE('',#1310);
#46=PLANE('',#1311);
#47=PLANE('',#1312);
#48=PLANE('',#1313);
#49=PLANE('',#1314);
#50=PLANE('',#1315);
#51=LINE('',#1653,#163);
#52=LINE('',#1657,#164);
#53=LINE('',#1659,#165);
#54=LINE('',#1661,#166);
#55=LINE('',#1663,#167);
#56=LINE('',#1667,#168);
#57=LINE('',#1671,#169);
#58=LINE('',#1673,#170);
#59=LINE('',#1675,#171);
#60=LINE('',#1679,#172);
#61=LINE('',#1683,#173);
#62=LINE('',#1685,#174);
#63=LINE('',#1687,#175);
#64=LINE('',#1691,#176);
#65=LINE('',#1698,#177);
#66=LINE('',#1702,#178);
#67=LINE('',#1704,#179);
#68=LINE('',#1706,#180);
#69=LINE('',#1708,#181);
#70=LINE('',#1712,#182);
#71=LINE('',#1716,#183);
#72=LINE('',#1718,#184);
#73=LINE('',#1720,#185);
#74=LINE('',#1724,#186);
#75=LINE('',#1728,#187);
#76=LINE('',#1730,#188);
#77=LINE('',#1732,#189);
#78=LINE('',#1736,#190);
#79=LINE('',#1743,#191);
#80=LINE('',#1747,#192);
#81=LINE('',#1749,#193);
#82=LINE('',#1751,#194);
#83=LINE('',#1753,#195);
#84=LINE('',#1757,#196);
#85=LINE('',#1761,#197);
#86=LINE('',#1763,#198);
#87=LINE('',#1765,#199);
#88=LINE('',#1769,#200);
#89=LINE('',#1773,#201);
#90=LINE('',#1775,#202);
#91=LINE('',#1777,#203);
#92=LINE('',#1781,#204);
#93=LINE('',#1788,#205);
#94=LINE('',#1792,#206);
#95=LINE('',#1794,#207);
#96=LINE('',#1796,#208);
#97=LINE('',#1798,#209);
#98=LINE('',#1802,#210);
#99=LINE('',#1806,#211);
#100=LINE('',#1808,#212);
#101=LINE('',#1810,#213);
#102=LINE('',#1814,#214);
#103=LINE('',#1818,#215);
#104=LINE('',#1820,#216);
#105=LINE('',#1822,#217);
#106=LINE('',#1826,#218);
#107=LINE('',#1830,#219);
#108=LINE('',#1833,#220);
#109=LINE('',#1835,#221);
#110=LINE('',#1837,#222);
#111=LINE('',#1839,#223);
#112=LINE('',#1841,#224);
#113=LINE('',#1843,#225);
#114=LINE('',#1845,#226);
#115=LINE('',#1847,#227);
#116=LINE('',#1849,#228);
#117=LINE('',#1851,#229);
#118=LINE('',#1852,#230);
#119=LINE('',#1854,#231);
#120=LINE('',#1855,#232);
#121=LINE('',#1857,#233);
#122=LINE('',#1858,#234);
#123=LINE('',#1880,#235);
#124=LINE('',#1881,#236);
#125=LINE('',#1883,#237);
#126=LINE('',#1884,#238);
#127=LINE('',#1897,#239);
#128=LINE('',#1900,#240);
#129=LINE('',#1902,#241);
#130=LINE('',#1904,#242);
#131=LINE('',#1906,#243);
#132=LINE('',#1908,#244);
#133=LINE('',#1910,#245);
#134=LINE('',#1912,#246);
#135=LINE('',#1914,#247);
#136=LINE('',#1916,#248);
#137=LINE('',#1918,#249);
#138=LINE('',#1920,#250);
#139=LINE('',#1922,#251);
#140=LINE('',#1924,#252);
#141=LINE('',#1926,#253);
#142=LINE('',#1928,#254);
#143=LINE('',#1929,#255);
#144=LINE('',#1931,#256);
#145=LINE('',#1933,#257);
#146=LINE('',#1935,#258);
#147=LINE('',#1937,#259);
#148=LINE('',#1939,#260);
#149=LINE('',#1941,#261);
#150=LINE('',#1943,#262);
#151=LINE('',#1945,#263);
#152=LINE('',#1947,#264);
#153=LINE('',#1948,#265);
#154=LINE('',#1950,#266);
#155=LINE('',#1952,#267);
#156=LINE('',#1954,#268);
#157=LINE('',#1956,#269);
#158=LINE('',#1958,#270);
#159=LINE('',#1972,#271);
#160=LINE('',#1974,#272);
#161=LINE('',#1978,#273);
#162=LINE('',#1980,#274);
#163=VECTOR('',#1322,1.);
#164=VECTOR('',#1325,1.);
#165=VECTOR('',#1328,1.);
#166=VECTOR('',#1329,1.);
#167=VECTOR('',#1330,1.);
#168=VECTOR('',#1335,1.);
#169=VECTOR('',#1340,1.);
#170=VECTOR('',#1341,1.);
#171=VECTOR('',#1342,1.);
#172=VECTOR('',#1347,1.);
#173=VECTOR('',#1352,1.);
#174=VECTOR('',#1353,1.);
#175=VECTOR('',#1354,1.);
#176=VECTOR('',#1359,1.);
#177=VECTOR('',#1366,1.);
#178=VECTOR('',#1369,1.);
#179=VECTOR('',#1372,1.);
#180=VECTOR('',#1373,1.);
#181=VECTOR('',#1374,1.);
#182=VECTOR('',#1379,1.);
#183=VECTOR('',#1384,1.);
#184=VECTOR('',#1385,1.);
#185=VECTOR('',#1386,1.);
#186=VECTOR('',#1391,1.);
#187=VECTOR('',#1396,1.);
#188=VECTOR('',#1397,1.);
#189=VECTOR('',#1398,1.);
#190=VECTOR('',#1403,1.);
#191=VECTOR('',#1410,1.);
#192=VECTOR('',#1413,1.);
#193=VECTOR('',#1416,1.);
#194=VECTOR('',#1417,1.);
#195=VECTOR('',#1418,1.);
#196=VECTOR('',#1423,1.);
#197=VECTOR('',#1428,1.);
#198=VECTOR('',#1429,1.);
#199=VECTOR('',#1430,1.);
#200=VECTOR('',#1435,1.);
#201=VECTOR('',#1440,1.);
#202=VECTOR('',#1441,1.);
#203=VECTOR('',#1442,1.);
#204=VECTOR('',#1447,1.);
#205=VECTOR('',#1454,1.);
#206=VECTOR('',#1457,1.);
#207=VECTOR('',#1460,1.);
#208=VECTOR('',#1461,1.);
#209=VECTOR('',#1462,1.);
#210=VECTOR('',#1467,1.);
#211=VECTOR('',#1472,1.);
#212=VECTOR('',#1473,1.);
#213=VECTOR('',#1474,1.);
#214=VECTOR('',#1479,1.);
#215=VECTOR('',#1484,1.);
#216=VECTOR('',#1485,1.);
#217=VECTOR('',#1486,1.);
#218=VECTOR('',#1491,1.);
#219=VECTOR('',#1496,1.);
#220=VECTOR('',#1497,1.);
#221=VECTOR('',#1498,1.);
#222=VECTOR('',#1499,1.);
#223=VECTOR('',#1502,1.);
#224=VECTOR('',#1503,1.);
#225=VECTOR('',#1504,1.);
#226=VECTOR('',#1507,1.);
#227=VECTOR('',#1508,1.);
#228=VECTOR('',#1509,1.);
#229=VECTOR('',#1512,1.);
#230=VECTOR('',#1513,1.);
#231=VECTOR('',#1516,1.);
#232=VECTOR('',#1517,1.);
#233=VECTOR('',#1520,1.);
#234=VECTOR('',#1521,1.);
#235=VECTOR('',#1548,1.);
#236=VECTOR('',#1549,1.);
#237=VECTOR('',#1552,1.);
#238=VECTOR('',#1553,1.);
#239=VECTOR('',#1570,1.);
#240=VECTOR('',#1571,1.);
#241=VECTOR('',#1572,1.);
#242=VECTOR('',#1573,1.);
#243=VECTOR('',#1574,1.);
#244=VECTOR('',#1575,1.);
#245=VECTOR('',#1576,1.);
#246=VECTOR('',#1577,1.);
#247=VECTOR('',#1578,1.);
#248=VECTOR('',#1579,1.);
#249=VECTOR('',#1580,1.);
#250=VECTOR('',#1581,1.);
#251=VECTOR('',#1584,1.);
#252=VECTOR('',#1585,1.);
#253=VECTOR('',#1586,1.);
#254=VECTOR('',#1587,1.);
#255=VECTOR('',#1588,1.);
#256=VECTOR('',#1589,1.);
#257=VECTOR('',#1592,1.);
#258=VECTOR('',#1593,1.);
#259=VECTOR('',#1596,1.);
#260=VECTOR('',#1597,1.);
#261=VECTOR('',#1600,1.);
#262=VECTOR('',#1601,1.);
#263=VECTOR('',#1602,1.);
#264=VECTOR('',#1603,1.);
#265=VECTOR('',#1604,1.);
#266=VECTOR('',#1605,1.);
#267=VECTOR('',#1608,1.);
#268=VECTOR('',#1609,1.);
#269=VECTOR('',#1612,1.);
#270=VECTOR('',#1613,1.);
#271=VECTOR('',#1632,1.);
#272=VECTOR('',#1635,1.);
#273=VECTOR('',#1642,1.);
#274=VECTOR('',#1645,1.);
#275=ORIENTED_EDGE('',*,*,#595,.F.);
#276=ORIENTED_EDGE('',*,*,#596,.F.);
#277=ORIENTED_EDGE('',*,*,#597,.T.);
#278=ORIENTED_EDGE('',*,*,#598,.T.);
#279=ORIENTED_EDGE('',*,*,#599,.T.);
#280=ORIENTED_EDGE('',*,*,#600,.F.);
#281=ORIENTED_EDGE('',*,*,#601,.F.);
#282=ORIENTED_EDGE('',*,*,#596,.T.);
#283=ORIENTED_EDGE('',*,*,#602,.F.);
#284=ORIENTED_EDGE('',*,*,#603,.F.);
#285=ORIENTED_EDGE('',*,*,#604,.T.);
#286=ORIENTED_EDGE('',*,*,#600,.T.);
#287=ORIENTED_EDGE('',*,*,#605,.T.);
#288=ORIENTED_EDGE('',*,*,#606,.F.);
#289=ORIENTED_EDGE('',*,*,#607,.F.);
#290=ORIENTED_EDGE('',*,*,#603,.T.);
#291=ORIENTED_EDGE('',*,*,#608,.F.);
#292=ORIENTED_EDGE('',*,*,#609,.F.);
#293=ORIENTED_EDGE('',*,*,#610,.T.);
#294=ORIENTED_EDGE('',*,*,#606,.T.);
#295=ORIENTED_EDGE('',*,*,#611,.F.);
#296=ORIENTED_EDGE('',*,*,#612,.F.);
#297=ORIENTED_EDGE('',*,*,#613,.T.);
#298=ORIENTED_EDGE('',*,*,#609,.T.);
#299=ORIENTED_EDGE('',*,*,#614,.F.);
#300=ORIENTED_EDGE('',*,*,#615,.F.);
#301=ORIENTED_EDGE('',*,*,#616,.T.);
#302=ORIENTED_EDGE('',*,*,#612,.T.);
#303=ORIENTED_EDGE('',*,*,#617,.F.);
#304=ORIENTED_EDGE('',*,*,#618,.F.);
#305=ORIENTED_EDGE('',*,*,#619,.T.);
#306=ORIENTED_EDGE('',*,*,#620,.T.);
#307=ORIENTED_EDGE('',*,*,#621,.T.);
#308=ORIENTED_EDGE('',*,*,#622,.F.);
#309=ORIENTED_EDGE('',*,*,#623,.F.);
#310=ORIENTED_EDGE('',*,*,#618,.T.);
#311=ORIENTED_EDGE('',*,*,#624,.F.);
#312=ORIENTED_EDGE('',*,*,#625,.F.);
#313=ORIENTED_EDGE('',*,*,#626,.T.);
#314=ORIENTED_EDGE('',*,*,#622,.T.);
#315=ORIENTED_EDGE('',*,*,#627,.T.);
#316=ORIENTED_EDGE('',*,*,#628,.F.);
#317=ORIENTED_EDGE('',*,*,#629,.F.);
#318=ORIENTED_EDGE('',*,*,#625,.T.);
#319=ORIENTED_EDGE('',*,*,#630,.F.);
#320=ORIENTED_EDGE('',*,*,#631,.F.);
#321=ORIENTED_EDGE('',*,*,#632,.T.);
#322=ORIENTED_EDGE('',*,*,#628,.T.);
#323=ORIENTED_EDGE('',*,*,#633,.F.);
#324=ORIENTED_EDGE('',*,*,#634,.F.);
#325=ORIENTED_EDGE('',*,*,#635,.T.);
#326=ORIENTED_EDGE('',*,*,#631,.T.);
#327=ORIENTED_EDGE('',*,*,#636,.F.);
#328=ORIENTED_EDGE('',*,*,#637,.F.);
#329=ORIENTED_EDGE('',*,*,#638,.T.);
#330=ORIENTED_EDGE('',*,*,#634,.T.);
#331=ORIENTED_EDGE('',*,*,#639,.F.);
#332=ORIENTED_EDGE('',*,*,#640,.F.);
#333=ORIENTED_EDGE('',*,*,#641,.T.);
#334=ORIENTED_EDGE('',*,*,#642,.T.);
#335=ORIENTED_EDGE('',*,*,#643,.T.);
#336=ORIENTED_EDGE('',*,*,#644,.F.);
#337=ORIENTED_EDGE('',*,*,#645,.F.);
#338=ORIENTED_EDGE('',*,*,#640,.T.);
#339=ORIENTED_EDGE('',*,*,#646,.F.);
#340=ORIENTED_EDGE('',*,*,#647,.F.);
#341=ORIENTED_EDGE('',*,*,#648,.T.);
#342=ORIENTED_EDGE('',*,*,#644,.T.);
#343=ORIENTED_EDGE('',*,*,#649,.T.);
#344=ORIENTED_EDGE('',*,*,#650,.F.);
#345=ORIENTED_EDGE('',*,*,#651,.F.);
#346=ORIENTED_EDGE('',*,*,#647,.T.);
#347=ORIENTED_EDGE('',*,*,#652,.F.);
#348=ORIENTED_EDGE('',*,*,#653,.F.);
#349=ORIENTED_EDGE('',*,*,#654,.T.);
#350=ORIENTED_EDGE('',*,*,#650,.T.);
#351=ORIENTED_EDGE('',*,*,#655,.F.);
#352=ORIENTED_EDGE('',*,*,#656,.F.);
#353=ORIENTED_EDGE('',*,*,#657,.T.);
#354=ORIENTED_EDGE('',*,*,#653,.T.);
#355=ORIENTED_EDGE('',*,*,#658,.F.);
#356=ORIENTED_EDGE('',*,*,#659,.F.);
#357=ORIENTED_EDGE('',*,*,#660,.T.);
#358=ORIENTED_EDGE('',*,*,#656,.T.);
#359=ORIENTED_EDGE('',*,*,#661,.F.);
#360=ORIENTED_EDGE('',*,*,#662,.F.);
#361=ORIENTED_EDGE('',*,*,#663,.T.);
#362=ORIENTED_EDGE('',*,*,#664,.T.);
#363=ORIENTED_EDGE('',*,*,#665,.T.);
#364=ORIENTED_EDGE('',*,*,#666,.F.);
#365=ORIENTED_EDGE('',*,*,#667,.F.);
#366=ORIENTED_EDGE('',*,*,#662,.T.);
#367=ORIENTED_EDGE('',*,*,#668,.F.);
#368=ORIENTED_EDGE('',*,*,#669,.F.);
#369=ORIENTED_EDGE('',*,*,#670,.T.);
#370=ORIENTED_EDGE('',*,*,#666,.T.);
#371=ORIENTED_EDGE('',*,*,#671,.T.);
#372=ORIENTED_EDGE('',*,*,#672,.F.);
#373=ORIENTED_EDGE('',*,*,#673,.F.);
#374=ORIENTED_EDGE('',*,*,#669,.T.);
#375=ORIENTED_EDGE('',*,*,#674,.F.);
#376=ORIENTED_EDGE('',*,*,#675,.F.);
#377=ORIENTED_EDGE('',*,*,#676,.T.);
#378=ORIENTED_EDGE('',*,*,#672,.T.);
#379=ORIENTED_EDGE('',*,*,#677,.F.);
#380=ORIENTED_EDGE('',*,*,#678,.F.);
#381=ORIENTED_EDGE('',*,*,#679,.T.);
#382=ORIENTED_EDGE('',*,*,#675,.T.);
#383=ORIENTED_EDGE('',*,*,#680,.F.);
#384=ORIENTED_EDGE('',*,*,#681,.F.);
#385=ORIENTED_EDGE('',*,*,#682,.T.);
#386=ORIENTED_EDGE('',*,*,#678,.T.);
#387=ORIENTED_EDGE('',*,*,#683,.F.);
#388=ORIENTED_EDGE('',*,*,#684,.F.);
#389=ORIENTED_EDGE('',*,*,#685,.T.);
#390=ORIENTED_EDGE('',*,*,#686,.T.);
#391=ORIENTED_EDGE('',*,*,#687,.F.);
#392=ORIENTED_EDGE('',*,*,#688,.F.);
#393=ORIENTED_EDGE('',*,*,#689,.T.);
#394=ORIENTED_EDGE('',*,*,#684,.T.);
#395=ORIENTED_EDGE('',*,*,#690,.T.);
#396=ORIENTED_EDGE('',*,*,#691,.F.);
#397=ORIENTED_EDGE('',*,*,#692,.F.);
#398=ORIENTED_EDGE('',*,*,#688,.T.);
#399=ORIENTED_EDGE('',*,*,#693,.F.);
#400=ORIENTED_EDGE('',*,*,#620,.F.);
#401=ORIENTED_EDGE('',*,*,#694,.T.);
#402=ORIENTED_EDGE('',*,*,#637,.T.);
#403=ORIENTED_EDGE('',*,*,#695,.F.);
#404=ORIENTED_EDGE('',*,*,#642,.F.);
#405=ORIENTED_EDGE('',*,*,#696,.T.);
#406=ORIENTED_EDGE('',*,*,#659,.T.);
#407=ORIENTED_EDGE('',*,*,#697,.F.);
#408=ORIENTED_EDGE('',*,*,#664,.F.);
#409=ORIENTED_EDGE('',*,*,#698,.T.);
#410=ORIENTED_EDGE('',*,*,#681,.T.);
#411=ORIENTED_EDGE('',*,*,#699,.F.);
#412=ORIENTED_EDGE('',*,*,#700,.T.);
#413=ORIENTED_EDGE('',*,*,#701,.T.);
#414=ORIENTED_EDGE('',*,*,#702,.F.);
#415=ORIENTED_EDGE('',*,*,#703,.F.);
#416=ORIENTED_EDGE('',*,*,#704,.T.);
#417=ORIENTED_EDGE('',*,*,#705,.T.);
#418=ORIENTED_EDGE('',*,*,#706,.F.);
#419=ORIENTED_EDGE('',*,*,#707,.T.);
#420=ORIENTED_EDGE('',*,*,#686,.F.);
#421=ORIENTED_EDGE('',*,*,#708,.F.);
#422=ORIENTED_EDGE('',*,*,#691,.T.);
#423=ORIENTED_EDGE('',*,*,#709,.F.);
#424=ORIENTED_EDGE('',*,*,#598,.F.);
#425=ORIENTED_EDGE('',*,*,#710,.T.);
#426=ORIENTED_EDGE('',*,*,#615,.T.);
#427=ORIENTED_EDGE('',*,*,#685,.F.);
#428=ORIENTED_EDGE('',*,*,#689,.F.);
#429=ORIENTED_EDGE('',*,*,#692,.T.);
#430=ORIENTED_EDGE('',*,*,#708,.T.);
#431=ORIENTED_EDGE('',*,*,#705,.F.);
#432=ORIENTED_EDGE('',*,*,#703,.T.);
#433=ORIENTED_EDGE('',*,*,#701,.F.);
#434=ORIENTED_EDGE('',*,*,#699,.T.);
#435=ORIENTED_EDGE('',*,*,#663,.F.);
#436=ORIENTED_EDGE('',*,*,#667,.T.);
#437=ORIENTED_EDGE('',*,*,#670,.F.);
#438=ORIENTED_EDGE('',*,*,#673,.T.);
#439=ORIENTED_EDGE('',*,*,#676,.F.);
#440=ORIENTED_EDGE('',*,*,#679,.F.);
#441=ORIENTED_EDGE('',*,*,#682,.F.);
#442=ORIENTED_EDGE('',*,*,#698,.F.);
#443=ORIENTED_EDGE('',*,*,#641,.F.);
#444=ORIENTED_EDGE('',*,*,#645,.T.);
#445=ORIENTED_EDGE('',*,*,#648,.F.);
#446=ORIENTED_EDGE('',*,*,#651,.T.);
#447=ORIENTED_EDGE('',*,*,#654,.F.);
#448=ORIENTED_EDGE('',*,*,#657,.F.);
#449=ORIENTED_EDGE('',*,*,#660,.F.);
#450=ORIENTED_EDGE('',*,*,#696,.F.);
#451=ORIENTED_EDGE('',*,*,#619,.F.);
#452=ORIENTED_EDGE('',*,*,#623,.T.);
#453=ORIENTED_EDGE('',*,*,#626,.F.);
#454=ORIENTED_EDGE('',*,*,#629,.T.);
#455=ORIENTED_EDGE('',*,*,#632,.F.);
#456=ORIENTED_EDGE('',*,*,#635,.F.);
#457=ORIENTED_EDGE('',*,*,#638,.F.);
#458=ORIENTED_EDGE('',*,*,#694,.F.);
#459=ORIENTED_EDGE('',*,*,#597,.F.);
#460=ORIENTED_EDGE('',*,*,#601,.T.);
#461=ORIENTED_EDGE('',*,*,#604,.F.);
#462=ORIENTED_EDGE('',*,*,#607,.T.);
#463=ORIENTED_EDGE('',*,*,#610,.F.);
#464=ORIENTED_EDGE('',*,*,#613,.F.);
#465=ORIENTED_EDGE('',*,*,#616,.F.);
#466=ORIENTED_EDGE('',*,*,#710,.F.);
#467=ORIENTED_EDGE('',*,*,#683,.T.);
#468=ORIENTED_EDGE('',*,*,#707,.F.);
#469=ORIENTED_EDGE('',*,*,#690,.F.);
#470=ORIENTED_EDGE('',*,*,#687,.T.);
#471=ORIENTED_EDGE('',*,*,#706,.T.);
#472=ORIENTED_EDGE('',*,*,#704,.F.);
#473=ORIENTED_EDGE('',*,*,#702,.T.);
#474=ORIENTED_EDGE('',*,*,#700,.F.);
#475=ORIENTED_EDGE('',*,*,#661,.T.);
#476=ORIENTED_EDGE('',*,*,#697,.T.);
#477=ORIENTED_EDGE('',*,*,#680,.T.);
#478=ORIENTED_EDGE('',*,*,#677,.T.);
#479=ORIENTED_EDGE('',*,*,#674,.T.);
#480=ORIENTED_EDGE('',*,*,#671,.F.);
#481=ORIENTED_EDGE('',*,*,#668,.T.);
#482=ORIENTED_EDGE('',*,*,#665,.F.);
#483=ORIENTED_EDGE('',*,*,#639,.T.);
#484=ORIENTED_EDGE('',*,*,#695,.T.);
#485=ORIENTED_EDGE('',*,*,#658,.T.);
#486=ORIENTED_EDGE('',*,*,#655,.T.);
#487=ORIENTED_EDGE('',*,*,#652,.T.);
#488=ORIENTED_EDGE('',*,*,#649,.F.);
#489=ORIENTED_EDGE('',*,*,#646,.T.);
#490=ORIENTED_EDGE('',*,*,#643,.F.);
#491=ORIENTED_EDGE('',*,*,#617,.T.);
#492=ORIENTED_EDGE('',*,*,#693,.T.);
#493=ORIENTED_EDGE('',*,*,#636,.T.);
#494=ORIENTED_EDGE('',*,*,#633,.T.);
#495=ORIENTED_EDGE('',*,*,#630,.T.);
#496=ORIENTED_EDGE('',*,*,#627,.F.);
#497=ORIENTED_EDGE('',*,*,#624,.T.);
#498=ORIENTED_EDGE('',*,*,#621,.F.);
#499=ORIENTED_EDGE('',*,*,#595,.T.);
#500=ORIENTED_EDGE('',*,*,#709,.T.);
#501=ORIENTED_EDGE('',*,*,#614,.T.);
#502=ORIENTED_EDGE('',*,*,#611,.T.);
#503=ORIENTED_EDGE('',*,*,#608,.T.);
#504=ORIENTED_EDGE('',*,*,#605,.F.);
#505=ORIENTED_EDGE('',*,*,#602,.T.);
#506=ORIENTED_EDGE('',*,*,#599,.F.);
#507=ORIENTED_EDGE('',*,*,#711,.F.);
#508=ORIENTED_EDGE('',*,*,#712,.T.);
#509=ORIENTED_EDGE('',*,*,#713,.F.);
#510=ORIENTED_EDGE('',*,*,#714,.T.);
#511=ORIENTED_EDGE('',*,*,#715,.T.);
#512=ORIENTED_EDGE('',*,*,#716,.T.);
#513=ORIENTED_EDGE('',*,*,#717,.F.);
#514=ORIENTED_EDGE('',*,*,#718,.F.);
#515=ORIENTED_EDGE('',*,*,#719,.T.);
#516=ORIENTED_EDGE('',*,*,#720,.T.);
#517=ORIENTED_EDGE('',*,*,#721,.F.);
#518=ORIENTED_EDGE('',*,*,#722,.F.);
#519=ORIENTED_EDGE('',*,*,#723,.T.);
#520=ORIENTED_EDGE('',*,*,#724,.F.);
#521=ORIENTED_EDGE('',*,*,#725,.F.);
#522=ORIENTED_EDGE('',*,*,#726,.T.);
#523=ORIENTED_EDGE('',*,*,#727,.F.);
#524=ORIENTED_EDGE('',*,*,#715,.F.);
#525=ORIENTED_EDGE('',*,*,#728,.T.);
#526=ORIENTED_EDGE('',*,*,#729,.T.);
#527=ORIENTED_EDGE('',*,*,#730,.F.);
#528=ORIENTED_EDGE('',*,*,#723,.F.);
#529=ORIENTED_EDGE('',*,*,#731,.T.);
#530=ORIENTED_EDGE('',*,*,#732,.F.);
#531=ORIENTED_EDGE('',*,*,#733,.F.);
#532=ORIENTED_EDGE('',*,*,#734,.F.);
#533=ORIENTED_EDGE('',*,*,#724,.T.);
#534=ORIENTED_EDGE('',*,*,#730,.T.);
#535=ORIENTED_EDGE('',*,*,#735,.F.);
#536=ORIENTED_EDGE('',*,*,#736,.F.);
#537=ORIENTED_EDGE('',*,*,#725,.T.);
#538=ORIENTED_EDGE('',*,*,#734,.T.);
#539=ORIENTED_EDGE('',*,*,#737,.F.);
#540=ORIENTED_EDGE('',*,*,#721,.T.);
#541=ORIENTED_EDGE('',*,*,#738,.T.);
#542=ORIENTED_EDGE('',*,*,#739,.F.);
#543=ORIENTED_EDGE('',*,*,#740,.F.);
#544=ORIENTED_EDGE('',*,*,#717,.T.);
#545=ORIENTED_EDGE('',*,*,#741,.T.);
#546=ORIENTED_EDGE('',*,*,#742,.T.);
#547=ORIENTED_EDGE('',*,*,#740,.T.);
#548=ORIENTED_EDGE('',*,*,#743,.F.);
#549=ORIENTED_EDGE('',*,*,#744,.F.);
#550=ORIENTED_EDGE('',*,*,#718,.T.);
#551=ORIENTED_EDGE('',*,*,#744,.T.);
#552=ORIENTED_EDGE('',*,*,#745,.T.);
#553=ORIENTED_EDGE('',*,*,#746,.F.);
#554=ORIENTED_EDGE('',*,*,#719,.F.);
#555=ORIENTED_EDGE('',*,*,#714,.F.);
#556=ORIENTED_EDGE('',*,*,#747,.T.);
#557=ORIENTED_EDGE('',*,*,#713,.T.);
#558=ORIENTED_EDGE('',*,*,#748,.F.);
#559=ORIENTED_EDGE('',*,*,#712,.F.);
#560=ORIENTED_EDGE('',*,*,#749,.T.);
#561=ORIENTED_EDGE('',*,*,#711,.T.);
#562=ORIENTED_EDGE('',*,*,#750,.F.);
#563=ORIENTED_EDGE('',*,*,#746,.T.);
#564=ORIENTED_EDGE('',*,*,#751,.T.);
#565=ORIENTED_EDGE('',*,*,#738,.F.);
#566=ORIENTED_EDGE('',*,*,#720,.F.);
#567=ORIENTED_EDGE('',*,*,#752,.T.);
#568=ORIENTED_EDGE('',*,*,#728,.F.);
#569=ORIENTED_EDGE('',*,*,#726,.F.);
#570=ORIENTED_EDGE('',*,*,#736,.T.);
#571=ORIENTED_EDGE('',*,*,#729,.F.);
#572=ORIENTED_EDGE('',*,*,#752,.F.);
#573=ORIENTED_EDGE('',*,*,#735,.T.);
#574=ORIENTED_EDGE('',*,*,#733,.T.);
#575=ORIENTED_EDGE('',*,*,#739,.T.);
#576=ORIENTED_EDGE('',*,*,#751,.F.);
#577=ORIENTED_EDGE('',*,*,#745,.F.);
#578=ORIENTED_EDGE('',*,*,#743,.T.);
#579=ORIENTED_EDGE('',*,*,#750,.T.);
#580=ORIENTED_EDGE('',*,*,#749,.F.);
#581=ORIENTED_EDGE('',*,*,#748,.T.);
#582=ORIENTED_EDGE('',*,*,#747,.F.);
#583=ORIENTED_EDGE('',*,*,#737,.T.);
#584=ORIENTED_EDGE('',*,*,#753,.F.);
#585=ORIENTED_EDGE('',*,*,#731,.F.);
#586=ORIENTED_EDGE('',*,*,#722,.T.);
#587=ORIENTED_EDGE('',*,*,#742,.F.);
#588=ORIENTED_EDGE('',*,*,#754,.F.);
#589=ORIENTED_EDGE('',*,*,#732,.T.);
#590=ORIENTED_EDGE('',*,*,#753,.T.);
#591=ORIENTED_EDGE('',*,*,#741,.F.);
#592=ORIENTED_EDGE('',*,*,#716,.F.);
#593=ORIENTED_EDGE('',*,*,#727,.T.);
#594=ORIENTED_EDGE('',*,*,#754,.T.);
#595=EDGE_CURVE('',#755,#756,#867,.T.);
#596=EDGE_CURVE('',#757,#755,#51,.T.);
#597=EDGE_CURVE('',#757,#758,#868,.T.);
#598=EDGE_CURVE('',#758,#756,#52,.T.);
#599=EDGE_CURVE('',#755,#759,#53,.T.);
#600=EDGE_CURVE('',#760,#759,#54,.T.);
#601=EDGE_CURVE('',#757,#760,#55,.T.);
#602=EDGE_CURVE('',#761,#759,#869,.T.);
#603=EDGE_CURVE('',#762,#761,#56,.T.);
#604=EDGE_CURVE('',#762,#760,#870,.T.);
#605=EDGE_CURVE('',#761,#763,#57,.T.);
#606=EDGE_CURVE('',#764,#763,#58,.T.);
#607=EDGE_CURVE('',#762,#764,#59,.T.);
#608=EDGE_CURVE('',#765,#763,#871,.T.);
#609=EDGE_CURVE('',#766,#765,#60,.T.);
#610=EDGE_CURVE('',#766,#764,#872,.T.);
#611=EDGE_CURVE('',#767,#765,#61,.T.);
#612=EDGE_CURVE('',#768,#767,#62,.T.);
#613=EDGE_CURVE('',#768,#766,#63,.T.);
#614=EDGE_CURVE('',#769,#767,#873,.T.);
#615=EDGE_CURVE('',#770,#769,#64,.T.);
#616=EDGE_CURVE('',#770,#768,#874,.T.);
#617=EDGE_CURVE('',#771,#772,#875,.T.);
#618=EDGE_CURVE('',#773,#771,#65,.T.);
#619=EDGE_CURVE('',#773,#774,#876,.T.);
#620=EDGE_CURVE('',#774,#772,#66,.T.);
#621=EDGE_CURVE('',#771,#775,#67,.T.);
#622=EDGE_CURVE('',#776,#775,#68,.T.);
#623=EDGE_CURVE('',#773,#776,#69,.T.);
#624=EDGE_CURVE('',#777,#775,#877,.T.);
#625=EDGE_CURVE('',#778,#777,#70,.T.);
#626=EDGE_CURVE('',#778,#776,#878,.T.);
#627=EDGE_CURVE('',#777,#779,#71,.T.);
#628=EDGE_CURVE('',#780,#779,#72,.T.);
#629=EDGE_CURVE('',#778,#780,#73,.T.);
#630=EDGE_CURVE('',#781,#779,#879,.T.);
#631=EDGE_CURVE('',#782,#781,#74,.T.);
#632=EDGE_CURVE('',#782,#780,#880,.T.);
#633=EDGE_CURVE('',#783,#781,#75,.T.);
#634=EDGE_CURVE('',#784,#783,#76,.T.);
#635=EDGE_CURVE('',#784,#782,#77,.T.);
#636=EDGE_CURVE('',#785,#783,#881,.T.);
#637=EDGE_CURVE('',#786,#785,#78,.T.);
#638=EDGE_CURVE('',#786,#784,#882,.T.);
#639=EDGE_CURVE('',#787,#788,#883,.T.);
#640=EDGE_CURVE('',#789,#787,#79,.T.);
#641=EDGE_CURVE('',#789,#790,#884,.T.);
#642=EDGE_CURVE('',#790,#788,#80,.T.);
#643=EDGE_CURVE('',#787,#791,#81,.T.);
#644=EDGE_CURVE('',#792,#791,#82,.T.);
#645=EDGE_CURVE('',#789,#792,#83,.T.);
#646=EDGE_CURVE('',#793,#791,#885,.T.);
#647=EDGE_CURVE('',#794,#793,#84,.T.);
#648=EDGE_CURVE('',#794,#792,#886,.T.);
#649=EDGE_CURVE('',#793,#795,#85,.T.);
#650=EDGE_CURVE('',#796,#795,#86,.T.);
#651=EDGE_CURVE('',#794,#796,#87,.T.);
#652=EDGE_CURVE('',#797,#795,#887,.T.);
#653=EDGE_CURVE('',#798,#797,#88,.T.);
#654=EDGE_CURVE('',#798,#796,#888,.T.);
#655=EDGE_CURVE('',#799,#797,#89,.T.);
#656=EDGE_CURVE('',#800,#799,#90,.T.);
#657=EDGE_CURVE('',#800,#798,#91,.T.);
#658=EDGE_CURVE('',#801,#799,#889,.T.);
#659=EDGE_CURVE('',#802,#801,#92,.T.);
#660=EDGE_CURVE('',#802,#800,#890,.T.);
#661=EDGE_CURVE('',#803,#804,#891,.T.);
#662=EDGE_CURVE('',#805,#803,#93,.T.);
#663=EDGE_CURVE('',#805,#806,#892,.T.);
#664=EDGE_CURVE('',#806,#804,#94,.T.);
#665=EDGE_CURVE('',#803,#807,#95,.T.);
#666=EDGE_CURVE('',#808,#807,#96,.T.);
#667=EDGE_CURVE('',#805,#808,#97,.T.);
#668=EDGE_CURVE('',#809,#807,#893,.T.);
#669=EDGE_CURVE('',#810,#809,#98,.T.);
#670=EDGE_CURVE('',#810,#808,#894,.T.);
#671=EDGE_CURVE('',#809,#811,#99,.T.);
#672=EDGE_CURVE('',#812,#811,#100,.T.);
#673=EDGE_CURVE('',#810,#812,#101,.T.);
#674=EDGE_CURVE('',#813,#811,#895,.T.);
#675=EDGE_CURVE('',#814,#813,#102,.T.);
#676=EDGE_CURVE('',#814,#812,#896,.T.);
#677=EDGE_CURVE('',#815,#813,#103,.T.);
#678=EDGE_CURVE('',#816,#815,#104,.T.);
#679=EDGE_CURVE('',#816,#814,#105,.T.);
#680=EDGE_CURVE('',#817,#815,#897,.T.);
#681=EDGE_CURVE('',#818,#817,#106,.T.);
#682=EDGE_CURVE('',#818,#816,#898,.T.);
#683=EDGE_CURVE('',#819,#820,#107,.T.);
#684=EDGE_CURVE('',#821,#819,#108,.T.);
#685=EDGE_CURVE('',#821,#822,#109,.T.);
#686=EDGE_CURVE('',#822,#820,#110,.T.);
#687=EDGE_CURVE('',#823,#819,#111,.T.);
#688=EDGE_CURVE('',#824,#823,#112,.T.);
#689=EDGE_CURVE('',#824,#821,#113,.T.);
#690=EDGE_CURVE('',#823,#825,#114,.T.);
#691=EDGE_CURVE('',#826,#825,#115,.T.);
#692=EDGE_CURVE('',#824,#826,#116,.T.);
#693=EDGE_CURVE('',#772,#785,#117,.T.);
#694=EDGE_CURVE('',#774,#786,#118,.T.);
#695=EDGE_CURVE('',#788,#801,#119,.T.);
#696=EDGE_CURVE('',#790,#802,#120,.T.);
#697=EDGE_CURVE('',#804,#817,#121,.T.);
#698=EDGE_CURVE('',#806,#818,#122,.T.);
#699=EDGE_CURVE('',#827,#827,#899,.T.);
#700=EDGE_CURVE('',#828,#828,#900,.T.);
#701=EDGE_CURVE('',#829,#829,#901,.T.);
#702=EDGE_CURVE('',#830,#830,#902,.T.);
#703=EDGE_CURVE('',#831,#831,#903,.T.);
#704=EDGE_CURVE('',#832,#832,#904,.T.);
#705=EDGE_CURVE('',#833,#833,#905,.T.);
#706=EDGE_CURVE('',#834,#834,#906,.T.);
#707=EDGE_CURVE('',#825,#820,#123,.T.);
#708=EDGE_CURVE('',#826,#822,#124,.T.);
#709=EDGE_CURVE('',#756,#769,#125,.T.);
#710=EDGE_CURVE('',#758,#770,#126,.T.);
#711=EDGE_CURVE('',#835,#835,#907,.T.);
#712=EDGE_CURVE('',#836,#836,#908,.T.);
#713=EDGE_CURVE('',#837,#837,#909,.T.);
#714=EDGE_CURVE('',#838,#838,#910,.T.);
#715=EDGE_CURVE('',#839,#840,#127,.T.);
#716=EDGE_CURVE('',#840,#841,#128,.T.);
#717=EDGE_CURVE('',#842,#841,#129,.T.);
#718=EDGE_CURVE('',#843,#842,#130,.T.);
#719=EDGE_CURVE('',#843,#844,#131,.T.);
#720=EDGE_CURVE('',#844,#845,#132,.T.);
#721=EDGE_CURVE('',#846,#845,#133,.T.);
#722=EDGE_CURVE('',#847,#846,#134,.T.);
#723=EDGE_CURVE('',#847,#848,#135,.T.);
#724=EDGE_CURVE('',#849,#848,#136,.T.);
#725=EDGE_CURVE('',#850,#849,#137,.T.);
#726=EDGE_CURVE('',#850,#839,#138,.T.);
#727=EDGE_CURVE('',#840,#851,#139,.T.);
#728=EDGE_CURVE('',#839,#852,#140,.T.);
#729=EDGE_CURVE('',#852,#853,#141,.T.);
#730=EDGE_CURVE('',#848,#853,#142,.T.);
#731=EDGE_CURVE('',#847,#854,#143,.T.);
#732=EDGE_CURVE('',#851,#854,#144,.T.);
#733=EDGE_CURVE('',#855,#853,#145,.T.);
#734=EDGE_CURVE('',#849,#855,#146,.T.);
#735=EDGE_CURVE('',#856,#855,#147,.T.);
#736=EDGE_CURVE('',#850,#856,#148,.T.);
#737=EDGE_CURVE('',#846,#857,#149,.T.);
#738=EDGE_CURVE('',#845,#858,#150,.T.);
#739=EDGE_CURVE('',#859,#858,#151,.T.);
#740=EDGE_CURVE('',#842,#859,#152,.T.);
#741=EDGE_CURVE('',#841,#860,#153,.T.);
#742=EDGE_CURVE('',#860,#857,#154,.T.);
#743=EDGE_CURVE('',#861,#859,#155,.T.);
#744=EDGE_CURVE('',#843,#861,#156,.T.);
#745=EDGE_CURVE('',#861,#862,#157,.T.);
#746=EDGE_CURVE('',#844,#862,#158,.T.);
#747=EDGE_CURVE('',#863,#863,#911,.T.);
#748=EDGE_CURVE('',#864,#864,#912,.T.);
#749=EDGE_CURVE('',#865,#865,#913,.T.);
#750=EDGE_CURVE('',#866,#866,#914,.T.);
#751=EDGE_CURVE('',#862,#858,#159,.T.);
#752=EDGE_CURVE('',#856,#852,#160,.T.);
#753=EDGE_CURVE('',#854,#857,#161,.T.);
#754=EDGE_CURVE('',#851,#860,#162,.T.);
#755=VERTEX_POINT('',#1651);
#756=VERTEX_POINT('',#1652);
#757=VERTEX_POINT('',#1654);
#758=VERTEX_POINT('',#1656);
#759=VERTEX_POINT('',#1660);
#760=VERTEX_POINT('',#1662);
#761=VERTEX_POINT('',#1666);
#762=VERTEX_POINT('',#1668);
#763=VERTEX_POINT('',#1672);
#764=VERTEX_POINT('',#1674);
#765=VERTEX_POINT('',#1678);
#766=VERTEX_POINT('',#1680);
#767=VERTEX_POINT('',#1684);
#768=VERTEX_POINT('',#1686);
#769=VERTEX_POINT('',#1690);
#770=VERTEX_POINT('',#1692);
#771=VERTEX_POINT('',#1696);
#772=VERTEX_POINT('',#1697);
#773=VERTEX_POINT('',#1699);
#774=VERTEX_POINT('',#1701);
#775=VERTEX_POINT('',#1705);
#776=VERTEX_POINT('',#1707);
#777=VERTEX_POINT('',#1711);
#778=VERTEX_POINT('',#1713);
#779=VERTEX_POINT('',#1717);
#780=VERTEX_POINT('',#1719);
#781=VERTEX_POINT('',#1723);
#782=VERTEX_POINT('',#1725);
#783=VERTEX_POINT('',#1729);
#784=VERTEX_POINT('',#1731);
#785=VERTEX_POINT('',#1735);
#786=VERTEX_POINT('',#1737);
#787=VERTEX_POINT('',#1741);
#788=VERTEX_POINT('',#1742);
#789=VERTEX_POINT('',#1744);
#790=VERTEX_POINT('',#1746);
#791=VERTEX_POINT('',#1750);
#792=VERTEX_POINT('',#1752);
#793=VERTEX_POINT('',#1756);
#794=VERTEX_POINT('',#1758);
#795=VERTEX_POINT('',#1762);
#796=VERTEX_POINT('',#1764);
#797=VERTEX_POINT('',#1768);
#798=VERTEX_POINT('',#1770);
#799=VERTEX_POINT('',#1774);
#800=VERTEX_POINT('',#1776);
#801=VERTEX_POINT('',#1780);
#802=VERTEX_POINT('',#1782);
#803=VERTEX_POINT('',#1786);
#804=VERTEX_POINT('',#1787);
#805=VERTEX_POINT('',#1789);
#806=VERTEX_POINT('',#1791);
#807=VERTEX_POINT('',#1795);
#808=VERTEX_POINT('',#1797);
#809=VERTEX_POINT('',#1801);
#810=VERTEX_POINT('',#1803);
#811=VERTEX_POINT('',#1807);
#812=VERTEX_POINT('',#1809);
#813=VERTEX_POINT('',#1813);
#814=VERTEX_POINT('',#1815);
#815=VERTEX_POINT('',#1819);
#816=VERTEX_POINT('',#1821);
#817=VERTEX_POINT('',#1825);
#818=VERTEX_POINT('',#1827);
#819=VERTEX_POINT('',#1831);
#820=VERTEX_POINT('',#1832);
#821=VERTEX_POINT('',#1834);
#822=VERTEX_POINT('',#1836);
#823=VERTEX_POINT('',#1840);
#824=VERTEX_POINT('',#1842);
#825=VERTEX_POINT('',#1846);
#826=VERTEX_POINT('',#1848);
#827=VERTEX_POINT('',#1861);
#828=VERTEX_POINT('',#1863);
#829=VERTEX_POINT('',#1866);
#830=VERTEX_POINT('',#1868);
#831=VERTEX_POINT('',#1871);
#832=VERTEX_POINT('',#1873);
#833=VERTEX_POINT('',#1876);
#834=VERTEX_POINT('',#1878);
#835=VERTEX_POINT('',#1890);
#836=VERTEX_POINT('',#1892);
#837=VERTEX_POINT('',#1894);
#838=VERTEX_POINT('',#1896);
#839=VERTEX_POINT('',#1898);
#840=VERTEX_POINT('',#1899);
#841=VERTEX_POINT('',#1901);
#842=VERTEX_POINT('',#1903);
#843=VERTEX_POINT('',#1905);
#844=VERTEX_POINT('',#1907);
#845=VERTEX_POINT('',#1909);
#846=VERTEX_POINT('',#1911);
#847=VERTEX_POINT('',#1913);
#848=VERTEX_POINT('',#1915);
#849=VERTEX_POINT('',#1917);
#850=VERTEX_POINT('',#1919);
#851=VERTEX_POINT('',#1923);
#852=VERTEX_POINT('',#1925);
#853=VERTEX_POINT('',#1927);
#854=VERTEX_POINT('',#1930);
#855=VERTEX_POINT('',#1934);
#856=VERTEX_POINT('',#1938);
#857=VERTEX_POINT('',#1942);
#858=VERTEX_POINT('',#1944);
#859=VERTEX_POINT('',#1946);
#860=VERTEX_POINT('',#1949);
#861=VERTEX_POINT('',#1953);
#862=VERTEX_POINT('',#1957);
#863=VERTEX_POINT('',#1961);
#864=VERTEX_POINT('',#1964);
#865=VERTEX_POINT('',#1967);
#866=VERTEX_POINT('',#1970);
#867=CIRCLE('',#1208,0.000425);
#868=CIRCLE('',#1209,0.000425);
#869=CIRCLE('',#1212,0.000425);
#870=CIRCLE('',#1213,0.000425);
#871=CIRCLE('',#1216,0.000425);
#872=CIRCLE('',#1217,0.000425);
#873=CIRCLE('',#1220,0.000425);
#874=CIRCLE('',#1221,0.000425);
#875=CIRCLE('',#1223,0.000425);
#876=CIRCLE('',#1224,0.000425);
#877=CIRCLE('',#1227,0.000425);
#878=CIRCLE('',#1228,0.000425);
#879=CIRCLE('',#1231,0.000425);
#880=CIRCLE('',#1232,0.000425);
#881=CIRCLE('',#1235,0.000425);
#882=CIRCLE('',#1236,0.000425);
#883=CIRCLE('',#1238,0.000425);
#884=CIRCLE('',#1239,0.000425);
#885=CIRCLE('',#1242,0.000425);
#886=CIRCLE('',#1243,0.000425);
#887=CIRCLE('',#1246,0.000425);
#888=CIRCLE('',#1247,0.000425);
#889=CIRCLE('',#1250,0.000425);
#890=CIRCLE('',#1251,0.000425);
#891=CIRCLE('',#1253,0.000425);
#892=CIRCLE('',#1254,0.000425);
#893=CIRCLE('',#1257,0.000425);
#894=CIRCLE('',#1258,0.000425);
#895=CIRCLE('',#1261,0.000425);
#896=CIRCLE('',#1262,0.000425);
#897=CIRCLE('',#1265,0.000425);
#898=CIRCLE('',#1266,0.000425);
#899=CIRCLE('',#1274,0.00145);
#900=CIRCLE('',#1275,0.00145);
#901=CIRCLE('',#1277,0.00145);
#902=CIRCLE('',#1278,0.00145);
#903=CIRCLE('',#1280,0.00145);
#904=CIRCLE('',#1281,0.00145);
#905=CIRCLE('',#1283,0.00145);
#906=CIRCLE('',#1284,0.00145);
#907=CIRCLE('',#1291,0.00145);
#908=CIRCLE('',#1292,0.00145);
#909=CIRCLE('',#1293,0.00145);
#910=CIRCLE('',#1294,0.00145);
#911=CIRCLE('',#1302,0.00145);
#912=CIRCLE('',#1304,0.00145);
#913=CIRCLE('',#1306,0.00145);
#914=CIRCLE('',#1308,0.00145);
#915=EDGE_LOOP('',(#275,#276,#277,#278));
#916=EDGE_LOOP('',(#279,#280,#281,#282));
#917=EDGE_LOOP('',(#283,#284,#285,#286));
#918=EDGE_LOOP('',(#287,#288,#289,#290));
#919=EDGE_LOOP('',(#291,#292,#293,#294));
#920=EDGE_LOOP('',(#295,#296,#297,#298));
#921=EDGE_LOOP('',(#299,#300,#301,#302));
#922=EDGE_LOOP('',(#303,#304,#305,#306));
#923=EDGE_LOOP('',(#307,#308,#309,#310));
#924=EDGE_LOOP('',(#311,#312,#313,#314));
#925=EDGE_LOOP('',(#315,#316,#317,#318));
#926=EDGE_LOOP('',(#319,#320,#321,#322));
#927=EDGE_LOOP('',(#323,#324,#325,#326));
#928=EDGE_LOOP('',(#327,#328,#329,#330));
#929=EDGE_LOOP('',(#331,#332,#333,#334));
#930=EDGE_LOOP('',(#335,#336,#337,#338));
#931=EDGE_LOOP('',(#339,#340,#341,#342));
#932=EDGE_LOOP('',(#343,#344,#345,#346));
#933=EDGE_LOOP('',(#347,#348,#349,#350));
#934=EDGE_LOOP('',(#351,#352,#353,#354));
#935=EDGE_LOOP('',(#355,#356,#357,#358));
#936=EDGE_LOOP('',(#359,#360,#361,#362));
#937=EDGE_LOOP('',(#363,#364,#365,#366));
#938=EDGE_LOOP('',(#367,#368,#369,#370));
#939=EDGE_LOOP('',(#371,#372,#373,#374));
#940=EDGE_LOOP('',(#375,#376,#377,#378));
#941=EDGE_LOOP('',(#379,#380,#381,#382));
#942=EDGE_LOOP('',(#383,#384,#385,#386));
#943=EDGE_LOOP('',(#387,#388,#389,#390));
#944=EDGE_LOOP('',(#391,#392,#393,#394));
#945=EDGE_LOOP('',(#395,#396,#397,#398));
#946=EDGE_LOOP('',(#399,#400,#401,#402));
#947=EDGE_LOOP('',(#403,#404,#405,#406));
#948=EDGE_LOOP('',(#407,#408,#409,#410));
#949=EDGE_LOOP('',(#411));
#950=EDGE_LOOP('',(#412));
#951=EDGE_LOOP('',(#413));
#952=EDGE_LOOP('',(#414));
#953=EDGE_LOOP('',(#415));
#954=EDGE_LOOP('',(#416));
#955=EDGE_LOOP('',(#417));
#956=EDGE_LOOP('',(#418));
#957=EDGE_LOOP('',(#419,#420,#421,#422));
#958=EDGE_LOOP('',(#423,#424,#425,#426));
#959=EDGE_LOOP('',(#427,#428,#429,#430));
#960=EDGE_LOOP('',(#431));
#961=EDGE_LOOP('',(#432));
#962=EDGE_LOOP('',(#433));
#963=EDGE_LOOP('',(#434));
#964=EDGE_LOOP('',(#435,#436,#437,#438,#439,#440,#441,#442));
#965=EDGE_LOOP('',(#443,#444,#445,#446,#447,#448,#449,#450));
#966=EDGE_LOOP('',(#451,#452,#453,#454,#455,#456,#457,#458));
#967=EDGE_LOOP('',(#459,#460,#461,#462,#463,#464,#465,#466));
#968=EDGE_LOOP('',(#467,#468,#469,#470));
#969=EDGE_LOOP('',(#471));
#970=EDGE_LOOP('',(#472));
#971=EDGE_LOOP('',(#473));
#972=EDGE_LOOP('',(#474));
#973=EDGE_LOOP('',(#475,#476,#477,#478,#479,#480,#481,#482));
#974=EDGE_LOOP('',(#483,#484,#485,#486,#487,#488,#489,#490));
#975=EDGE_LOOP('',(#491,#492,#493,#494,#495,#496,#497,#498));
#976=EDGE_LOOP('',(#499,#500,#501,#502,#503,#504,#505,#506));
#977=EDGE_LOOP('',(#507));
#978=EDGE_LOOP('',(#508));
#979=EDGE_LOOP('',(#509));
#980=EDGE_LOOP('',(#510));
#981=EDGE_LOOP('',(#511,#512,#513,#514,#515,#516,#517,#518,#519,#520,#521,
#522));
#982=EDGE_LOOP('',(#523,#524,#525,#526,#527,#528,#529,#530));
#983=EDGE_LOOP('',(#531,#532,#533,#534));
#984=EDGE_LOOP('',(#535,#536,#537,#538));
#985=EDGE_LOOP('',(#539,#540,#541,#542,#543,#544,#545,#546));
#986=EDGE_LOOP('',(#547,#548,#549,#550));
#987=EDGE_LOOP('',(#551,#552,#553,#554));
#988=EDGE_LOOP('',(#555));
#989=EDGE_LOOP('',(#556));
#990=EDGE_LOOP('',(#557));
#991=EDGE_LOOP('',(#558));
#992=EDGE_LOOP('',(#559));
#993=EDGE_LOOP('',(#560));
#994=EDGE_LOOP('',(#561));
#995=EDGE_LOOP('',(#562));
#996=EDGE_LOOP('',(#563,#564,#565,#566));
#997=EDGE_LOOP('',(#567,#568,#569,#570));
#998=EDGE_LOOP('',(#571,#572,#573,#574));
#999=EDGE_LOOP('',(#575,#576,#577,#578));
#1000=EDGE_LOOP('',(#579));
#1001=EDGE_LOOP('',(#580));
#1002=EDGE_LOOP('',(#581));
#1003=EDGE_LOOP('',(#582));
#1004=EDGE_LOOP('',(#583,#584,#585,#586));
#1005=EDGE_LOOP('',(#587,#588,#589,#590));
#1006=EDGE_LOOP('',(#591,#592,#593,#594));
#1007=FACE_BOUND('',#915,.T.);
#1008=FACE_BOUND('',#916,.T.);
#1009=FACE_BOUND('',#917,.T.);
#1010=FACE_BOUND('',#918,.T.);
#1011=FACE_BOUND('',#919,.T.);
#1012=FACE_BOUND('',#920,.T.);
#1013=FACE_BOUND('',#921,.T.);
#1014=FACE_BOUND('',#922,.T.);
#1015=FACE_BOUND('',#923,.T.);
#1016=FACE_BOUND('',#924,.T.);
#1017=FACE_BOUND('',#925,.T.);
#1018=FACE_BOUND('',#926,.T.);
#1019=FACE_BOUND('',#927,.T.);
#1020=FACE_BOUND('',#928,.T.);
#1021=FACE_BOUND('',#929,.T.);
#1022=FACE_BOUND('',#930,.T.);
#1023=FACE_BOUND('',#931,.T.);
#1024=FACE_BOUND('',#932,.T.);
#1025=FACE_BOUND('',#933,.T.);
#1026=FACE_BOUND('',#934,.T.);
#1027=FACE_BOUND('',#935,.T.);
#1028=FACE_BOUND('',#936,.T.);
#1029=FACE_BOUND('',#937,.T.);
#1030=FACE_BOUND('',#938,.T.);
#1031=FACE_BOUND('',#939,.T.);
#1032=FACE_BOUND('',#940,.T.);
#1033=FACE_BOUND('',#941,.T.);
#1034=FACE_BOUND('',#942,.T.);
#1035=FACE_BOUND('',#943,.T.);
#1036=FACE_BOUND('',#944,.T.);
#1037=FACE_BOUND('',#945,.T.);
#1038=FACE_BOUND('',#946,.T.);
#1039=FACE_BOUND('',#947,.T.);
#1040=FACE_BOUND('',#948,.T.);
#1041=FACE_BOUND('',#949,.T.);
#1042=FACE_BOUND('',#950,.T.);
#1043=FACE_BOUND('',#951,.T.);
#1044=FACE_BOUND('',#952,.T.);
#1045=FACE_BOUND('',#953,.T.);
#1046=FACE_BOUND('',#954,.T.);
#1047=FACE_BOUND('',#955,.T.);
#1048=FACE_BOUND('',#956,.T.);
#1049=FACE_BOUND('',#957,.T.);
#1050=FACE_BOUND('',#958,.T.);
#1051=FACE_BOUND('',#959,.T.);
#1052=FACE_BOUND('',#960,.T.);
#1053=FACE_BOUND('',#961,.T.);
#1054=FACE_BOUND('',#962,.T.);
#1055=FACE_BOUND('',#963,.T.);
#1056=FACE_BOUND('',#964,.T.);
#1057=FACE_BOUND('',#965,.T.);
#1058=FACE_BOUND('',#966,.T.);
#1059=FACE_BOUND('',#967,.T.);
#1060=FACE_BOUND('',#968,.T.);
#1061=FACE_BOUND('',#969,.T.);
#1062=FACE_BOUND('',#970,.T.);
#1063=FACE_BOUND('',#971,.T.);
#1064=FACE_BOUND('',#972,.T.);
#1065=FACE_BOUND('',#973,.T.);
#1066=FACE_BOUND('',#974,.T.);
#1067=FACE_BOUND('',#975,.T.);
#1068=FACE_BOUND('',#976,.T.);
#1069=FACE_BOUND('',#977,.T.);
#1070=FACE_BOUND('',#978,.T.);
#1071=FACE_BOUND('',#979,.T.);
#1072=FACE_BOUND('',#980,.T.);
#1073=FACE_BOUND('',#981,.T.);
#1074=FACE_BOUND('',#982,.T.);
#1075=FACE_BOUND('',#983,.T.);
#1076=FACE_BOUND('',#984,.T.);
#1077=FACE_BOUND('',#985,.T.);
#1078=FACE_BOUND('',#986,.T.);
#1079=FACE_BOUND('',#987,.T.);
#1080=FACE_BOUND('',#988,.T.);
#1081=FACE_BOUND('',#989,.T.);
#1082=FACE_BOUND('',#990,.T.);
#1083=FACE_BOUND('',#991,.T.);
#1084=FACE_BOUND('',#992,.T.);
#1085=FACE_BOUND('',#993,.T.);
#1086=FACE_BOUND('',#994,.T.);
#1087=FACE_BOUND('',#995,.T.);
#1088=FACE_BOUND('',#996,.T.);
#1089=FACE_BOUND('',#997,.T.);
#1090=FACE_BOUND('',#998,.T.);
#1091=FACE_BOUND('',#999,.T.);
#1092=FACE_BOUND('',#1000,.T.);
#1093=FACE_BOUND('',#1001,.T.);
#1094=FACE_BOUND('',#1002,.T.);
#1095=FACE_BOUND('',#1003,.T.);
#1096=FACE_BOUND('',#1004,.T.);
#1097=FACE_BOUND('',#1005,.T.);
#1098=FACE_BOUND('',#1006,.T.);
#1099=CYLINDRICAL_SURFACE('',#1207,0.000425);
#1100=CYLINDRICAL_SURFACE('',#1211,0.000425);
#1101=CYLINDRICAL_SURFACE('',#1215,0.000425);
#1102=CYLINDRICAL_SURFACE('',#1219,0.000425);
#1103=CYLINDRICAL_SURFACE('',#1222,0.000425);
#1104=CYLINDRICAL_SURFACE('',#1226,0.000425);
#1105=CYLINDRICAL_SURFACE('',#1230,0.000425);
#1106=CYLINDRICAL_SURFACE('',#1234,0.000425);
#1107=CYLINDRICAL_SURFACE('',#1237,0.000425);
#1108=CYLINDRICAL_SURFACE('',#1241,0.000425);
#1109=CYLINDRICAL_SURFACE('',#1245,0.000425);
#1110=CYLINDRICAL_SURFACE('',#1249,0.000425);
#1111=CYLINDRICAL_SURFACE('',#1252,0.000425);
#1112=CYLINDRICAL_SURFACE('',#1256,0.000425);
#1113=CYLINDRICAL_SURFACE('',#1260,0.000425);
#1114=CYLINDRICAL_SURFACE('',#1264,0.000425);
#1115=CYLINDRICAL_SURFACE('',#1273,0.00145);
#1116=CYLINDRICAL_SURFACE('',#1276,0.00145);
#1117=CYLINDRICAL_SURFACE('',#1279,0.00145);
#1118=CYLINDRICAL_SURFACE('',#1282,0.00145);
#1119=CYLINDRICAL_SURFACE('',#1301,0.00145);
#1120=CYLINDRICAL_SURFACE('',#1303,0.00145);
#1121=CYLINDRICAL_SURFACE('',#1305,0.00145);
#1122=CYLINDRICAL_SURFACE('',#1307,0.00145);
#1123=ADVANCED_FACE('',(#1007),#1099,.F.);
#1124=ADVANCED_FACE('',(#1008),#15,.F.);
#1125=ADVANCED_FACE('',(#1009),#1100,.F.);
#1126=ADVANCED_FACE('',(#1010),#16,.F.);
#1127=ADVANCED_FACE('',(#1011),#1101,.F.);
#1128=ADVANCED_FACE('',(#1012),#17,.T.);
#1129=ADVANCED_FACE('',(#1013),#1102,.F.);
#1130=ADVANCED_FACE('',(#1014),#1103,.F.);
#1131=ADVANCED_FACE('',(#1015),#18,.F.);
#1132=ADVANCED_FACE('',(#1016),#1104,.F.);
#1133=ADVANCED_FACE('',(#1017),#19,.F.);
#1134=ADVANCED_FACE('',(#1018),#1105,.F.);
#1135=ADVANCED_FACE('',(#1019),#20,.T.);
#1136=ADVANCED_FACE('',(#1020),#1106,.F.);
#1137=ADVANCED_FACE('',(#1021),#1107,.F.);
#1138=ADVANCED_FACE('',(#1022),#21,.F.);
#1139=ADVANCED_FACE('',(#1023),#1108,.F.);
#1140=ADVANCED_FACE('',(#1024),#22,.F.);
#1141=ADVANCED_FACE('',(#1025),#1109,.F.);
#1142=ADVANCED_FACE('',(#1026),#23,.T.);
#1143=ADVANCED_FACE('',(#1027),#1110,.F.);
#1144=ADVANCED_FACE('',(#1028),#1111,.F.);
#1145=ADVANCED_FACE('',(#1029),#24,.F.);
#1146=ADVANCED_FACE('',(#1030),#1112,.F.);
#1147=ADVANCED_FACE('',(#1031),#25,.F.);
#1148=ADVANCED_FACE('',(#1032),#1113,.F.);
#1149=ADVANCED_FACE('',(#1033),#26,.T.);
#1150=ADVANCED_FACE('',(#1034),#1114,.F.);
#1151=ADVANCED_FACE('',(#1035),#27,.T.);
#1152=ADVANCED_FACE('',(#1036),#28,.T.);
#1153=ADVANCED_FACE('',(#1037),#29,.F.);
#1154=ADVANCED_FACE('',(#1038),#30,.T.);
#1155=ADVANCED_FACE('',(#1039),#31,.T.);
#1156=ADVANCED_FACE('',(#1040),#32,.T.);
#1157=ADVANCED_FACE('',(#1041,#1042),#1115,.F.);
#1158=ADVANCED_FACE('',(#1043,#1044),#1116,.F.);
#1159=ADVANCED_FACE('',(#1045,#1046),#1117,.F.);
#1160=ADVANCED_FACE('',(#1047,#1048),#1118,.F.);
#1161=ADVANCED_FACE('',(#1049),#33,.F.);
#1162=ADVANCED_FACE('',(#1050),#34,.T.);
#1163=ADVANCED_FACE('',(#1051,#1052,#1053,#1054,#1055,#1056,#1057,#1058,
#1059),#35,.T.);
#1164=ADVANCED_FACE('',(#1060,#1061,#1062,#1063,#1064,#1065,#1066,#1067,
#1068),#36,.F.);
#1165=ADVANCED_FACE('',(#1069,#1070,#1071,#1072,#1073),#37,.T.);
#1166=ADVANCED_FACE('',(#1074),#38,.F.);
#1167=ADVANCED_FACE('',(#1075),#39,.T.);
#1168=ADVANCED_FACE('',(#1076),#40,.T.);
#1169=ADVANCED_FACE('',(#1077),#41,.T.);
#1170=ADVANCED_FACE('',(#1078),#42,.T.);
#1171=ADVANCED_FACE('',(#1079),#43,.F.);
#1172=ADVANCED_FACE('',(#1080,#1081),#1119,.F.);
#1173=ADVANCED_FACE('',(#1082,#1083),#1120,.F.);
#1174=ADVANCED_FACE('',(#1084,#1085),#1121,.F.);
#1175=ADVANCED_FACE('',(#1086,#1087),#1122,.F.);
#1176=ADVANCED_FACE('',(#1088),#44,.F.);
#1177=ADVANCED_FACE('',(#1089),#45,.F.);
#1178=ADVANCED_FACE('',(#1090),#46,.T.);
#1179=ADVANCED_FACE('',(#1091,#1092,#1093,#1094,#1095),#47,.F.);
#1180=ADVANCED_FACE('',(#1096),#48,.F.);
#1181=ADVANCED_FACE('',(#1097),#49,.T.);
#1182=ADVANCED_FACE('',(#1098),#50,.T.);
#1183=CLOSED_SHELL('',(#1123,#1124,#1125,#1126,#1127,#1128,#1129,#1130,
#1131,#1132,#1133,#1134,#1135,#1136,#1137,#1138,#1139,#1140,#1141,#1142,
#1143,#1144,#1145,#1146,#1147,#1148,#1149,#1150,#1151,#1152,#1153,#1154,
#1155,#1156,#1157,#1158,#1159,#1160,#1161,#1162,#1163,#1164));
#1184=CLOSED_SHELL('',(#1165,#1166,#1167,#1168,#1169,#1170,#1171,#1172,
#1173,#1174,#1175,#1176,#1177,#1178,#1179,#1180,#1181,#1182));
#1185=STYLED_ITEM('',(#1187),#1200);
#1186=STYLED_ITEM('',(#1188),#1201);
#1187=PRESENTATION_STYLE_ASSIGNMENT((#1189));
#1188=PRESENTATION_STYLE_ASSIGNMENT((#1190));
#1189=SURFACE_STYLE_USAGE(.BOTH.,#1191);
#1190=SURFACE_STYLE_USAGE(.BOTH.,#1192);
#1191=SURFACE_SIDE_STYLE('',(#1193));
#1192=SURFACE_SIDE_STYLE('',(#1194));
#1193=SURFACE_STYLE_FILL_AREA(#1195);
#1194=SURFACE_STYLE_FILL_AREA(#1196);
#1195=FILL_AREA_STYLE('',(#1197));
#1196=FILL_AREA_STYLE('',(#1198));
#1197=FILL_AREA_STYLE_COLOUR('',#1199);
#1198=FILL_AREA_STYLE_COLOUR('',#10);
#1199=DRAUGHTING_PRE_DEFINED_COLOUR('cyan');
#1200=MANIFOLD_SOLID_BREP('Top',#1183);
#1201=MANIFOLD_SOLID_BREP('Bottom',#1184);
#1202=SHAPE_DEFINITION_REPRESENTATION(#1994,#1204);
#1203=SHAPE_DEFINITION_REPRESENTATION(#1995,#1205);
#1204=SHAPE_REPRESENTATION('Top',(#1206),#1984);
#1205=SHAPE_REPRESENTATION('Bottom',(#1289),#1985);
#1206=AXIS2_PLACEMENT_3D('',#1648,#1316,#1317);
#1207=AXIS2_PLACEMENT_3D('',#1649,#1318,#1319);
#1208=AXIS2_PLACEMENT_3D('',#1650,#1320,#1321);
#1209=AXIS2_PLACEMENT_3D('',#1655,#1323,#1324);
#1210=AXIS2_PLACEMENT_3D('',#1658,#1326,#1327);
#1211=AXIS2_PLACEMENT_3D('',#1664,#1331,#1332);
#1212=AXIS2_PLACEMENT_3D('',#1665,#1333,#1334);
#1213=AXIS2_PLACEMENT_3D('',#1669,#1336,#1337);
#1214=AXIS2_PLACEMENT_3D('',#1670,#1338,#1339);
#1215=AXIS2_PLACEMENT_3D('',#1676,#1343,#1344);
#1216=AXIS2_PLACEMENT_3D('',#1677,#1345,#1346);
#1217=AXIS2_PLACEMENT_3D('',#1681,#1348,#1349);
#1218=AXIS2_PLACEMENT_3D('',#1682,#1350,#1351);
#1219=AXIS2_PLACEMENT_3D('',#1688,#1355,#1356);
#1220=AXIS2_PLACEMENT_3D('',#1689,#1357,#1358);
#1221=AXIS2_PLACEMENT_3D('',#1693,#1360,#1361);
#1222=AXIS2_PLACEMENT_3D('',#1694,#1362,#1363);
#1223=AXIS2_PLACEMENT_3D('',#1695,#1364,#1365);
#1224=AXIS2_PLACEMENT_3D('',#1700,#1367,#1368);
#1225=AXIS2_PLACEMENT_3D('',#1703,#1370,#1371);
#1226=AXIS2_PLACEMENT_3D('',#1709,#1375,#1376);
#1227=AXIS2_PLACEMENT_3D('',#1710,#1377,#1378);
#1228=AXIS2_PLACEMENT_3D('',#1714,#1380,#1381);
#1229=AXIS2_PLACEMENT_3D('',#1715,#1382,#1383);
#1230=AXIS2_PLACEMENT_3D('',#1721,#1387,#1388);
#1231=AXIS2_PLACEMENT_3D('',#1722,#1389,#1390);
#1232=AXIS2_PLACEMENT_3D('',#1726,#1392,#1393);
#1233=AXIS2_PLACEMENT_3D('',#1727,#1394,#1395);
#1234=AXIS2_PLACEMENT_3D('',#1733,#1399,#1400);
#1235=AXIS2_PLACEMENT_3D('',#1734,#1401,#1402);
#1236=AXIS2_PLACEMENT_3D('',#1738,#1404,#1405);
#1237=AXIS2_PLACEMENT_3D('',#1739,#1406,#1407);
#1238=AXIS2_PLACEMENT_3D('',#1740,#1408,#1409);
#1239=AXIS2_PLACEMENT_3D('',#1745,#1411,#1412);
#1240=AXIS2_PLACEMENT_3D('',#1748,#1414,#1415);
#1241=AXIS2_PLACEMENT_3D('',#1754,#1419,#1420);
#1242=AXIS2_PLACEMENT_3D('',#1755,#1421,#1422);
#1243=AXIS2_PLACEMENT_3D('',#1759,#1424,#1425);
#1244=AXIS2_PLACEMENT_3D('',#1760,#1426,#1427);
#1245=AXIS2_PLACEMENT_3D('',#1766,#1431,#1432);
#1246=AXIS2_PLACEMENT_3D('',#1767,#1433,#1434);
#1247=AXIS2_PLACEMENT_3D('',#1771,#1436,#1437);
#1248=AXIS2_PLACEMENT_3D('',#1772,#1438,#1439);
#1249=AXIS2_PLACEMENT_3D('',#1778,#1443,#1444);
#1250=AXIS2_PLACEMENT_3D('',#1779,#1445,#1446);
#1251=AXIS2_PLACEMENT_3D('',#1783,#1448,#1449);
#1252=AXIS2_PLACEMENT_3D('',#1784,#1450,#1451);
#1253=AXIS2_PLACEMENT_3D('',#1785,#1452,#1453);
#1254=AXIS2_PLACEMENT_3D('',#1790,#1455,#1456);
#1255=AXIS2_PLACEMENT_3D('',#1793,#1458,#1459);
#1256=AXIS2_PLACEMENT_3D('',#1799,#1463,#1464);
#1257=AXIS2_PLACEMENT_3D('',#1800,#1465,#1466);
#1258=AXIS2_PLACEMENT_3D('',#1804,#1468,#1469);
#1259=AXIS2_PLACEMENT_3D('',#1805,#1470,#1471);
#1260=AXIS2_PLACEMENT_3D('',#1811,#1475,#1476);
#1261=AXIS2_PLACEMENT_3D('',#1812,#1477,#1478);
#1262=AXIS2_PLACEMENT_3D('',#1816,#1480,#1481);
#1263=AXIS2_PLACEMENT_3D('',#1817,#1482,#1483);
#1264=AXIS2_PLACEMENT_3D('',#1823,#1487,#1488);
#1265=AXIS2_PLACEMENT_3D('',#1824,#1489,#1490);
#1266=AXIS2_PLACEMENT_3D('',#1828,#1492,#1493);
#1267=AXIS2_PLACEMENT_3D('',#1829,#1494,#1495);
#1268=AXIS2_PLACEMENT_3D('',#1838,#1500,#1501);
#1269=AXIS2_PLACEMENT_3D('',#1844,#1505,#1506);
#1270=AXIS2_PLACEMENT_3D('',#1850,#1510,#1511);
#1271=AXIS2_PLACEMENT_3D('',#1853,#1514,#1515);
#1272=AXIS2_PLACEMENT_3D('',#1856,#1518,#1519);
#1273=AXIS2_PLACEMENT_3D('',#1859,#1522,#1523);
#1274=AXIS2_PLACEMENT_3D('',#1860,#1524,#1525);
#1275=AXIS2_PLACEMENT_3D('',#1862,#1526,#1527);
#1276=AXIS2_PLACEMENT_3D('',#1864,#1528,#1529);
#1277=AXIS2_PLACEMENT_3D('',#1865,#1530,#1531);
#1278=AXIS2_PLACEMENT_3D('',#1867,#1532,#1533);
#1279=AXIS2_PLACEMENT_3D('',#1869,#1534,#1535);
#1280=AXIS2_PLACEMENT_3D('',#1870,#1536,#1537);
#1281=AXIS2_PLACEMENT_3D('',#1872,#1538,#1539);
#1282=AXIS2_PLACEMENT_3D('',#1874,#1540,#1541);
#1283=AXIS2_PLACEMENT_3D('',#1875,#1542,#1543);
#1284=AXIS2_PLACEMENT_3D('',#1877,#1544,#1545);
#1285=AXIS2_PLACEMENT_3D('',#1879,#1546,#1547);
#1286=AXIS2_PLACEMENT_3D('',#1882,#1550,#1551);
#1287=AXIS2_PLACEMENT_3D('',#1885,#1554,#1555);
#1288=AXIS2_PLACEMENT_3D('',#1886,#1556,#1557);
#1289=AXIS2_PLACEMENT_3D('',#1887,#1558,#1559);
#1290=AXIS2_PLACEMENT_3D('',#1888,#1560,#1561);
#1291=AXIS2_PLACEMENT_3D('',#1889,#1562,#1563);
#1292=AXIS2_PLACEMENT_3D('',#1891,#1564,#1565);
#1293=AXIS2_PLACEMENT_3D('',#1893,#1566,#1567);
#1294=AXIS2_PLACEMENT_3D('',#1895,#1568,#1569);
#1295=AXIS2_PLACEMENT_3D('',#1921,#1582,#1583);
#1296=AXIS2_PLACEMENT_3D('',#1932,#1590,#1591);
#1297=AXIS2_PLACEMENT_3D('',#1936,#1594,#1595);
#1298=AXIS2_PLACEMENT_3D('',#1940,#1598,#1599);
#1299=AXIS2_PLACEMENT_3D('',#1951,#1606,#1607);
#1300=AXIS2_PLACEMENT_3D('',#1955,#1610,#1611);
#1301=AXIS2_PLACEMENT_3D('',#1959,#1614,#1615);
#1302=AXIS2_PLACEMENT_3D('',#1960,#1616,#1617);
#1303=AXIS2_PLACEMENT_3D('',#1962,#1618,#1619);
#1304=AXIS2_PLACEMENT_3D('',#1963,#1620,#1621);
#1305=AXIS2_PLACEMENT_3D('',#1965,#1622,#1623);
#1306=AXIS2_PLACEMENT_3D('',#1966,#1624,#1625);
#1307=AXIS2_PLACEMENT_3D('',#1968,#1626,#1627);
#1308=AXIS2_PLACEMENT_3D('',#1969,#1628,#1629);
#1309=AXIS2_PLACEMENT_3D('',#1971,#1630,#1631);
#1310=AXIS2_PLACEMENT_3D('',#1973,#1633,#1634);
#1311=AXIS2_PLACEMENT_3D('',#1975,#1636,#1637);
#1312=AXIS2_PLACEMENT_3D('',#1976,#1638,#1639);
#1313=AXIS2_PLACEMENT_3D('',#1977,#1640,#1641);
#1314=AXIS2_PLACEMENT_3D('',#1979,#1643,#1644);
#1315=AXIS2_PLACEMENT_3D('',#1981,#1646,#1647);
#1316=DIRECTION('',(0.,0.,1.));
#1317=DIRECTION('',(1.,0.,0.));
#1318=DIRECTION('',(0.,0.,-1.));
#1319=DIRECTION('',(-1.,0.,0.));
#1320=DIRECTION('',(0.,0.,1.));
#1321=DIRECTION('',(1.,0.,0.));
#1322=DIRECTION('',(0.,0.,-1.));
#1323=DIRECTION('',(0.,0.,1.));
#1324=DIRECTION('',(1.,0.,0.));
#1325=DIRECTION('',(0.,0.,-1.));
#1326=DIRECTION('',(0.,1.,0.));
#1327=DIRECTION('',(0.,0.,1.));
#1328=DIRECTION('',(1.,0.,0.));
#1329=DIRECTION('',(0.,0.,-1.));
#1330=DIRECTION('',(1.,0.,0.));
#1331=DIRECTION('',(0.,0.,-1.));
#1332=DIRECTION('',(-1.,0.,0.));
#1333=DIRECTION('',(0.,0.,1.));
#1334=DIRECTION('',(1.,0.,0.));
#1335=DIRECTION('',(0.,0.,-1.));
#1336=DIRECTION('',(0.,0.,1.));
#1337=DIRECTION('',(1.,0.,0.));
#1338=DIRECTION('',(1.,0.,0.));
#1339=DIRECTION('',(0.,0.,-1.));
#1340=DIRECTION('',(0.,-1.,0.));
#1341=DIRECTION('',(0.,0.,-1.));
#1342=DIRECTION('',(0.,-1.,0.));
#1343=DIRECTION('',(0.,0.,-1.));
#1344=DIRECTION('',(-1.,0.,0.));
#1345=DIRECTION('',(0.,0.,1.));
#1346=DIRECTION('',(1.,0.,0.));
#1347=DIRECTION('',(0.,0.,-1.));
#1348=DIRECTION('',(0.,0.,1.));
#1349=DIRECTION('',(1.,0.,0.));
#1350=DIRECTION('',(0.,1.,0.));
#1351=DIRECTION('',(0.,0.,1.));
#1352=DIRECTION('',(1.,0.,0.));
#1353=DIRECTION('',(0.,0.,-1.));
#1354=DIRECTION('',(1.,0.,0.));
#1355=DIRECTION('',(0.,0.,-1.));
#1356=DIRECTION('',(-1.,0.,0.));
#1357=DIRECTION('',(0.,0.,1.));
#1358=DIRECTION('',(1.,0.,0.));
#1359=DIRECTION('',(0.,0.,-1.));
#1360=DIRECTION('',(0.,0.,1.));
#1361=DIRECTION('',(1.,0.,0.));
#1362=DIRECTION('',(0.,0.,-1.));
#1363=DIRECTION('',(-1.,0.,0.));
#1364=DIRECTION('',(0.,0.,1.));
#1365=DIRECTION('',(1.,0.,0.));
#1366=DIRECTION('',(0.,0.,-1.));
#1367=DIRECTION('',(0.,0.,1.));
#1368=DIRECTION('',(1.,0.,0.));
#1369=DIRECTION('',(0.,0.,-1.));
#1370=DIRECTION('',(0.,1.,0.));
#1371=DIRECTION('',(0.,0.,1.));
#1372=DIRECTION('',(1.,0.,0.));
#1373=DIRECTION('',(0.,0.,-1.));
#1374=DIRECTION('',(1.,0.,0.));
#1375=DIRECTION('',(0.,0.,-1.));
#1376=DIRECTION('',(-1.,0.,0.));
#1377=DIRECTION('',(0.,0.,1.));
#1378=DIRECTION('',(1.,0.,0.));
#1379=DIRECTION('',(0.,0.,-1.));
#1380=DIRECTION('',(0.,0.,1.));
#1381=DIRECTION('',(1.,0.,0.));
#1382=DIRECTION('',(1.,0.,0.));
#1383=DIRECTION('',(0.,0.,-1.));
#1384=DIRECTION('',(0.,-1.,0.));
#1385=DIRECTION('',(0.,0.,-1.));
#1386=DIRECTION('',(0.,-1.,0.));
#1387=DIRECTION('',(0.,0.,-1.));
#1388=DIRECTION('',(-1.,0.,0.));
#1389=DIRECTION('',(0.,0.,1.));
#1390=DIRECTION('',(1.,0.,0.));
#1391=DIRECTION('',(0.,0.,-1.));
#1392=DIRECTION('',(0.,0.,1.));
#1393=DIRECTION('',(1.,0.,0.));
#1394=DIRECTION('',(0.,1.,0.));
#1395=DIRECTION('',(0.,0.,1.));
#1396=DIRECTION('',(1.,0.,0.));
#1397=DIRECTION('',(0.,0.,-1.));
#1398=DIRECTION('',(1.,0.,0.));
#1399=DIRECTION('',(0.,0.,-1.));
#1400=DIRECTION('',(-1.,0.,0.));
#1401=DIRECTION('',(0.,0.,1.));
#1402=DIRECTION('',(1.,0.,0.));
#1403=DIRECTION('',(0.,0.,-1.));
#1404=DIRECTION('',(0.,0.,1.));
#1405=DIRECTION('',(1.,0.,0.));
#1406=DIRECTION('',(0.,0.,-1.));
#1407=DIRECTION('',(-1.,0.,0.));
#1408=DIRECTION('',(0.,0.,1.));
#1409=DIRECTION('',(1.,0.,0.));
#1410=DIRECTION('',(0.,0.,-1.));
#1411=DIRECTION('',(0.,0.,1.));
#1412=DIRECTION('',(1.,0.,0.));
#1413=DIRECTION('',(0.,0.,-1.));
#1414=DIRECTION('',(0.,1.,0.));
#1415=DIRECTION('',(0.,0.,1.));
#1416=DIRECTION('',(1.,0.,0.));
#1417=DIRECTION('',(0.,0.,-1.));
#1418=DIRECTION('',(1.,0.,0.));
#1419=DIRECTION('',(0.,0.,-1.));
#1420=DIRECTION('',(-1.,0.,0.));
#1421=DIRECTION('',(0.,0.,1.));
#1422=DIRECTION('',(1.,0.,0.));
#1423=DIRECTION('',(0.,0.,-1.));
#1424=DIRECTION('',(0.,0.,1.));
#1425=DIRECTION('',(1.,0.,0.));
#1426=DIRECTION('',(1.,0.,0.));
#1427=DIRECTION('',(0.,0.,-1.));
#1428=DIRECTION('',(0.,-1.,0.));
#1429=DIRECTION('',(0.,0.,-1.));
#1430=DIRECTION('',(0.,-1.,0.));
#1431=DIRECTION('',(0.,0.,-1.));
#1432=DIRECTION('',(-1.,0.,0.));
#1433=DIRECTION('',(0.,0.,1.));
#1434=DIRECTION('',(1.,0.,0.));
#1435=DIRECTION('',(0.,0.,-1.));
#1436=DIRECTION('',(0.,0.,1.));
#1437=DIRECTION('',(1.,0.,0.));
#1438=DIRECTION('',(0.,1.,0.));
#1439=DIRECTION('',(0.,0.,1.));
#1440=DIRECTION('',(1.,0.,0.));
#1441=DIRECTION('',(0.,0.,-1.));
#1442=DIRECTION('',(1.,0.,0.));
#1443=DIRECTION('',(0.,0.,-1.));
#1444=DIRECTION('',(-1.,0.,0.));
#1445=DIRECTION('',(0.,0.,1.));
#1446=DIRECTION('',(1.,0.,0.));
#1447=DIRECTION('',(0.,0.,-1.));
#1448=DIRECTION('',(0.,0.,1.));
#1449=DIRECTION('',(1.,0.,0.));
#1450=DIRECTION('',(0.,0.,-1.));
#1451=DIRECTION('',(-1.,0.,0.));
#1452=DIRECTION('',(0.,0.,1.));
#1453=DIRECTION('',(1.,0.,0.));
#1454=DIRECTION('',(0.,0.,-1.));
#1455=DIRECTION('',(0.,0.,1.));
#1456=DIRECTION('',(1.,0.,0.));
#1457=DIRECTION('',(0.,0.,-1.));
#1458=DIRECTION('',(0.,1.,0.));
#1459=DIRECTION('',(0.,0.,1.));
#1460=DIRECTION('',(1.,0.,0.));
#1461=DIRECTION('',(0.,0.,-1.));
#1462=DIRECTION('',(1.,0.,0.));
#1463=DIRECTION('',(0.,0.,-1.));
#1464=DIRECTION('',(-1.,0.,0.));
#1465=DIRECTION('',(0.,0.,1.));
#1466=DIRECTION('',(1.,0.,0.));
#1467=DIRECTION('',(0.,0.,-1.));
#1468=DIRECTION('',(0.,0.,1.));
#1469=DIRECTION('',(1.,0.,0.));
#1470=DIRECTION('',(1.,0.,0.));
#1471=DIRECTION('',(0.,0.,-1.));
#1472=DIRECTION('',(0.,-1.,0.));
#1473=DIRECTION('',(0.,0.,-1.));
#1474=DIRECTION('',(0.,-1.,0.));
#1475=DIRECTION('',(0.,0.,-1.));
#1476=DIRECTION('',(-1.,0.,0.));
#1477=DIRECTION('',(0.,0.,1.));
#1478=DIRECTION('',(1.,0.,0.));
#1479=DIRECTION('',(0.,0.,-1.));
#1480=DIRECTION('',(0.,0.,1.));
#1481=DIRECTION('',(1.,0.,0.));
#1482=DIRECTION('',(0.,1.,0.));
#1483=DIRECTION('',(0.,0.,1.));
#1484=DIRECTION('',(1.,0.,0.));
#1485=DIRECTION('',(0.,0.,-1.));
#1486=DIRECTION('',(1.,0.,0.));
#1487=DIRECTION('',(0.,0.,-1.));
#1488=DIRECTION('',(-1.,0.,0.));
#1489=DIRECTION('',(0.,0.,1.));
#1490=DIRECTION('',(1.,0.,0.));
#1491=DIRECTION('',(0.,0.,-1.));
#1492=DIRECTION('',(0.,0.,1.));
#1493=DIRECTION('',(1.,0.,0.));
#1494=DIRECTION('',(-1.,0.,0.));
#1495=DIRECTION('',(0.,0.,1.));
#1496=DIRECTION('',(0.,1.,0.));
#1497=DIRECTION('',(0.,0.,-1.));
#1498=DIRECTION('',(0.,1.,0.));
#1499=DIRECTION('',(0.,0.,-1.));
#1500=DIRECTION('',(0.,-1.,0.));
#1501=DIRECTION('',(0.,0.,-1.));
#1502=DIRECTION('',(-1.,0.,0.));
#1503=DIRECTION('',(0.,0.,-1.));
#1504=DIRECTION('',(-1.,0.,0.));
#1505=DIRECTION('',(-1.,0.,0.));
#1506=DIRECTION('',(0.,0.,1.));
#1507=DIRECTION('',(0.,1.,0.));
#1508=DIRECTION('',(0.,0.,-1.));
#1509=DIRECTION('',(0.,1.,0.));
#1510=DIRECTION('',(1.,0.,0.));
#1511=DIRECTION('',(0.,0.,-1.));
#1512=DIRECTION('',(0.,-1.,0.));
#1513=DIRECTION('',(0.,-1.,0.));
#1514=DIRECTION('',(1.,0.,0.));
#1515=DIRECTION('',(0.,0.,-1.));
#1516=DIRECTION('',(0.,-1.,0.));
#1517=DIRECTION('',(0.,-1.,0.));
#1518=DIRECTION('',(1.,0.,0.));
#1519=DIRECTION('',(0.,0.,-1.));
#1520=DIRECTION('',(0.,-1.,0.));
#1521=DIRECTION('',(0.,-1.,0.));
#1522=DIRECTION('',(0.,0.,-1.));
#1523=DIRECTION('',(-1.,0.,0.));
#1524=DIRECTION('',(0.,0.,-1.));
#1525=DIRECTION('',(1.,0.,0.));
#1526=DIRECTION('',(0.,0.,-1.));
#1527=DIRECTION('',(1.,0.,0.));
#1528=DIRECTION('',(0.,0.,-1.));
#1529=DIRECTION('',(-1.,0.,0.));
#1530=DIRECTION('',(0.,0.,1.));
#1531=DIRECTION('',(1.,0.,0.));
#1532=DIRECTION('',(0.,0.,1.));
#1533=DIRECTION('',(1.,0.,0.));
#1534=DIRECTION('',(0.,0.,-1.));
#1535=DIRECTION('',(-1.,0.,0.));
#1536=DIRECTION('',(0.,0.,-1.));
#1537=DIRECTION('',(1.,0.,0.));
#1538=DIRECTION('',(0.,0.,-1.));
#1539=DIRECTION('',(1.,0.,0.));
#1540=DIRECTION('',(0.,0.,-1.));
#1541=DIRECTION('',(-1.,0.,0.));
#1542=DIRECTION('',(0.,0.,1.));
#1543=DIRECTION('',(1.,0.,0.));
#1544=DIRECTION('',(0.,0.,1.));
#1545=DIRECTION('',(1.,0.,0.));
#1546=DIRECTION('',(1.30561224985711E-16,-1.,0.));
#1547=DIRECTION('',(1.,1.30561224985711E-16,0.));
#1548=DIRECTION('',(-1.,-1.30561224985711E-16,0.));
#1549=DIRECTION('',(-1.,-1.30561224985711E-16,0.));
#1550=DIRECTION('',(1.,0.,0.));
#1551=DIRECTION('',(0.,0.,-1.));
#1552=DIRECTION('',(0.,-1.,0.));
#1553=DIRECTION('',(0.,-1.,0.));
#1554=DIRECTION('',(0.,0.,1.));
#1555=DIRECTION('',(1.,0.,0.));
#1556=DIRECTION('',(0.,0.,1.));
#1557=DIRECTION('',(1.,0.,0.));
#1558=DIRECTION('',(0.,0.,1.));
#1559=DIRECTION('',(1.,0.,0.));
#1560=DIRECTION('',(0.,0.,1.));
#1561=DIRECTION('',(1.,0.,0.));
#1562=DIRECTION('',(0.,0.,1.));
#1563=DIRECTION('',(1.,0.,0.));
#1564=DIRECTION('',(0.,0.,-1.));
#1565=DIRECTION('',(1.,0.,0.));
#1566=DIRECTION('',(0.,0.,1.));
#1567=DIRECTION('',(1.,0.,0.));
#1568=DIRECTION('',(0.,0.,-1.));
#1569=DIRECTION('',(1.,0.,0.));
#1570=DIRECTION('',(0.,1.,0.));
#1571=DIRECTION('',(-1.,0.,0.));
#1572=DIRECTION('',(0.,1.,0.));
#1573=DIRECTION('',(-1.,0.,0.));
#1574=DIRECTION('',(0.,1.,0.));
#1575=DIRECTION('',(-1.,-1.30561224985711E-16,0.));
#1576=DIRECTION('',(0.,1.,0.));
#1577=DIRECTION('',(-1.,0.,0.));
#1578=DIRECTION('',(0.,1.,0.));
#1579=DIRECTION('',(-1.,-1.07214059083857E-16,0.));
#1580=DIRECTION('',(0.,1.,0.));
#1581=DIRECTION('',(-1.,0.,0.));
#1582=DIRECTION('',(-1.,0.,0.));
#1583=DIRECTION('',(0.,0.,1.));
#1584=DIRECTION('',(0.,3.09772049281573E-16,-1.));
#1585=DIRECTION('',(0.,0.,-1.));
#1586=DIRECTION('',(0.,1.,0.));
#1587=DIRECTION('',(0.,0.,-1.));
#1588=DIRECTION('',(0.,-4.95635278850516E-16,-1.));
#1589=DIRECTION('',(0.,1.,-6.93889390390723E-17));
#1590=DIRECTION('',(1.07214059083857E-16,-1.,0.));
#1591=DIRECTION('',(1.,1.07214059083857E-16,0.));
#1592=DIRECTION('',(-1.,-1.07214059083857E-16,0.));
#1593=DIRECTION('',(0.,0.,-1.));
#1594=DIRECTION('',(-1.,0.,0.));
#1595=DIRECTION('',(0.,0.,1.));
#1596=DIRECTION('',(0.,1.,0.));
#1597=DIRECTION('',(0.,0.,-1.));
#1598=DIRECTION('',(-1.,0.,0.));
#1599=DIRECTION('',(0.,0.,1.));
#1600=DIRECTION('',(0.,-4.95635278850516E-16,-1.));
#1601=DIRECTION('',(0.,0.,-1.));
#1602=DIRECTION('',(0.,1.,0.));
#1603=DIRECTION('',(0.,0.,-1.));
#1604=DIRECTION('',(0.,3.09772049281573E-16,-1.));
#1605=DIRECTION('',(0.,1.,-6.93889390390723E-17));
#1606=DIRECTION('',(0.,-1.,0.));
#1607=DIRECTION('',(0.,0.,-1.));
#1608=DIRECTION('',(-1.,0.,0.));
#1609=DIRECTION('',(0.,0.,-1.));
#1610=DIRECTION('',(-1.,0.,0.));
#1611=DIRECTION('',(0.,0.,1.));
#1612=DIRECTION('',(0.,1.,0.));
#1613=DIRECTION('',(0.,0.,-1.));
#1614=DIRECTION('',(0.,0.,-1.));
#1615=DIRECTION('',(-1.,0.,0.));
#1616=DIRECTION('',(0.,0.,-1.));
#1617=DIRECTION('',(1.,0.,0.));
#1618=DIRECTION('',(0.,0.,-1.));
#1619=DIRECTION('',(-1.,0.,0.));
#1620=DIRECTION('',(0.,0.,1.));
#1621=DIRECTION('',(1.,0.,0.));
#1622=DIRECTION('',(0.,0.,-1.));
#1623=DIRECTION('',(-1.,0.,0.));
#1624=DIRECTION('',(0.,0.,-1.));
#1625=DIRECTION('',(1.,0.,0.));
#1626=DIRECTION('',(0.,0.,-1.));
#1627=DIRECTION('',(-1.,0.,0.));
#1628=DIRECTION('',(0.,0.,1.));
#1629=DIRECTION('',(1.,0.,0.));
#1630=DIRECTION('',(1.30561224985711E-16,-1.,0.));
#1631=DIRECTION('',(1.,1.30561224985711E-16,0.));
#1632=DIRECTION('',(-1.,-1.30561224985711E-16,0.));
#1633=DIRECTION('',(0.,-1.,0.));
#1634=DIRECTION('',(0.,0.,-1.));
#1635=DIRECTION('',(-1.,0.,0.));
#1636=DIRECTION('',(0.,0.,1.));
#1637=DIRECTION('',(1.,0.,0.));
#1638=DIRECTION('',(0.,0.,1.));
#1639=DIRECTION('',(1.,0.,0.));
#1640=DIRECTION('',(0.,1.,-4.95635278850516E-16));
#1641=DIRECTION('',(0.,4.95635278850516E-16,1.));
#1642=DIRECTION('',(-1.,0.,0.));
#1643=DIRECTION('',(0.,6.93889390390723E-17,1.));
#1644=DIRECTION('',(0.,-1.,6.93889390390723E-17));
#1645=DIRECTION('',(-1.,0.,0.));
#1646=DIRECTION('',(0.,1.,3.09772049281573E-16));
#1647=DIRECTION('',(0.,-3.09772049281573E-16,1.));
#1648=CARTESIAN_POINT('',(0.,0.,0.));
#1649=CARTESIAN_POINT('',(-0.01357125,0.01527125,0.013));
#1650=CARTESIAN_POINT('',(-0.01357125,0.01527125,0.01));
#1651=CARTESIAN_POINT('',(-0.01357125,0.01569625,0.01));
#1652=CARTESIAN_POINT('',(-0.01399625,0.01527125,0.01));
#1653=CARTESIAN_POINT('',(-0.01357125,0.01569625,0.013));
#1654=CARTESIAN_POINT('',(-0.01357125,0.01569625,0.013));
#1655=CARTESIAN_POINT('',(-0.01357125,0.01527125,0.013));
#1656=CARTESIAN_POINT('',(-0.01399625,0.01527125,0.013));
#1657=CARTESIAN_POINT('',(-0.01399625,0.01527125,0.013));
#1658=CARTESIAN_POINT('',(-0.00804625,0.01569625,0.013));
#1659=CARTESIAN_POINT('',(-0.00804625,0.01569625,0.01));
#1660=CARTESIAN_POINT('',(-0.00252125,0.01569625,0.01));
#1661=CARTESIAN_POINT('',(-0.00252125,0.01569625,0.013));
#1662=CARTESIAN_POINT('',(-0.00252125,0.01569625,0.013));
#1663=CARTESIAN_POINT('',(-0.00804625,0.01569625,0.013));
#1664=CARTESIAN_POINT('',(-0.00252125,0.01527125,0.013));
#1665=CARTESIAN_POINT('',(-0.00252125,0.01527125,0.01));
#1666=CARTESIAN_POINT('',(-0.00209625,0.01527125,0.01));
#1667=CARTESIAN_POINT('',(-0.00209625,0.01527125,0.013));
#1668=CARTESIAN_POINT('',(-0.00209625,0.01527125,0.013));
#1669=CARTESIAN_POINT('',(-0.00252125,0.01527125,0.013));
#1670=CARTESIAN_POINT('',(-0.00209625,0.00974625,0.013));
#1671=CARTESIAN_POINT('',(-0.00209625,0.00974625,0.01));
#1672=CARTESIAN_POINT('',(-0.00209625,0.00422125,0.01));
#1673=CARTESIAN_POINT('',(-0.00209625,0.00422125,0.013));
#1674=CARTESIAN_POINT('',(-0.00209625,0.00422125,0.013));
#1675=CARTESIAN_POINT('',(-0.00209625,0.00974625,0.013));
#1676=CARTESIAN_POINT('',(-0.00252125,0.00422125,0.013));
#1677=CARTESIAN_POINT('',(-0.00252125,0.00422125,0.01));
#1678=CARTESIAN_POINT('',(-0.00252125,0.00379625,0.01));
#1679=CARTESIAN_POINT('',(-0.00252125,0.00379625,0.013));
#1680=CARTESIAN_POINT('',(-0.00252125,0.00379625,0.013));
#1681=CARTESIAN_POINT('',(-0.00252125,0.00422125,0.013));
#1682=CARTESIAN_POINT('',(-0.00804625,0.00379625,0.013));
#1683=CARTESIAN_POINT('',(-0.00804625,0.00379625,0.01));
#1684=CARTESIAN_POINT('',(-0.01357125,0.00379625,0.01));
#1685=CARTESIAN_POINT('',(-0.01357125,0.00379625,0.013));
#1686=CARTESIAN_POINT('',(-0.01357125,0.00379625,0.013));
#1687=CARTESIAN_POINT('',(-0.00804625,0.00379625,0.013));
#1688=CARTESIAN_POINT('',(-0.01357125,0.00422125,0.013));
#1689=CARTESIAN_POINT('',(-0.01357125,0.00422125,0.01));
#1690=CARTESIAN_POINT('',(-0.01399625,0.00422125,0.01));
#1691=CARTESIAN_POINT('',(-0.01399625,0.00422125,0.013));
#1692=CARTESIAN_POINT('',(-0.01399625,0.00422125,0.013));
#1693=CARTESIAN_POINT('',(-0.01357125,0.00422125,0.013));
#1694=CARTESIAN_POINT('',(-0.02976375,0.01527125,0.013));
#1695=CARTESIAN_POINT('',(-0.02976375,0.01527125,0.01));
#1696=CARTESIAN_POINT('',(-0.02976375,0.01569625,0.01));
#1697=CARTESIAN_POINT('',(-0.03018875,0.01527125,0.01));
#1698=CARTESIAN_POINT('',(-0.02976375,0.01569625,0.013));
#1699=CARTESIAN_POINT('',(-0.02976375,0.01569625,0.013));
#1700=CARTESIAN_POINT('',(-0.02976375,0.01527125,0.013));
#1701=CARTESIAN_POINT('',(-0.03018875,0.01527125,0.013));
#1702=CARTESIAN_POINT('',(-0.03018875,0.01527125,0.013));
#1703=CARTESIAN_POINT('',(-0.02423875,0.01569625,0.013));
#1704=CARTESIAN_POINT('',(-0.02423875,0.01569625,0.01));
#1705=CARTESIAN_POINT('',(-0.01871375,0.01569625,0.01));
#1706=CARTESIAN_POINT('',(-0.01871375,0.01569625,0.013));
#1707=CARTESIAN_POINT('',(-0.01871375,0.01569625,0.013));
#1708=CARTESIAN_POINT('',(-0.02423875,0.01569625,0.013));
#1709=CARTESIAN_POINT('',(-0.01871375,0.01527125,0.013));
#1710=CARTESIAN_POINT('',(-0.01871375,0.01527125,0.01));
#1711=CARTESIAN_POINT('',(-0.01828875,0.01527125,0.01));
#1712=CARTESIAN_POINT('',(-0.01828875,0.01527125,0.013));
#1713=CARTESIAN_POINT('',(-0.01828875,0.01527125,0.013));
#1714=CARTESIAN_POINT('',(-0.01871375,0.01527125,0.013));
#1715=CARTESIAN_POINT('',(-0.01828875,0.00974625,0.013));
#1716=CARTESIAN_POINT('',(-0.01828875,0.00974625,0.01));
#1717=CARTESIAN_POINT('',(-0.01828875,0.00422125,0.01));
#1718=CARTESIAN_POINT('',(-0.01828875,0.00422125,0.013));
#1719=CARTESIAN_POINT('',(-0.01828875,0.00422125,0.013));
#1720=CARTESIAN_POINT('',(-0.01828875,0.00974625,0.013));
#1721=CARTESIAN_POINT('',(-0.01871375,0.00422125,0.013));
#1722=CARTESIAN_POINT('',(-0.01871375,0.00422125,0.01));
#1723=CARTESIAN_POINT('',(-0.01871375,0.00379625,0.01));
#1724=CARTESIAN_POINT('',(-0.01871375,0.00379625,0.013));
#1725=CARTESIAN_POINT('',(-0.01871375,0.00379625,0.013));
#1726=CARTESIAN_POINT('',(-0.01871375,0.00422125,0.013));
#1727=CARTESIAN_POINT('',(-0.02423875,0.00379625,0.013));
#1728=CARTESIAN_POINT('',(-0.02423875,0.00379625,0.01));
#1729=CARTESIAN_POINT('',(-0.02976375,0.00379625,0.01));
#1730=CARTESIAN_POINT('',(-0.02976375,0.00379625,0.013));
#1731=CARTESIAN_POINT('',(-0.02976375,0.00379625,0.013));
#1732=CARTESIAN_POINT('',(-0.02423875,0.00379625,0.013));
#1733=CARTESIAN_POINT('',(-0.02976375,0.00422125,0.013));
#1734=CARTESIAN_POINT('',(-0.02976375,0.00422125,0.01));
#1735=CARTESIAN_POINT('',(-0.03018875,0.00422125,0.01));
#1736=CARTESIAN_POINT('',(-0.03018875,0.00422125,0.013));
#1737=CARTESIAN_POINT('',(-0.03018875,0.00422125,0.013));
#1738=CARTESIAN_POINT('',(-0.02976375,0.00422125,0.013));
#1739=CARTESIAN_POINT('',(-0.04595625,0.01527125,0.013));
#1740=CARTESIAN_POINT('',(-0.04595625,0.01527125,0.01));
#1741=CARTESIAN_POINT('',(-0.04595625,0.01569625,0.01));
#1742=CARTESIAN_POINT('',(-0.04638125,0.01527125,0.01));
#1743=CARTESIAN_POINT('',(-0.04595625,0.01569625,0.013));
#1744=CARTESIAN_POINT('',(-0.04595625,0.01569625,0.013));
#1745=CARTESIAN_POINT('',(-0.04595625,0.01527125,0.013));
#1746=CARTESIAN_POINT('',(-0.04638125,0.01527125,0.013));
#1747=CARTESIAN_POINT('',(-0.04638125,0.01527125,0.013));
#1748=CARTESIAN_POINT('',(-0.04043125,0.01569625,0.013));
#1749=CARTESIAN_POINT('',(-0.04043125,0.01569625,0.01));
#1750=CARTESIAN_POINT('',(-0.03490625,0.01569625,0.01));
#1751=CARTESIAN_POINT('',(-0.03490625,0.01569625,0.013));
#1752=CARTESIAN_POINT('',(-0.03490625,0.01569625,0.013));
#1753=CARTESIAN_POINT('',(-0.04043125,0.01569625,0.013));
#1754=CARTESIAN_POINT('',(-0.03490625,0.01527125,0.013));
#1755=CARTESIAN_POINT('',(-0.03490625,0.01527125,0.01));
#1756=CARTESIAN_POINT('',(-0.03448125,0.01527125,0.01));
#1757=CARTESIAN_POINT('',(-0.03448125,0.01527125,0.013));
#1758=CARTESIAN_POINT('',(-0.03448125,0.01527125,0.013));
#1759=CARTESIAN_POINT('',(-0.03490625,0.01527125,0.013));
#1760=CARTESIAN_POINT('',(-0.03448125,0.00974625,0.013));
#1761=CARTESIAN_POINT('',(-0.03448125,0.00974625,0.01));
#1762=CARTESIAN_POINT('',(-0.03448125,0.00422125,0.01));
#1763=CARTESIAN_POINT('',(-0.03448125,0.00422125,0.013));
#1764=CARTESIAN_POINT('',(-0.03448125,0.00422125,0.013));
#1765=CARTESIAN_POINT('',(-0.03448125,0.00974625,0.013));
#1766=CARTESIAN_POINT('',(-0.03490625,0.00422125,0.013));
#1767=CARTESIAN_POINT('',(-0.03490625,0.00422125,0.01));
#1768=CARTESIAN_POINT('',(-0.03490625,0.00379625,0.01));
#1769=CARTESIAN_POINT('',(-0.03490625,0.00379625,0.013));
#1770=CARTESIAN_POINT('',(-0.03490625,0.00379625,0.013));
#1771=CARTESIAN_POINT('',(-0.03490625,0.00422125,0.013));
#1772=CARTESIAN_POINT('',(-0.04043125,0.00379625,0.013));
#1773=CARTESIAN_POINT('',(-0.04043125,0.00379625,0.01));
#1774=CARTESIAN_POINT('',(-0.04595625,0.00379625,0.01));
#1775=CARTESIAN_POINT('',(-0.04595625,0.00379625,0.013));
#1776=CARTESIAN_POINT('',(-0.04595625,0.00379625,0.013));
#1777=CARTESIAN_POINT('',(-0.04043125,0.00379625,0.013));
#1778=CARTESIAN_POINT('',(-0.04595625,0.00422125,0.013));
#1779=CARTESIAN_POINT('',(-0.04595625,0.00422125,0.01));
#1780=CARTESIAN_POINT('',(-0.04638125,0.00422125,0.01));
#1781=CARTESIAN_POINT('',(-0.04638125,0.00422125,0.013));
#1782=CARTESIAN_POINT('',(-0.04638125,0.00422125,0.013));
#1783=CARTESIAN_POINT('',(-0.04595625,0.00422125,0.013));
#1784=CARTESIAN_POINT('',(-0.06214875,0.01527125,0.013));
#1785=CARTESIAN_POINT('',(-0.06214875,0.01527125,0.01));
#1786=CARTESIAN_POINT('',(-0.06214875,0.01569625,0.01));
#1787=CARTESIAN_POINT('',(-0.06257375,0.01527125,0.01));
#1788=CARTESIAN_POINT('',(-0.06214875,0.01569625,0.013));
#1789=CARTESIAN_POINT('',(-0.06214875,0.01569625,0.013));
#1790=CARTESIAN_POINT('',(-0.06214875,0.01527125,0.013));
#1791=CARTESIAN_POINT('',(-0.06257375,0.01527125,0.013));
#1792=CARTESIAN_POINT('',(-0.06257375,0.01527125,0.013));
#1793=CARTESIAN_POINT('',(-0.05662375,0.01569625,0.013));
#1794=CARTESIAN_POINT('',(-0.05662375,0.01569625,0.01));
#1795=CARTESIAN_POINT('',(-0.05109875,0.01569625,0.01));
#1796=CARTESIAN_POINT('',(-0.05109875,0.01569625,0.013));
#1797=CARTESIAN_POINT('',(-0.05109875,0.01569625,0.013));
#1798=CARTESIAN_POINT('',(-0.05662375,0.01569625,0.013));
#1799=CARTESIAN_POINT('',(-0.05109875,0.01527125,0.013));
#1800=CARTESIAN_POINT('',(-0.05109875,0.01527125,0.01));
#1801=CARTESIAN_POINT('',(-0.05067375,0.01527125,0.01));
#1802=CARTESIAN_POINT('',(-0.05067375,0.01527125,0.013));
#1803=CARTESIAN_POINT('',(-0.05067375,0.01527125,0.013));
#1804=CARTESIAN_POINT('',(-0.05109875,0.01527125,0.013));
#1805=CARTESIAN_POINT('',(-0.05067375,0.00974625,0.013));
#1806=CARTESIAN_POINT('',(-0.05067375,0.00974625,0.01));
#1807=CARTESIAN_POINT('',(-0.05067375,0.00422125,0.01));
#1808=CARTESIAN_POINT('',(-0.05067375,0.00422125,0.013));
#1809=CARTESIAN_POINT('',(-0.05067375,0.00422125,0.013));
#1810=CARTESIAN_POINT('',(-0.05067375,0.00974625,0.013));
#1811=CARTESIAN_POINT('',(-0.05109875,0.00422125,0.013));
#1812=CARTESIAN_POINT('',(-0.05109875,0.00422125,0.01));
#1813=CARTESIAN_POINT('',(-0.05109875,0.00379625,0.01));
#1814=CARTESIAN_POINT('',(-0.05109875,0.00379625,0.013));
#1815=CARTESIAN_POINT('',(-0.05109875,0.00379625,0.013));
#1816=CARTESIAN_POINT('',(-0.05109875,0.00422125,0.013));
#1817=CARTESIAN_POINT('',(-0.05662375,0.00379625,0.013));
#1818=CARTESIAN_POINT('',(-0.05662375,0.00379625,0.01));
#1819=CARTESIAN_POINT('',(-0.06214875,0.00379625,0.01));
#1820=CARTESIAN_POINT('',(-0.06214875,0.00379625,0.013));
#1821=CARTESIAN_POINT('',(-0.06214875,0.00379625,0.013));
#1822=CARTESIAN_POINT('',(-0.05662375,0.00379625,0.013));
#1823=CARTESIAN_POINT('',(-0.06214875,0.00422125,0.013));
#1824=CARTESIAN_POINT('',(-0.06214875,0.00422125,0.01));
#1825=CARTESIAN_POINT('',(-0.06257375,0.00422125,0.01));
#1826=CARTESIAN_POINT('',(-0.06257375,0.00422125,0.013));
#1827=CARTESIAN_POINT('',(-0.06257375,0.00422125,0.013));
#1828=CARTESIAN_POINT('',(-0.06214875,0.00422125,0.013));
#1829=CARTESIAN_POINT('',(-0.07472,0.02695,0.013));
#1830=CARTESIAN_POINT('',(-0.07472,0.02695,0.01));
#1831=CARTESIAN_POINT('',(-0.07472,-0.01,0.01));
#1832=CARTESIAN_POINT('',(-0.07472,0.02945,0.01));
#1833=CARTESIAN_POINT('',(-0.07472,-0.01,0.013));
#1834=CARTESIAN_POINT('',(-0.07472,-0.01,0.013));
#1835=CARTESIAN_POINT('',(-0.07472,0.02695,0.013));
#1836=CARTESIAN_POINT('',(-0.07472,0.02945,0.013));
#1837=CARTESIAN_POINT('',(-0.07472,0.02945,0.013));
#1838=CARTESIAN_POINT('',(-0.03236,-0.01,0.013));
#1839=CARTESIAN_POINT('',(-0.03236,-0.01,0.01));
#1840=CARTESIAN_POINT('',(0.01,-0.01,0.01));
#1841=CARTESIAN_POINT('',(0.01,-0.01,0.013));
#1842=CARTESIAN_POINT('',(0.01,-0.01,0.013));
#1843=CARTESIAN_POINT('',(-0.03236,-0.01,0.013));
#1844=CARTESIAN_POINT('',(0.01,0.009725,0.013));
#1845=CARTESIAN_POINT('',(0.01,0.009725,0.01));
#1846=CARTESIAN_POINT('',(0.01,0.02945,0.01));
#1847=CARTESIAN_POINT('',(0.01,0.02945,0.013));
#1848=CARTESIAN_POINT('',(0.01,0.02945,0.013));
#1849=CARTESIAN_POINT('',(0.01,0.009725,0.013));
#1850=CARTESIAN_POINT('',(-0.03018875,0.00974625,0.013));
#1851=CARTESIAN_POINT('',(-0.03018875,0.00974625,0.01));
#1852=CARTESIAN_POINT('',(-0.03018875,0.00974625,0.013));
#1853=CARTESIAN_POINT('',(-0.04638125,0.00974625,0.013));
#1854=CARTESIAN_POINT('',(-0.04638125,0.00974625,0.01));
#1855=CARTESIAN_POINT('',(-0.04638125,0.00974625,0.013));
#1856=CARTESIAN_POINT('',(-0.06257375,0.00974625,0.013));
#1857=CARTESIAN_POINT('',(-0.06257375,0.00974625,0.01));
#1858=CARTESIAN_POINT('',(-0.06257375,0.00974625,0.013));
#1859=CARTESIAN_POINT('',(-0.06972,-0.005,0.013));
#1860=CARTESIAN_POINT('',(-0.06972,-0.005,0.013));
#1861=CARTESIAN_POINT('',(-0.06827,-0.005,0.013));
#1862=CARTESIAN_POINT('',(-0.06972,-0.005,0.01));
#1863=CARTESIAN_POINT('',(-0.06827,-0.005,0.01));
#1864=CARTESIAN_POINT('',(0.005,-0.005,0.013));
#1865=CARTESIAN_POINT('',(0.005,-0.005,0.013));
#1866=CARTESIAN_POINT('',(0.00645,-0.005,0.013));
#1867=CARTESIAN_POINT('',(0.005,-0.005,0.01));
#1868=CARTESIAN_POINT('',(0.00645,-0.005,0.01));
#1869=CARTESIAN_POINT('',(0.005,0.02445,0.013));
#1870=CARTESIAN_POINT('',(0.005,0.02445,0.013));
#1871=CARTESIAN_POINT('',(0.00645,0.02445,0.013));
#1872=CARTESIAN_POINT('',(0.005,0.02445,0.01));
#1873=CARTESIAN_POINT('',(0.00645,0.02445,0.01));
#1874=CARTESIAN_POINT('',(-0.06972,0.02445,0.013));
#1875=CARTESIAN_POINT('',(-0.06972,0.02445,0.013));
#1876=CARTESIAN_POINT('',(-0.06827,0.02445,0.013));
#1877=CARTESIAN_POINT('',(-0.06972,0.02445,0.01));
#1878=CARTESIAN_POINT('',(-0.06827,0.02445,0.01));
#1879=CARTESIAN_POINT('',(-0.02986,0.02945,0.013));
#1880=CARTESIAN_POINT('',(-0.02986,0.02945,0.01));
#1881=CARTESIAN_POINT('',(-0.02986,0.02945,0.013));
#1882=CARTESIAN_POINT('',(-0.01399625,0.00974625,0.013));
#1883=CARTESIAN_POINT('',(-0.01399625,0.00974625,0.01));
#1884=CARTESIAN_POINT('',(-0.01399625,0.00974625,0.013));
#1885=CARTESIAN_POINT('',(-0.03236,0.009725,0.013));
#1886=CARTESIAN_POINT('',(-0.03236,0.009725,0.01));
#1887=CARTESIAN_POINT('',(0.,0.,0.));
#1888=CARTESIAN_POINT('',(-0.03236,0.009725,0.01));
#1889=CARTESIAN_POINT('',(-0.06972,0.02445,0.01));
#1890=CARTESIAN_POINT('',(-0.06827,0.02445,0.01));
#1891=CARTESIAN_POINT('',(-0.06972,-0.005,0.01));
#1892=CARTESIAN_POINT('',(-0.06827,-0.005,0.01));
#1893=CARTESIAN_POINT('',(0.005,-0.005,0.01));
#1894=CARTESIAN_POINT('',(0.00645,-0.005,0.01));
#1895=CARTESIAN_POINT('',(0.005,0.02445,0.01));
#1896=CARTESIAN_POINT('',(0.00645,0.02445,0.01));
#1897=CARTESIAN_POINT('',(-0.06472,0.0048625,0.01));
#1898=CARTESIAN_POINT('',(-0.06472,-3.46944695195361E-18,0.01));
#1899=CARTESIAN_POINT('',(-0.06472,0.003475,0.01));
#1900=CARTESIAN_POINT('',(-0.06472,0.003475,0.01));
#1901=CARTESIAN_POINT('',(-0.07472,0.003475,0.01));
#1902=CARTESIAN_POINT('',(-0.07472,0.02695,0.01));
#1903=CARTESIAN_POINT('',(-0.07472,-0.01,0.01));
#1904=CARTESIAN_POINT('',(-0.03236,-0.01,0.01));
#1905=CARTESIAN_POINT('',(0.01,-0.01,0.01));
#1906=CARTESIAN_POINT('',(0.01,0.009725,0.01));
#1907=CARTESIAN_POINT('',(0.01,0.02945,0.01));
#1908=CARTESIAN_POINT('',(-0.02986,0.02945,0.01));
#1909=CARTESIAN_POINT('',(-0.07472,0.02945,0.01));
#1910=CARTESIAN_POINT('',(-0.07472,0.02695,0.01));
#1911=CARTESIAN_POINT('',(-0.07472,0.015975,0.01));
#1912=CARTESIAN_POINT('',(-0.06472,0.015975,0.01));
#1913=CARTESIAN_POINT('',(-0.06472,0.015975,0.01));
#1914=CARTESIAN_POINT('',(-0.06472,0.0048625,0.01));
#1915=CARTESIAN_POINT('',(-0.06472,0.01945,0.01));
#1916=CARTESIAN_POINT('',(-0.04854,0.01945,0.01));
#1917=CARTESIAN_POINT('',(0.,0.01945,0.01));
#1918=CARTESIAN_POINT('',(0.,0.009725,0.01));
#1919=CARTESIAN_POINT('',(0.,0.,0.01));
#1920=CARTESIAN_POINT('',(-0.03236,0.,0.01));
#1921=CARTESIAN_POINT('',(-0.06472,0.0048625,0.01));
#1922=CARTESIAN_POINT('',(-0.06472,0.003475,0.0065));
#1923=CARTESIAN_POINT('',(-0.06472,0.003475,0.003));
#1924=CARTESIAN_POINT('',(-0.06472,-3.46944695195361E-18,0.01));
#1925=CARTESIAN_POINT('',(-0.06472,-3.46944695195361E-18,0.));
#1926=CARTESIAN_POINT('',(-0.06472,0.0048625,0.));
#1927=CARTESIAN_POINT('',(-0.06472,0.01945,0.));
#1928=CARTESIAN_POINT('',(-0.06472,0.01945,0.01));
#1929=CARTESIAN_POINT('',(-0.06472,0.015975,0.0065));
#1930=CARTESIAN_POINT('',(-0.06472,0.015975,0.003));
#1931=CARTESIAN_POINT('',(-0.06472,0.01285,0.003));
#1932=CARTESIAN_POINT('',(-0.04854,0.01945,0.01));
#1933=CARTESIAN_POINT('',(-0.04854,0.01945,0.));
#1934=CARTESIAN_POINT('',(0.,0.01945,0.));
#1935=CARTESIAN_POINT('',(0.,0.01945,0.01));
#1936=CARTESIAN_POINT('',(0.,0.009725,0.01));
#1937=CARTESIAN_POINT('',(0.,0.009725,0.));
#1938=CARTESIAN_POINT('',(0.,0.,0.));
#1939=CARTESIAN_POINT('',(0.,0.,0.01));
#1940=CARTESIAN_POINT('',(-0.07472,0.02695,0.01));
#1941=CARTESIAN_POINT('',(-0.07472,0.015975,0.0065));
#1942=CARTESIAN_POINT('',(-0.07472,0.015975,0.003));
#1943=CARTESIAN_POINT('',(-0.07472,0.02945,0.01));
#1944=CARTESIAN_POINT('',(-0.07472,0.02945,-0.003));
#1945=CARTESIAN_POINT('',(-0.07472,0.02695,-0.003));
#1946=CARTESIAN_POINT('',(-0.07472,-0.01,-0.003));
#1947=CARTESIAN_POINT('',(-0.07472,-0.01,0.01));
#1948=CARTESIAN_POINT('',(-0.07472,0.003475,0.0065));
#1949=CARTESIAN_POINT('',(-0.07472,0.003475,0.003));
#1950=CARTESIAN_POINT('',(-0.07472,0.01285,0.003));
#1951=CARTESIAN_POINT('',(-0.03236,-0.01,0.01));
#1952=CARTESIAN_POINT('',(-0.03236,-0.01,-0.003));
#1953=CARTESIAN_POINT('',(0.01,-0.01,-0.003));
#1954=CARTESIAN_POINT('',(0.01,-0.01,0.01));
#1955=CARTESIAN_POINT('',(0.01,0.009725,0.01));
#1956=CARTESIAN_POINT('',(0.01,0.009725,-0.003));
#1957=CARTESIAN_POINT('',(0.01,0.02945,-0.003));
#1958=CARTESIAN_POINT('',(0.01,0.02945,0.01));
#1959=CARTESIAN_POINT('',(0.005,0.02445,0.01));
#1960=CARTESIAN_POINT('',(0.005,0.02445,-0.003));
#1961=CARTESIAN_POINT('',(0.00645,0.02445,-0.003));
#1962=CARTESIAN_POINT('',(0.005,-0.005,0.01));
#1963=CARTESIAN_POINT('',(0.005,-0.005,-0.003));
#1964=CARTESIAN_POINT('',(0.00645,-0.005,-0.003));
#1965=CARTESIAN_POINT('',(-0.06972,-0.005,0.01));
#1966=CARTESIAN_POINT('',(-0.06972,-0.005,-0.003));
#1967=CARTESIAN_POINT('',(-0.06827,-0.005,-0.003));
#1968=CARTESIAN_POINT('',(-0.06972,0.02445,0.01));
#1969=CARTESIAN_POINT('',(-0.06972,0.02445,-0.003));
#1970=CARTESIAN_POINT('',(-0.06827,0.02445,-0.003));
#1971=CARTESIAN_POINT('',(-0.02986,0.02945,0.01));
#1972=CARTESIAN_POINT('',(-0.02986,0.02945,-0.003));
#1973=CARTESIAN_POINT('',(-0.03236,0.,0.01));
#1974=CARTESIAN_POINT('',(-0.03236,0.,0.));
#1975=CARTESIAN_POINT('',(-0.03236,0.009725,0.));
#1976=CARTESIAN_POINT('',(-0.03236,0.009725,-0.003));
#1977=CARTESIAN_POINT('',(-0.06472,0.015975,0.0065));
#1978=CARTESIAN_POINT('',(-0.06472,0.015975,0.003));
#1979=CARTESIAN_POINT('',(-0.06472,0.01285,0.003));
#1980=CARTESIAN_POINT('',(-0.06472,0.003475,0.003));
#1981=CARTESIAN_POINT('',(-0.06472,0.003475,0.0065));
#1982=MECHANICAL_DESIGN_GEOMETRIC_PRESENTATION_REPRESENTATION('',(#1185),
#1984);
#1983=MECHANICAL_DESIGN_GEOMETRIC_PRESENTATION_REPRESENTATION('',(#1186),
#1985);
#1984=(
GEOMETRIC_REPRESENTATION_CONTEXT(3)
GLOBAL_UNCERTAINTY_ASSIGNED_CONTEXT((#1986))
GLOBAL_UNIT_ASSIGNED_CONTEXT((#1992,#1990,#1988))
REPRESENTATION_CONTEXT('Top','TOP_LEVEL_ASSEMBLY_PART')
);
#1985=(
GEOMETRIC_REPRESENTATION_CONTEXT(3)
GLOBAL_UNCERTAINTY_ASSIGNED_CONTEXT((#1987))
GLOBAL_UNIT_ASSIGNED_CONTEXT((#1993,#1991,#1989))
REPRESENTATION_CONTEXT('Bottom','TOP_LEVEL_ASSEMBLY_PART')
);
#1986=UNCERTAINTY_MEASURE_WITH_UNIT(LENGTH_MEASURE(1.E-8),#1992,
'DISTANCE_ACCURACY_VALUE','Maximum Tolerance applied to model');
#1987=UNCERTAINTY_MEASURE_WITH_UNIT(LENGTH_MEASURE(1.E-8),#1993,
'DISTANCE_ACCURACY_VALUE','Maximum Tolerance applied to model');
#1988=(
NAMED_UNIT(*)
SI_UNIT($,.STERADIAN.)
SOLID_ANGLE_UNIT()
);
#1989=(
NAMED_UNIT(*)
SI_UNIT($,.STERADIAN.)
SOLID_ANGLE_UNIT()
);
#1990=(
NAMED_UNIT(*)
PLANE_ANGLE_UNIT()
SI_UNIT($,.RADIAN.)
);
#1991=(
NAMED_UNIT(*)
PLANE_ANGLE_UNIT()
SI_UNIT($,.RADIAN.)
);
#1992=(
LENGTH_UNIT()
NAMED_UNIT(*)
SI_UNIT($,.METRE.)
);
#1993=(
LENGTH_UNIT()
NAMED_UNIT(*)
SI_UNIT($,.METRE.)
);
#1994=PRODUCT_DEFINITION_SHAPE('','',#1996);
#1995=PRODUCT_DEFINITION_SHAPE('','',#1997);
#1996=PRODUCT_DEFINITION('','',#2000,#1998);
#1997=PRODUCT_DEFINITION('','',#2001,#1999);
#1998=PRODUCT_DEFINITION_CONTEXT('',#2012,'design');
#1999=PRODUCT_DEFINITION_CONTEXT('',#2013,'design');
#2000=PRODUCT_DEFINITION_FORMATION_WITH_SPECIFIED_SOURCE('','',#2004,
 .NOT_KNOWN.);
#2001=PRODUCT_DEFINITION_FORMATION_WITH_SPECIFIED_SOURCE('','',#2005,
 .NOT_KNOWN.);
#2002=PRODUCT_RELATED_PRODUCT_CATEGORY('','',(#2004));
#2003=PRODUCT_RELATED_PRODUCT_CATEGORY('','',(#2005));
#2004=PRODUCT('Top','Top','Top',(#2008));
#2005=PRODUCT('Bottom','Bottom','Bottom',(#2009));
#2006=PRODUCT_CATEGORY('','');
#2007=PRODUCT_CATEGORY('','');
#2008=PRODUCT_CONTEXT('',#2012,'mechanical');
#2009=PRODUCT_CONTEXT('',#2013,'mechanical');
#2010=APPLICATION_PROTOCOL_DEFINITION('international standard',
'ap242_managed_model_based_3d_engineering',2020,#2012);
#2011=APPLICATION_PROTOCOL_DEFINITION('international standard',
'ap242_managed_model_based_3d_engineering',2020,#2013);
#2012=APPLICATION_CONTEXT('managed model based 3d engineering');
#2013=APPLICATION_CONTEXT('managed model based 3d engineering');
ENDSEC;
END-ISO-10303-21;
